<?xml version="1.0" standalone="no"?>
<!DOCTYPE svg PUBLIC "-//W3C//DTD SVG 1.1//EN" "http://www.w3.org/Graphics/SVG/1.1/DTD/svg11.dtd" >
<svg xmlns="http://www.w3.org/2000/svg" xmlns:xlink="http://www.w3.org/1999/xlink" version="1.1">
<metadata>
Created by FontForge 20190801 at Fri Feb 26 01:09:40 2016
 By Jimmy Wärting
</metadata>
<defs>
<font id="SVN-BalladeerLight" horiz-adv-x="861" >
  <font-face 
    font-family="SVN-Balladeer Light"
    font-weight="300"
    font-style="italic"
    font-stretch="normal"
    units-per-em="1000"
    panose-1="0 0 4 0 0 0 0 0 0 0"
    ascent="713"
    descent="-287"
    x-height="353"
    cap-height="700"
    bbox="-399 -287 1601 1073.25"
    underline-thickness="63"
    underline-position="-126"
    slope="-34"
    unicode-range="U+0020-FB02"
  />
<missing-glyph horiz-adv-x="255" 
 />
    <glyph glyph-name="fi" unicode="fi" horiz-adv-x="433" 
d="M146 50q-24 -39 -53 -76t-60 -69t-62 -58t-61 -42q-38 -22 -81 -35t-78 -13q-48 0 -74.5 15.5t-26.5 42.5q0 17 11.5 28.5t28.5 11.5q11 0 18.5 -6.5t7.5 -15.5q0 -5 -2 -7.5t-10 -9.5q-2 -2 -2 -6q0 -17 17 -28.5t43 -11.5q68 0 145.5 73t176.5 228l172 273h-66l7 12h70
l20 25q33 43 53 68t36 42.5t32 30.5t40 32q49 37 90.5 56.5t72.5 19.5q22 0 22 -19q0 -7 -2 -11.5t-15 -23.5q-11 -17 -13.5 -19.5t-5.5 -2.5q-7 0 -5 9l1 6q2 11 -8.5 21.5t-23.5 10.5q-38 0 -91 -62q-35 -42 -69.5 -89t-63.5 -94h63h34.5h20t12.5 0.5t12 0.5q28 0 28 -18
q0 -6 -4 -15t-10 -19l-100 -143q-3 -5 -8.5 -14t-12 -20t-13 -22.5t-11.5 -21.5q-8 -14 -10 -21t-2 -15q0 -23 21 -23q31 0 85 51q13 12 30.5 31.5t35.5 40t32.5 38.5t21.5 29q8 11 11 11t3 -2t-2 -4q0 -1 -6 -9q-15 -21 -33.5 -45t-38.5 -46.5t-39.5 -42.5t-35.5 -34
q-25 -22 -53 -35.5t-48 -13.5q-23 0 -36 13t-13 34q0 45 45 110l94 137q18 27 18 43q0 7 -6.5 9.5t-26.5 2.5h-67zM560 505q11 0 17.5 -6.5t6.5 -16.5q0 -17 -13.5 -30t-30.5 -13q-11 0 -19 6.5t-7 16.5q2 17 15.5 30t30.5 13z" />
    <glyph glyph-name="fl" unicode="fl" horiz-adv-x="449" 
d="M261 356q2 2 20 26q32 42 52 66.5t36 42t32.5 31t40.5 32.5q30 22 55 37.5t50 24.5t51 13t57 4q24 0 33 -3.5t9 -14.5q0 -5 -1 -9t-5.5 -13t-14.5 -25t-29 -46l-261 -382q-7 -11 -14.5 -24t-13.5 -25.5t-9.5 -23t-3.5 -15.5q0 -9 8 -16t19 -7t23.5 6t30.5 20
q13 11 21.5 18.5t21.5 21t34 37.5t59 68q9 11 12.5 13.5t5.5 2.5q3 0 3 -4q0 -3 -14 -20.5t-34 -40.5t-41.5 -46t-36.5 -37q-17 -16 -35 -29.5t-35.5 -23.5t-33 -15.5t-27.5 -5.5q-22 0 -34.5 12.5t-12.5 33.5q0 49 57 132l247 361l21 33q5 6 7.5 14t2.5 14q0 7 -5.5 12
t-13.5 5q-23 0 -49 -14t-57.5 -44.5t-70.5 -79t-87 -117.5h71l-5 -12h-75l-182 -294q-24 -39 -53 -76t-60 -69t-62 -58t-61 -42q-38 -22 -81 -35t-78 -13q-48 0 -74.5 15.5t-26.5 42.5q0 17 11.5 28.5t28.5 11.5q11 0 18.5 -6.5t7.5 -15.5q0 -5 -2 -7.5t-10 -9.5
q-2 -2 -2 -6q0 -17 17 -28.5t43 -11.5q67 0 145 73t177 228l172 273h-66l7 12h70z" />
    <glyph glyph-name="ff" unicode="ff" horiz-adv-x="409" 
d="M186 347q-11 0 -11 6q0 7 16 7h71q8 8 8 9l51 64q27 33 61.5 63.5t71.5 53.5t71.5 36.5t61.5 13.5q21 0 34 -6.5t13 -17.5q0 -8 -9.5 -16.5t-19.5 -8.5q-7 0 -9.5 3.5t-10.5 22.5q-3 6 -29 6q-22 0 -46 -14.5t-58 -49.5q-42 -41 -71 -80t-49 -79h127q4 4 7 7.5t8 10
t13 18t21 31.5q28 41 65 77.5t77.5 63.5t81 42.5t73.5 15.5q11 0 18.5 -6t7.5 -14q0 -5 -5.5 -14.5t-12.5 -19t-14 -16.5t-11 -7q-2 0 -2.5 3.5t-2.5 18.5q-3 31 -29 31q-25 0 -55 -22.5t-60 -62.5q-15 -21 -32 -45t-32 -46t-27 -40t-16 -26h49q18 0 18 -7q0 -5 -3.5 -5.5
t-21.5 -0.5h-51l-184 -298q-12 -18 -30 -42t-38 -48.5t-39.5 -46t-33.5 -33.5q-46 -39 -98.5 -62.5t-97.5 -23.5q-18 0 -38 6t-52 21q-27 -12 -48 -20t-40 -12.5t-37 -6.5t-39 -2q-51 0 -80 15.5t-29 41.5q0 17 12.5 28.5t31.5 11.5q23 0 23 -17q0 -11 -6 -21q-6 -9 -6 -13
q0 -6 7 -11.5t18 -10t24.5 -7t27.5 -2.5q19 0 35 3t32.5 10.5t34.5 20t42 32.5q10 8 17.5 15.5t15 15.5t16.5 19t21 26q12 16 19 25l10.5 13.5t4.5 6t1 2.5l231 364h-65zM151 70q-32 -47 -58.5 -82t-51.5 -62.5t-51 -49.5t-56 -42q16 -15 28 -21.5t26 -6.5q77 0 157 83
q10 10 23 25t25.5 31t23.5 30t16 22l218 350h-128z" />
    <glyph glyph-name=".notdef" horiz-adv-x="255" 
 />
    <glyph glyph-name=".null" horiz-adv-x="0" 
 />
    <glyph glyph-name="nonmarkingreturn" horiz-adv-x="255" 
 />
    <glyph glyph-name="space" unicode=" " horiz-adv-x="255" 
 />
    <glyph glyph-name="percent" unicode="%" horiz-adv-x="552" 
d="M240 167q-41 -32 -67.5 -53t-46.5 -38t-36.5 -33.5t-37.5 -38.5q-6 -7 -17 -7q-6 0 -10.5 2.5t-4.5 5.5q0 6 16.5 23.5t45 41.5t66.5 53t80 59q45 32 78.5 56t61 44.5t52.5 39.5t52.5 41t60.5 49l77 63q-27 -11 -44 -18t-29 -11t-20.5 -5t-17.5 -1q-10 0 -34 7
q-25 -26 -39 -40.5t-26 -24.5q-24 -20 -55 -32.5t-59 -12.5q-27 0 -43.5 16.5t-16.5 44.5q0 36 23 75t59 71.5t78.5 54t81.5 21.5q8 0 18 -2.5t16 -6.5q15 -10 15 -45q0 -26 -9 -42q-13 -24 -20 -39.5t-7 -19.5t6.5 -7.5t13.5 -3.5q45 0 113 42q12 7 24 15.5t26 19.5
t31 25.5t40 34.5q25 23 37 23q8 0 8 -6q0 -12 -31 -35q-13 -10 -42.5 -35t-74.5 -65q-49 -43 -101.5 -85.5t-110.5 -85.5zM450 462q-1 5 -1.5 9t-0.5 9q0 37 27 63l15.5 15.5t8 8.5t3 5.5t0.5 6.5q0 14 -8 22.5t-21 8.5q-26 0 -59 -23t-62 -57t-49 -71.5t-20 -67.5
q0 -14 9.5 -22t26.5 -8q37 0 89 48q28 27 42 53zM509 263q51 -3 51 -49q0 -38 -20.5 -77.5t-52 -72t-70.5 -53t-76 -20.5q-26 0 -42.5 17.5t-14.5 43.5q2 35 25 73t56.5 69t72 50.5t71.5 18.5zM518 251q-47 3 -122 -93q-31 -40 -44 -65.5t-13 -48.5q0 -14 10.5 -23.5
t24.5 -7.5q27 3 57 25t54.5 53t41 66.5t16.5 65.5q0 26 -25 28z" />
    <glyph glyph-name="ampersand" unicode="&#x26;" horiz-adv-x="589" 
d="M472 266l5 3l35 19q7 4 22.5 6.5t32.5 2.5h9t15 -1.5t32 -4.5t59 -8q3 -1 12 -1q42 0 42 42q0 9 -1 12v2q0 3 4 3q5 0 7.5 -7.5t2.5 -19.5q0 -16 -7.5 -30.5t-20 -25.5t-28.5 -17.5t-34 -6.5q-11 0 -25.5 1t-32.5 3q-2 0 -7 0.5t-10 1.5v-15q0 -20 -4 -37t-14 -34
t-26.5 -35.5t-40.5 -40.5l17 -79h-66l-7 41q-33 -14 -55.5 -23t-41 -13.5t-37.5 -6t-44 -1.5q-76 0 -117 33.5t-41 96.5t52 117t163 105q13 7 28 13.5t32 14.5q2 2 6.5 4t9.5 5q1 34 3 59t6.5 44t11 34.5t17.5 30.5q22 32 57.5 51t73.5 19q32 0 52.5 -16t20.5 -39
q0 -22 -13 -46.5t-36 -44.5q-9 -8 -15.5 -13t-18 -12t-31.5 -18t-57 -31q-8 -3 -11 -6zM400 365q-115 -58 -167 -112t-52 -117q0 -24 10 -44.5t28 -35.5t43 -23.5t55 -8.5q71 0 124 35zM459 417q30 13 55 31t42.5 38t27.5 41.5t10 41.5q0 16 -11.5 28t-26.5 12
q-13 0 -26.5 -6t-26 -16.5t-22 -24t-15.5 -29.5q-4 -11 -7 -35t-3 -45q0 -5 0.5 -14.5t2.5 -21.5zM496 105q23 23 33 45.5t10 50.5q0 23 -13 38t-33 15q-17 0 -17 -17v-8t1 -8z" />
    <glyph glyph-name="quoteright" unicode="&#x2019;" horiz-adv-x="143" 
d="M389 530q-8 -1 -13 -1.5t-9 -0.5q-27 0 -27 25q0 11 6.5 22.5t16.5 21t22 15.5t24 6q13 0 21.5 -9.5t8.5 -23.5q0 -20 -12.5 -43.5t-31 -44t-40.5 -34t-40 -13.5q-3 0 -3 3q0 4 7 7q25 11 40.5 27.5t29.5 42.5z" />
    <glyph glyph-name="parenleft" unicode="(" horiz-adv-x="185" 
d="M550 602q4 0 4 -4q0 -6 -12 -13q-94 -54 -183 -149t-175 -230q-125 -205 -125 -299q0 -20 -7 -20q-8 0 -13 20.5t-5 54.5q0 41 13.5 90t38 100.5t58.5 102.5t75 97q22 25 51 52.5t60.5 54t62.5 49.5t57 40q7 5 23 14t32.5 18t29.5 15.5t15 6.5z" />
    <glyph glyph-name="parenright" unicode=")" horiz-adv-x="233" 
d="M404 628q3 0 6.5 -8t6.5 -21t4.5 -29t1.5 -32q0 -78 -37 -168t-106 -178q-32 -41 -69.5 -81t-77.5 -75.5t-80 -65.5t-75 -49q-9 -5 -14.5 -8t-7.5 -5q-6 -5 -9 -6t-5 -1q-5 0 -5 3q0 4 11 11q37 24 81 65.5t88.5 92.5t87 108t75.5 114q27 46 50 92.5t39.5 87t25 72.5
t7.5 50q-2 20 -2 23v4q0 4 4 4z" />
    <glyph glyph-name="comma" unicode="," horiz-adv-x="144" 
d="M95 -1q-8 -1 -13.5 -1.5t-8.5 -0.5q-27 0 -27 25q0 11 6.5 22.5t16.5 21t22 15.5t24 6q13 0 21.5 -9.5t8.5 -23.5q0 -20 -12.5 -43.5t-31 -44t-40.5 -34t-40 -13.5q-3 0 -3 3q0 4 7 7q25 11 40.5 27t29.5 43z" />
    <glyph glyph-name="hyphen" unicode="-" horiz-adv-x="221" 
d="M303 240q2 0 3.5 -3t1.5 -6q0 -9 -6.5 -18t-18 -16t-25.5 -11t-29 -4h-6.5t-7.5 1t-13.5 2t-24.5 4q-5 1 -14 1q-6 0 -9 -1q-17 -6 -20 -6t-5.5 3t-2.5 6t5.5 11t11.5 14q9 11 24.5 17t32.5 6h9t10 -1q23 -2 36.5 -3t25.5 -1q14 0 19 4z" />
    <glyph glyph-name="period" unicode="." horiz-adv-x="168" 
d="M118 95q28 0 28 -25q0 -12 -6 -24.5t-16 -22.5t-22.5 -16.5t-24.5 -6.5q-11 0 -19 8t-8 18q0 12 6 24.5t16 22t22 16t24 6.5z" />
    <glyph glyph-name="slash" unicode="/" horiz-adv-x="469" 
d="M800 690q8 0 14 -3.5t6 -8.5q0 -6 -16 -24.5t-36 -37.5q-17 -16 -31 -28.5t-32.5 -28.5t-46 -38t-72.5 -57t-111.5 -87.5t-162.5 -127.5q-59 -46 -114 -99.5t-96 -104.5q-10 -14 -16.5 -22.5t-11 -13t-9 -6t-9.5 -1.5q-9 0 -15.5 5t-6.5 12q0 14 40 57q17 19 31 33.5
t34 32t50.5 42.5t81.5 64.5t126 97.5t185 142q10 6 34.5 27.5t51.5 48t51.5 51.5t33.5 37q18 24 26.5 31t20.5 7z" />
    <glyph glyph-name="zero" unicode="0" horiz-adv-x="498" 
d="M578 593q52 0 82.5 -34t30.5 -92q0 -40 -14 -87.5t-39 -95.5t-59 -93t-74 -81q-59 -54 -126 -85t-124 -31q-56 0 -88.5 37.5t-32.5 103.5q0 38 13.5 82.5t37 89.5t56 87.5t70.5 76.5q30 27 65 49.5t70 38.5t69 25t63 9zM575 579q-34 0 -75 -23t-82 -61.5t-79 -87.5
t-67.5 -102t-47.5 -105.5t-18 -96.5q0 -42 20 -64.5t55 -22.5q39 0 89.5 37t108.5 109q78 96 121.5 186t43.5 156q0 32 -20 53.5t-49 21.5z" />
    <glyph glyph-name="one" unicode="1" horiz-adv-x="283" 
d="M524 527q-28 -21 -56 -40.5t-59.5 -39.5t-68 -42t-82.5 -48q-19 -10 -30.5 -15.5t-13.5 -6.5q-11 -6 -17 -6t-6 6q0 4 9 8q22 10 43 21.5t46 25.5t56.5 33t74.5 46q51 34 99 69l75 64l6 3q1 0 1 0.5t1 0.5h1q3 0 3 -3q0 -6 -8 -17l-148 -207q-83 -116 -143 -208t-92 -154
q-4 -8 -8 -13t-7 -5q-27 0 -49 0.5t-25 2.5q-8 4 -8 9t5 10q5 6 18.5 30t34.5 62q2 7 14.5 25t31.5 42.5t43.5 53t51.5 57.5q48 53 86.5 96t63.5 73z" />
    <glyph glyph-name="two" unicode="2" horiz-adv-x="487" 
d="M264 179q-53 -17 -90 -45.5t-51 -64.5q46 11 72 11q6 0 11 -0.5t18 -4.5t38.5 -11.5t71.5 -22.5q20 -7 43 -7q36 0 64 31q19 20 22.5 23.5t6.5 3.5q5 0 5 -6q0 -8 -14.5 -25t-36.5 -34q-49 -37 -116 -37q-9 0 -15.5 0.5t-19.5 3.5t-37 9l-68 17q-15 4 -38 4q-22 0 -43 -8
t-30 -20q-5 -8 -9 -8q-8 0 -8 9q0 14 10 35.5t25 41.5q29 38 68 64.5t104 53.5l132 54q56 23 111 61t93 80q33 36 53 80t20 80q0 29 -18 48t-45 19q-38 0 -77.5 -19.5t-71.5 -50.5t-53 -68t-21 -73q0 -21 11.5 -33.5t31.5 -11.5q9 0 9 -3q0 -5 -15 -10t-31 -5q-28 0 -48 21
t-20 50q0 41 25 80t66 69.5t93.5 49t107.5 18.5q60 0 93 -26.5t33 -74.5q0 -41 -18.5 -82.5t-50.5 -72.5q-24 -23 -55 -45.5t-65.5 -42.5t-70 -36.5t-69.5 -26.5z" />
    <glyph glyph-name="three" unicode="3" horiz-adv-x="487" 
d="M374 316q-2 -1 -5 -1h-2q-12 0 -12 9q0 7 7 12q3 1 5 2t6 1.5t11.5 1t21.5 0.5q16 1 36.5 7t41.5 15t40.5 21t34.5 25q36 33 55.5 70t19.5 74q0 29 -20 46.5t-54 17.5q-31 0 -63.5 -14.5t-59.5 -37t-44 -50.5t-17 -54q0 -11 7.5 -21t16.5 -12q7 -2 7 -6q0 -5 -12.5 -10
t-27.5 -5q-20 0 -35 16t-15 38q0 24 16 52t42 52q35 30 88 48t107 18q57 0 94 -26t37 -67q0 -40 -22 -77t-63 -66q-18 -12 -36 -21.5t-40.5 -17.5t-51.5 -15.5t-67 -14.5q64 -21 89.5 -46t25.5 -66q0 -44 -24.5 -84t-66.5 -70t-97.5 -48t-116.5 -18q-67 0 -109.5 25
t-42.5 64q0 25 17.5 44t40.5 19q16 0 26 -8.5t10 -22.5q0 -8 -2 -11.5t-16 -15.5q-12 -10 -12 -19q0 -12 6.5 -22.5t17.5 -19t25.5 -13.5t29.5 -5q41 0 83.5 20.5t77 53.5t56.5 73.5t22 79.5q0 33 -23.5 56.5t-56.5 23.5h-7z" />
    <glyph glyph-name="four" unicode="4" horiz-adv-x="493" 
d="M470 210q10 -5 26 -5q29 0 53 12.5t53 44.5q3 3 5 3q4 0 4 -4q-1 -8 -21.5 -26.5t-46.5 -33.5q-27 -16 -47.5 -22t-53.5 -9q-5 -9 -9.5 -16t-6.5 -10q-32 -48 -51 -80t-25 -45q-5 -13 -10.5 -16.5t-18.5 -3.5h-17q-12 1 -20.5 1h-23.5q-2 32 56 112l20 27l13 18
q2 2 4.5 7.5t6.5 13.5q-27 9 -47 15t-36 9.5t-29.5 5t-27.5 1.5q-24 0 -47.5 -5.5t-37.5 -13.5q-10 -6 -13 -7.5t-6 -1.5q-8 0 -8 5q0 7 11 15l605 435l7 6q3 0 3 -5q0 -2 -4 -8zM215 239q26 7 39 9t28 2q12 0 22.5 -1t23 -4t29 -8t40.5 -12l285 360l-480 -348z" />
    <glyph glyph-name="five" unicode="5" horiz-adv-x="428" 
d="M258 379q37 19 62.5 26t57.5 7q82 0 114 -41q26 -32 26 -75q0 -59 -28.5 -113.5t-75 -97.5t-106.5 -68.5t-124 -25.5q-28 0 -52 7t-41.5 19t-27.5 28.5t-10 35.5q0 23 16.5 39.5t39.5 16.5q16 0 27.5 -9.5t11.5 -23.5q0 -6 -2.5 -9t-16.5 -16q-10 -10 -10 -24
q0 -20 18.5 -34.5t42.5 -14.5q47 0 94 26.5t84.5 69t61 95.5t23.5 106q0 38 -22.5 61.5t-58.5 23.5q-32 0 -63 -11.5t-52 -31.5q-26 -24 -32 -24q-7 0 -10 7q28 44 60.5 94t61 93.5t49.5 74t26 35.5q4 3 8 3t10.5 -3t21.5 -13q10 -6 27 -12t36.5 -10.5t40 -7.5t37.5 -3
q19 0 41 5.5t32 13.5q13 9 17.5 12.5t6.5 3.5q6 0 6 -8q0 -11 -16 -27t-45 -34q-20 -13 -43.5 -18.5t-55.5 -5.5t-64.5 8t-85.5 30z" />
    <glyph glyph-name="six" unicode="6" horiz-adv-x="472" 
d="M454 384q22 0 42 -8.5t34 -23t22.5 -34t8.5 -42.5q0 -53 -25.5 -104t-67 -90.5t-95 -63.5t-110.5 -24q-63 0 -98 35t-35 97q0 43 16.5 90.5t46.5 95t72.5 93t94.5 84.5q56 42 116.5 75.5t110.5 50.5q31 10 47.5 15.5t24.5 8t9.5 3t2.5 0.5q4 0 4 -4q0 -2 -5 -4
q-20 -6 -49 -20t-61 -32t-62.5 -38t-51.5 -38q-50 -42 -100 -102t-88 -123q-32 -51 -46.5 -94t-14.5 -82q0 -43 21.5 -67.5t59.5 -24.5q42 0 86 33.5t80 93.5q23 38 37 79t14 72q0 30 -16.5 51.5t-40.5 21.5q-16 0 -35 -6.5t-37 -17t-33 -24t-24 -27.5q-3 -5 -5 -5
q-5 0 -5 5q0 2 3 7l6 10q10 15 27 29t37.5 25t42 17.5t39.5 6.5z" />
    <glyph glyph-name="seven" unicode="7" horiz-adv-x="432" 
d="M656 531q-18 -5 -30.5 -7t-25.5 -2q-14 0 -49 3.5t-77 8.5q-14 2 -25 3t-19 1q-20 0 -42.5 -7t-42.5 -19q-14 -9 -25 -21.5t-30 -40.5q-4 -6 -9 -6q-7 0 -7 6q0 2 3 7l107 147q11 15 16 15t5 -4q0 -2 -1.5 -5t-12.5 -17l-34 -47q38 26 72.5 40.5t60.5 14.5q7 0 13.5 -0.5
t22.5 -3.5t46 -10t86 -19q5 -1 10 -1.5t10 -0.5q25 0 65 31q2 2 4 2t2 -2q0 -1 -4 -7l-224 -231q-51 -54 -87.5 -93t-62.5 -68t-44 -51t-32.5 -43t-28 -43.5t-30.5 -52.5q-6 -11 -11.5 -14t-21.5 -3q-25 0 -39 3t-14 8q0 7 4 18.5t11 25.5t16 29t19 29q12 16 21.5 28t20 24
t24.5 25.5t35 33t51.5 46.5t74.5 66z" />
    <glyph glyph-name="eight" unicode="8" horiz-adv-x="472" 
d="M471 354l3 -8q11 -25 21.5 -49.5t21.5 -50.5q8 -18 8 -47q0 -42 -21 -79.5t-57 -65.5t-84 -44t-103 -16q-72 0 -113.5 32t-41.5 87q0 38 22.5 76.5t62.5 67.5q20 14 37.5 23.5t37.5 17.5q10 4 26 9.5t31.5 10.5t28 8.5t17.5 4.5q27 4 27 13l-26 81q-4 12 -4 30
q0 37 16 69.5t43 57t63 38.5t77 14q53 0 84.5 -25.5t31.5 -69.5q0 -47 -36 -88q-12 -13 -20.5 -20.5t-24 -16.5t-43 -21t-76.5 -34l-5 -2zM401 328q-6 -1 -24 -8t-38.5 -16t-39.5 -19t-29 -16q-48 -30 -74.5 -71.5t-26.5 -86.5q0 -44 30 -72t75 -28q35 0 67.5 14t57 37
t39.5 54t15 64q0 15 -4 34t-11 39t-16.5 39.5t-20.5 35.5zM464 370q22 6 52 25t61 47q54 48 54 110q0 30 -19 49t-49 19q-26 0 -49.5 -12t-41.5 -31.5t-28.5 -46t-10.5 -54.5q0 -24 9 -55t22 -51z" />
    <glyph glyph-name="nine" unicode="9" horiz-adv-x="464" 
d="M190 -1q4 7 12 12t31 15q16 7 41 23.5t53 39.5t57 50t55 56q40 43 73.5 89.5t57 91.5t36.5 86.5t13 74.5q0 39 -18 62t-47 23q-44 0 -88.5 -32t-86.5 -93q-66 -96 -66 -164q0 -32 21.5 -53.5t52.5 -21.5q26 0 54.5 15.5t50.5 41.5q7 0 7 -4q0 -16 -44 -45
q-39 -26 -84 -26q-54 0 -85.5 31.5t-31.5 85.5q0 38 16 79t46 79q48 60 111 92t134 32q60 0 94 -31.5t34 -88.5q0 -35 -12.5 -75.5t-35 -83.5t-55 -85.5t-72.5 -82.5q-21 -21 -40.5 -37t-43.5 -33t-56 -36.5t-79 -46.5q-67 -39 -102 -45z" />
    <glyph glyph-name="colon" unicode=":" horiz-adv-x="189" 
d="M118 96q13 0 20.5 -7.5t7.5 -19.5q0 -13 -6 -25.5t-16 -22t-22.5 -15.5t-25.5 -6q-11 0 -18.5 7.5t-7.5 17.5q0 12 6.5 25t16 23t21.5 16.5t24 6.5zM267 313q13 0 21 -7t8 -18q0 -13 -6.5 -26t-16.5 -23.5t-22.5 -17t-24.5 -6.5q-11 0 -20 8t-9 19q0 12 6.5 25t16.5 23
t22.5 16.5t24.5 6.5z" />
    <glyph glyph-name="semicolon" unicode=";" horiz-adv-x="165" 
d="M263 319q11 0 19.5 -8.5t8.5 -19.5q0 -12 -6 -24.5t-15.5 -22.5t-21.5 -16.5t-23 -6.5q-14 0 -23 9t-8 21t8 24t16.5 22t21.5 16t23 6zM91 1q-8 -1 -12.5 -1.5t-9.5 -0.5q-27 0 -27 25q0 11 6.5 22.5t16.5 21t22 15.5t24 6q13 0 21.5 -9.5t8.5 -23.5q0 -15 -8.5 -34
t-22.5 -37.5t-31 -34t-35 -23.5q-5 -2 -13.5 -4t-13.5 -2q-3 0 -3 3q0 4 7 7q25 11 40.5 27t29.5 43z" />
    <glyph glyph-name="question" unicode="?" horiz-adv-x="434" 
d="M203 104q14 0 23 -7.5t9 -19.5q0 -14 -6 -28t-15.5 -25t-21.5 -17.5t-25 -6.5t-22 10.5t-8 24.5q1 13 7.5 25.5t15.5 22t20.5 15.5t22.5 6zM518 609q-33 0 -66.5 -16.5t-60.5 -42.5t-44.5 -58.5t-17.5 -63.5q0 -13 4.5 -18t22.5 -13q7 -2 7 -8q-1 -8 -12.5 -14.5
t-25.5 -6.5q-21 0 -36.5 16t-15.5 39q0 37 22.5 73.5t59 65t82.5 46t93 17.5q67 0 104.5 -28t37.5 -78q0 -45 -28 -87.5t-81 -77.5q-14 -9 -23.5 -15.5t-27.5 -14.5t-50 -21.5t-90 -37.5q-16 -6 -32 -16t-30.5 -21.5t-25.5 -23.5t-17 -24q-9 -19 -12 -23t-8 -4q-8 0 -8 8
q0 9 10 26.5t26 35.5q12 13 21.5 22t28.5 22t53.5 33.5t97.5 57.5q7 4 18.5 13t23 19t22.5 20.5t19 18.5q20 23 31.5 51.5t11.5 53.5q0 35 -22.5 55t-61.5 20z" />
    <glyph glyph-name="A" unicode="A" 
d="M637 315q-5 0 -9.5 2t-4.5 4q0 10 28 10h58l183 184q93 94 166 139.5t132 45.5q24 0 39 -12.5t15 -32.5t-15 -49t-53 -81l-244 -338q-28 -39 -47.5 -68t-32.5 -50.5t-21 -38t-12 -30.5h-72q-10 0 -10 6q0 4 4 9q5 5 14 28q3 7 6 12.5t8 12.5t13 18.5t22 30.5
q19 26 37.5 52.5t38.5 52.5l70 93h-221l-169 -182q-11 -11 -29 -27t-38.5 -32.5t-41 -32.5t-36.5 -26q-35 -23 -76.5 -36t-77.5 -13q-37 0 -67.5 12.5t-52.5 34.5t-34 53t-12 68q0 64 31 128t80.5 115t111.5 83t124 32q50 0 82 -31.5t32 -80.5q0 -22 -7 -46t-17.5 -44.5
t-23.5 -33.5t-25 -13q-4 0 -4 5q0 1 3 3q18 15 28.5 42.5t10.5 58.5q0 28 -15.5 53.5t-41.5 38.5q-24 12 -58 12q-51 0 -97.5 -23t-82.5 -61.5t-57.5 -89t-21.5 -104.5q0 -31 10.5 -57t29.5 -45t45.5 -29.5t57.5 -10.5q18 0 33.5 2.5t32 8t34.5 15t41 24.5q45 29 88.5 63
t74.5 65l101 101h-58zM961 331l103 141l79 112q30 41 30 65q0 10 -9.5 16t-23.5 6q-18 0 -45 -12.5t-58.5 -34t-65.5 -52t-67 -66.5l-163 -175h220z" />
    <glyph glyph-name="B" unicode="B" horiz-adv-x="864" 
d="M587 225q-17 -25 -37 -50t-42 -47.5t-43.5 -41t-40.5 -31.5q-25 -16 -56.5 -29.5t-66 -23t-70.5 -14.5t-70 -5q-66 0 -105.5 22.5t-39.5 60.5q0 21 13.5 35t34.5 14q14 0 23.5 -8t9.5 -20q0 -5 -2 -8.5t-14 -18.5q-4 -4 -4 -10q0 -22 29 -38t69 -16q53 0 104.5 20
t86.5 55q6 6 16.5 17.5t21.5 24.5t20 24t13 17l172 242q49 68 102 114t116 72q22 10 44.5 16.5t33.5 6.5q8 0 8 -4t-9 -7q-45 -17 -91 -59t-88 -107zM728 354q9 -1 15.5 -1.5t9.5 -0.5q34 0 72.5 9.5t64.5 24.5q48 27 76 73t28 96q0 68 -64 107t-175 39q-78 0 -156.5 -21.5
t-145.5 -61.5q-41 -24 -74.5 -54t-57 -63t-36.5 -67t-13 -67q0 -36 27 -59t69 -23q38 0 71 12.5t67 40.5q5 5 8 5q4 0 4 -4q0 -3 -9 -11.5t-25 -19.5q-35 -26 -77.5 -40t-84.5 -14q-51 0 -84 30t-33 77q0 68 48 132t127.5 114t181.5 80t210 30q64 0 117 -13.5t91 -37.5
t59 -57.5t21 -73.5q0 -60 -43 -105t-122 -69q-12 -3 -21.5 -5.5t-20.5 -4.5t-27.5 -4t-41.5 -5q74 -25 112 -65t38 -91q0 -43 -19.5 -80.5t-54 -65t-81 -43.5t-99.5 -16q-51 0 -93.5 16t-65.5 43q-12 15 -12 23q0 3 3 6t6 3q4 0 8 -6q17 -31 47.5 -48t72.5 -17t81 17.5
t69 46.5t48.5 66t18.5 77q0 42 -19.5 74t-51.5 43q-5 2 -15.5 4.5t-21.5 4.5t-21 3.5t-14 1.5q-11 0 -11 7q0 8 12 8h7z" />
    <glyph glyph-name="C" unicode="C" horiz-adv-x="667" 
d="M762 732q55 -3 85.5 -33.5t30.5 -82.5q0 -98 -90 -189q-87 -92 -185 -92q-37 0 -59.5 19.5t-22.5 51.5q0 39 27 74.5t72 53.5q14 6 28.5 9.5t25.5 3.5q9 0 9 -6q0 -7 -16 -8q-14 -2 -28.5 -6t-22.5 -9q-25 -13 -40.5 -38.5t-15.5 -51.5q0 -28 22.5 -46t56.5 -18
q39 0 75.5 19.5t65 52t46 73.5t17.5 84q0 48 -34.5 74t-96.5 26q-52 0 -105 -21t-102.5 -57t-92.5 -85t-75.5 -104.5t-51 -115.5t-18.5 -118q0 -34 11.5 -62t32.5 -48t50.5 -31t65.5 -11q41 0 83 10.5t82 30t76.5 47t66.5 62.5q20 23 35.5 46t23.5 41q3 6 9 6q5 0 5 -6
q0 -4 -7 -17t-18 -29t-24 -33.5t-24 -30.5q-38 -43 -81.5 -77t-88.5 -58t-90.5 -37t-88.5 -13q-46 0 -83.5 14.5t-63.5 41t-39 63.5t-10 82q6 108 68 213t171 190q42 33 88 60.5t91 47t85 29.5t69 9z" />
    <glyph glyph-name="D" unicode="D" horiz-adv-x="880" 
d="M576 223q-24 -32 -40.5 -53t-34.5 -38.5t-41 -36.5t-59 -46q47 -16 77.5 -25.5t51.5 -14.5t36.5 -6.5t33.5 -1.5q127 0 230 112q63 68 98.5 156.5t35.5 178.5q0 113 -68.5 174.5t-195.5 61.5q-166 0 -299 -102q-65 -50 -99 -105t-34 -109q0 -42 26.5 -67.5t68.5 -25.5
q28 0 63.5 17t69.5 47l4 2q4 0 4 -5q0 -3 -7.5 -11.5t-20.5 -19.5q-37 -31 -79 -47.5t-84 -16.5q-24 0 -44.5 8t-35.5 21.5t-24 32t-9 39.5q0 73 50.5 143.5t141.5 124.5q74 44 155 67t159 23q75 0 136 -20t103.5 -57.5t66 -90t23.5 -116.5q0 -54 -15.5 -107.5t-44 -101.5
t-69 -88.5t-90.5 -70.5q-27 -16 -59 -29t-66 -22t-69 -14t-68 -5q-45 0 -92 10t-113 33q-62 -22 -106 -30.5t-88 -8.5q-63 0 -99.5 15.5t-36.5 41.5q0 9 6 18t15 14q20 12 51 19.5t60 7.5q26 0 70 -7.5t121 -25.5q32 26 50.5 46t38.5 50l143 213q14 21 33 44t39.5 44.5
t41.5 40t40 31.5q34 23 71.5 38.5t63.5 15.5q8 0 8 -7q0 -5 -10 -6q-35 -5 -69 -35.5t-80 -99.5zM301 34q-46 22 -90.5 34t-79.5 12q-30 0 -50 -11.5t-20 -28.5q0 -20 25 -32t65 -12q99 0 150 38z" />
    <glyph glyph-name="E" unicode="E" horiz-adv-x="638" 
d="M527 451q6 1 13 1h14q45 0 71.5 -9t26.5 -26q0 -14 -19.5 -21t-54.5 -7q-36 0 -68 9t-66 29q-45 -14 -74 -29t-58 -38q-23 -19 -41.5 -42.5t-32 -48.5t-21 -50.5t-7.5 -49.5q0 -30 14 -55.5t39.5 -44t60 -29t76.5 -10.5q146 0 267 98q14 11 29 25t29 28.5t26 28.5t20 25
q4 7 9 7q4 0 4 -4t-10.5 -18.5t-26.5 -33.5t-34.5 -38.5t-34.5 -33.5q-70 -63 -154 -98t-165 -35q-52 0 -99 16t-81 45q-56 49 -56 119q0 33 12 65.5t33.5 62t53 55t70.5 44.5q34 17 67 28t81 22q-24 36 -24 61v1q0 2 1 3q-54 11 -100 31q-34 16 -52.5 39.5t-18.5 51.5
q0 19 10.5 35.5t29 28.5t44.5 19t57 7q17 0 33.5 -2t30 -5t21.5 -6.5t8 -7.5q0 -6 -7 -6q-2 0 -8 2q-39 13 -72 13q-21 0 -39.5 -6.5t-32.5 -18t-22 -26.5t-8 -32q0 -73 127 -106q8 29 17.5 48.5t24.5 35.5q49 52 126 80.5t170 28.5q59 0 90.5 -15t31.5 -43
q0 -29 -30.5 -56.5t-80 -49t-113 -34.5t-130.5 -13q-10 0 -19 0.5t-25 1.5q-3 -12 -3 -20t2 -14t8 -16h9zM482 508q20 -2 30 -2h22q95 0 193 40q51 20 78.5 46.5t27.5 55.5q0 23 -21 35.5t-58 12.5q-47 0 -94 -16.5t-85 -43t-63.5 -60t-29.5 -68.5zM491 437q17 -20 34 -28
t42 -8q14 0 23.5 4t9.5 11q0 11 -17 16.5t-48 5.5h-15t-29 -1z" />
    <glyph glyph-name="F" unicode="F" horiz-adv-x="575" 
d="M554 337l6 12h50l29 43q22 33 44.5 59t47 47t52.5 38.5t61 33.5q41 19 55 19q5 0 5 -3q0 -5 -13 -9q-18 -6 -34.5 -17t-35 -32t-42 -54.5t-55.5 -83.5l-25 -41h83l-4 -12h-87l-76 -116q-38 -58 -72.5 -94.5t-78.5 -66.5q-57 -38 -126 -58t-144 -20q-78 0 -126.5 23
t-48.5 59q0 21 13.5 34.5t33.5 13.5q15 0 25.5 -8t10.5 -19q0 -4 -2.5 -8t-10.5 -12q-6 -8 -6 -12q0 -12 9.5 -23t25.5 -19.5t37 -13.5t45 -5q53 0 103 18t90 50q6 5 19 19.5t27 31t27.5 32.5t19.5 25l106 161l5 8h-43zM715 662q-56 10 -99 10q-74 0 -141 -25.5t-118 -69
t-81.5 -100.5t-30.5 -120q0 -57 32.5 -88.5t89.5 -31.5q34 0 72 17.5t64 44.5q6 6 10 6q6 0 6 -4q0 -5 -14.5 -18t-40.5 -31q-48 -33 -85 -47.5t-75 -14.5q-53 0 -85.5 36t-32.5 94q0 35 13.5 73.5t37.5 76.5t57.5 73t73.5 62q67 47 145.5 70t167.5 23q30 0 58.5 -2t48.5 -6
l114 -23q32 -6 64 -9.5t58 -3.5t49.5 5.5t40.5 15.5q4 2 5 2q3 0 3 -3q0 -5 -19 -14q-30 -13 -72 -20t-91 -7q-30 0 -58.5 1.5t-40.5 3.5z" />
    <glyph glyph-name="G" unicode="G" horiz-adv-x="552" 
d="M479 75q-30 -24 -57 -41t-52 -27.5t-50.5 -15.5t-52.5 -5q-67 0 -106 38.5t-39 104.5q0 61 24 120t76 127l18 24l-14 8t-16 9q-34 20 -51 33t-29 28q-31 38 -31 81q0 29 13.5 53t38 41.5t58 27.5t73.5 10q18 0 37 -3t38 -8t35.5 -12t28.5 -15q8 -6 8 -10q0 -3 -2 -3
t-4.5 1t-18.5 9q-19 10 -43.5 15.5t-46.5 5.5q-35 0 -64.5 -10t-52 -27t-35 -40.5t-12.5 -50.5q0 -40 23.5 -69.5t77.5 -58.5q42 39 75.5 67.5t64 51t60.5 40.5t65 36q87 45 162 67t135 22q56 0 90 -22.5t34 -58.5q0 -45 -36 -89t-102 -82q-75 -43 -169 -65.5t-197 -22.5
q-19 0 -34 1t-29 3t-29.5 5.5t-34.5 8.5l-28 -43q-72 -113 -72 -209q0 -48 28.5 -76t76.5 -28q38 0 70.5 12.5t73.5 41.5q20 15 41.5 33t41 37t36 38t28.5 35l55 79h11l47 1q4 0 8 1t8.5 1.5t9.5 2.5l-218 -326q-52 -77 -100.5 -127t-99.5 -79q-48 -26 -104.5 -42
t-104.5 -16q-35 0 -64 6t-50 17.5t-32.5 27t-11.5 33.5q0 22 14.5 37.5t34.5 15.5q14 0 23.5 -9t9.5 -22q0 -6 -1.5 -8.5t-12.5 -13.5q-5 -5 -5 -13q0 -12 8 -22t21 -18t30.5 -12.5t37.5 -4.5q83 0 164.5 64t173.5 204l86 129zM314 391q18 -6 33.5 -10.5t29.5 -7t29 -3.5
t33 -1q42 0 84 5t81.5 14.5t75.5 22.5t65 30q63 35 99.5 80.5t36.5 87.5q0 33 -29 51t-82 18t-113 -21t-120 -59t-117.5 -90.5t-105.5 -116.5z" />
    <glyph glyph-name="H" unicode="H" horiz-adv-x="801" 
d="M511 325q-11 0 -11 6q0 7 13 7h51l70 96q21 27 41.5 50t44.5 44.5t52.5 42.5t64.5 44l12 9l-61 16q-18 4 -44 8.5t-53.5 8t-55 5.5t-48.5 2q-24 0 -49.5 -3.5t-51 -9.5t-48 -14.5t-40.5 -18.5q-29 -17 -53 -40.5t-41 -51t-26.5 -58t-9.5 -60.5q0 -35 23 -55t63 -20
q48 0 81 30q6 6 14 14.5t23 24.5q1 3 4 3t3 -4q0 -5 -11 -19.5t-24 -27.5q-28 -26 -65.5 -42t-72.5 -16q-39 0 -65 25.5t-26 64.5q0 30 13 62.5t36 64.5t55.5 62t71.5 54q60 36 124.5 55t130.5 19q18 0 34.5 -1.5t33 -4.5t34.5 -8t40 -12l96 -33q34 14 59 23.5t45 15t36.5 8
t32.5 2.5q19 0 31.5 -7t12.5 -18t-12.5 -21t-33 -18t-47 -12.5t-54.5 -4.5q-14 0 -30 2t-42 7q-91 -71 -176 -215l-40 -68h229q50 68 85 113t63 76.5t53 54.5t56 46t63.5 42t63.5 32.5t59 20.5t51 7t41.5 -7t18.5 -15q0 -4 -3 -7.5t-7 -3.5t-11 6q-11 10 -19.5 13t-19.5 3
q-35 0 -74.5 -17t-81.5 -50q-13 -11 -32.5 -30t-39.5 -41t-38.5 -43.5t-28.5 -36.5l-331 -481q-10 -14 -15.5 -17.5t-16.5 -3.5h-5t-23 1h-31l213 325h-229q-25 -41 -45.5 -72t-39 -55.5t-37 -44.5t-38.5 -39q-34 -31 -73.5 -55.5t-82 -41.5t-86.5 -26t-86 -9q-57 0 -94 23
t-37 58q0 22 15.5 38t35.5 16q17 0 27 -9.5t10 -26.5q0 -8 -2.5 -10t-16.5 -7q-10 -5 -10 -20q0 -21 21.5 -35.5t53.5 -14.5h4q31 0 64 10t64.5 27t60 41t50.5 53q49 64 75.5 99.5t39.5 54.5t17 27t8 19h-43zM910 638q24 -7 37 -9t26 -2q17 0 33.5 3t29 8t20.5 11.5t8 12.5
q0 14 -31 14q-27 0 -55 -9t-68 -29z" />
    <glyph glyph-name="I" unicode="I" horiz-adv-x="549" 
d="M742 490q32 40 58.5 68t53.5 50t57.5 40.5t71.5 38.5q-14 1 -24.5 1.5t-18.5 0.5q-19 0 -48 -3t-61 -8t-62.5 -11.5t-52.5 -12.5q-49 -14 -103 -43.5t-97 -66.5q-45 -38 -68 -77.5t-23 -76.5q0 -30 21.5 -51t53.5 -21q42 0 88 28l4 2q3 0 3 -3t-18 -15q-26 -19 -60 -30
t-66 -11q-43 0 -71 26t-28 67q0 35 17 70t48 68t75 62t99 52q26 11 50 19t49.5 14.5t55.5 11.5t68 10q42 5 76.5 8t52.5 3q16 0 32.5 -1t30 -3t22 -4.5t8.5 -5.5q0 -4 -7 -5q-40 -2 -78 -32.5t-85 -97.5l-170 -266q-50 -78 -119.5 -143t-145.5 -105q-54 -29 -106 -42.5
t-108 -13.5q-74 0 -119 24t-45 63q0 20 14 36t33 16q14 0 25 -9.5t11 -21.5q0 -9 -11 -20q-8 -8 -8 -15q0 -11 9.5 -22t24.5 -19.5t34.5 -13.5t39.5 -5q49 0 99 20t93 57q16 14 33.5 31.5t34.5 36t32.5 36.5t26.5 34z" />
    <glyph glyph-name="J" unicode="J" horiz-adv-x="479" 
d="M577 386q47 64 89 113t82 85.5t80 62t84 42.5q-20 1 -30.5 1h-23.5q-92 0 -179.5 -22t-165.5 -64q-46 -25 -83.5 -55t-63.5 -62t-40.5 -64.5t-14.5 -62.5q0 -31 21.5 -51t55.5 -20q21 0 45 9t45 26q3 3 6 3t3 -3q0 -7 -15 -17q-31 -23 -67.5 -36.5t-68.5 -13.5
q-20 0 -38 7t-31.5 19.5t-21 29.5t-7.5 36q0 38 19 77.5t54 76t83.5 69t108.5 57.5q39 16 84 29.5t93 22.5t97 14t95 5q21 0 41 -1.5t36.5 -3.5t26.5 -5t10 -6q0 -5 -5 -5h-7t-9 1q-6 1 -14 1.5t-13 0.5q-26 0 -72 -37q-15 -12 -35.5 -35.5t-45 -55t-52 -71t-55.5 -83.5
l-114 -180q-118 -186 -259 -283t-293 -97q-36 0 -66.5 6.5t-52 18t-34 27.5t-12.5 35q0 20 13.5 35t32.5 15q14 0 25 -9t11 -20q0 -5 -2 -7.5t-13 -14.5q-3 -3 -3 -10q0 -16 16.5 -31.5t39.5 -22.5q27 -9 62 -9q94 0 196 84q24 20 46 42t47 51t54.5 69t69.5 96z" />
    <glyph glyph-name="K" unicode="K" horiz-adv-x="919" 
d="M666 457q29 45 75 90t100 83q-119 26 -225 26q-62 0 -117.5 -18.5t-97.5 -50t-66.5 -73.5t-24.5 -89q0 -39 23 -63.5t60 -24.5q18 0 38.5 6t40 17t37 26t31.5 33q6 6 9 6q4 0 4 -3q0 -6 -9.5 -20t-23.5 -28q-77 -79 -154 -79q-20 0 -38 7t-31 20t-20.5 29.5t-7.5 36.5
q0 25 8 53t23 55.5t36.5 54t47.5 49.5q54 46 122 71.5t139 25.5q16 0 29.5 -1t29.5 -4.5t36.5 -9t50.5 -14.5q8 -2 27 -7.5t43 -12.5l19.5 6.5t11.5 4.5q11 5 23 10.5t24 10.5q32 13 65 13q20 0 32 -7t12 -18q0 -20 -38 -32q-11 -3 -19 -5t-19 -3t-29 -1h-48q-2 0 -7.5 -0.5
t-14.5 -1.5q-18 -18 -29 -29.5t-20.5 -24t-20.5 -29.5t-29 -46l-162 -262q-36 -57 -83 -103.5t-100.5 -79t-112 -50t-117.5 -17.5q-67 0 -108 22.5t-41 60.5q0 22 15 38t35 16q15 0 26 -10t11 -24q0 -8 -2.5 -12t-11.5 -10q-13 -9 -13 -20q0 -20 27 -34t67 -14q47 0 94 20.5
t89 58.5q12 10 27.5 26.5t31 34.5t29.5 36t23 32zM819 350q2 -3 4 -5l3 -3q10 -12 16 -20t9.5 -15.5t4.5 -15.5t1 -18q0 -15 -2 -28t-8 -29.5t-17 -38.5t-28 -55q-21 -42 -21 -65q0 -16 8.5 -25.5t22.5 -9.5q24 0 58.5 21t75.5 60q8 8 80 89q3 4 5 4q5 0 5 -4q0 -2 -8.5 -13
t-22 -26.5t-30.5 -33.5t-33 -34q-54 -54 -96 -78.5t-80 -24.5q-29 0 -48 18t-19 45q0 37 27 90q3 6 5.5 10.5t9 14.5t18.5 28.5t35 51.5q11 16 17 34.5t6 32.5q0 15 -2.5 22.5t-10.5 12.5q-23 -5 -35.5 -7.5t-22.5 -2.5q-15 0 -24.5 5t-9.5 13q0 20 46 20q18 0 50 -14
q6 1 20 10t32 23.5t39 33t42 38.5l128 130q51 53 95 81t75 28q20 0 32 -8.5t12 -22.5q0 -17 -12 -17q-5 0 -12 3q-15 5 -25 5q-15 0 -35.5 -6.5t-42.5 -17.5t-42.5 -25t-36.5 -30l-129 -129q-14 -14 -28.5 -27t-26.5 -23.5t-20 -17t-10 -6.5l-37 -24zM794 351q-10 5 -16 7
t-14 2q-11 0 -18.5 -3t-7.5 -8q0 -3 4.5 -5t10.5 -2q13 0 22 2t19 7zM894 642q16 -2 28.5 -3t22.5 -1q26 0 47.5 8.5t21.5 19.5q0 5 -7.5 9.5t-17.5 4.5q-21 0 -42.5 -8.5t-52.5 -29.5z" />
    <glyph glyph-name="L" unicode="L" horiz-adv-x="760" 
d="M475 292q-93 0 -147.5 39.5t-54.5 105.5q0 43 23.5 83.5t62 71.5t88.5 49.5t103 18.5q27 0 44 -6t17 -17q0 -6 -8 -6q-4 0 -13 5q-22 11 -54 11q-40 0 -76.5 -16.5t-64.5 -44t-45 -63.5t-17 -75q0 -78 77 -115q24 -12 48.5 -16.5t63.5 -5.5l109 161q19 29 45.5 58
t56.5 55t62 48t62 36q67 31 119 31t52 -46q0 -44 -39 -100t-106 -109q-27 -21 -54 -38t-58.5 -33.5t-69 -32t-85.5 -33.5l-57 -79q-23 -31 -38.5 -51t-30 -36.5t-30.5 -31.5t-40 -35q7 -4 11 -6t24 -9q6 -2 10.5 -4t12 -5t21 -8.5t38.5 -15.5q34 -14 58.5 -19.5t49.5 -5.5
q61 0 115 74q50 68 50 132q0 26 -13 48q-1 2 -1 4q0 3 4 3q5 0 11 -8t11 -20t8.5 -26t3.5 -25q0 -44 -18 -81t-50 -64t-75 -42t-94 -15q-25 0 -48 2.5t-49 9t-57.5 17.5t-72.5 27q-35 -15 -61.5 -24t-49 -14.5t-44 -7.5t-47.5 -2q-24 0 -45.5 4.5t-37.5 12t-25.5 17.5
t-9.5 22q0 29 46.5 47t121.5 18q18 0 33.5 -1t31.5 -3t35 -6t44 -10q53 42 125 163l23 38h-35zM325 56q-10 7 -29 14t-40.5 13t-43 9.5t-36.5 3.5q-35 0 -59.5 -16.5t-24.5 -40.5q0 -17 20 -28.5t51 -11.5q20 0 43 4.5t44.5 12t41 18t33.5 22.5zM629 328q39 13 70 26t59 29
t54 36t55 46q29 27 53 54.5t41 53t26.5 48.5t9.5 40q0 13 -9 20.5t-24 7.5q-20 0 -38 -6t-37.5 -19.5t-41.5 -35.5t-49 -55q-23 -28 -47 -59.5t-46 -63.5t-41.5 -63.5t-34.5 -58.5z" />
    <glyph glyph-name="M" unicode="M" horiz-adv-x="1172" 
d="M935 375q-12 -42 -23.5 -76t-24 -63.5t-27 -56t-31.5 -52.5q21 21 35 34t23 22.5t15.5 16.5t12.5 15l129 165q11 15 33.5 39.5t49 51t52.5 51.5t44 40q37 31 76.5 57.5t77 45.5t71.5 29.5t60 10.5q11 0 11 -3q0 -4 -9 -4q-20 0 -47 -12.5t-58.5 -35.5t-65 -55.5
t-66.5 -71.5q-48 -57 -90 -120t-74 -122.5t-50.5 -110t-18.5 -82.5q0 -17 10.5 -28t27.5 -11q35 0 89 45q13 11 21.5 18t18.5 18t26 29t44 51q4 6 8 6t4 -3t-19.5 -27t-45.5 -54q-63 -73 -113.5 -106.5t-95.5 -33.5q-26 0 -42 19t-16 52q0 47 25 107.5t77 138.5
q61 93 118 160t118 117q14 12 25 21.5t28 23.5l13 13q-25 -9 -63.5 -36.5t-82 -66t-86 -82.5t-74.5 -85l-133 -167q-31 -39 -67 -76t-69.5 -65.5t-61.5 -46t-43 -17.5q-3 0 -3 3t5 7q32 14 57 51.5t49 106.5l59 201q21 55 34 86.5t24 53t23.5 39.5t33.5 45q2 1 11 15
q-13 -10 -28 -25.5t-40 -45.5l-245 -315q-200 -257 -377 -257q-36 0 -66 12t-51.5 33t-33.5 50.5t-12 64.5q0 59 30.5 120.5t79 111.5t107.5 82t116 32q52 0 83 -27t31 -72q0 -42 -19.5 -80t-53.5 -62q-9 -6 -18.5 -10t-15.5 -4t-6 4t4 5q8 5 20 16t21 25q26 35 26 77
q0 41 -29 68t-72 27q-42 0 -86.5 -20.5t-82.5 -57.5q-42 -40 -63.5 -89.5t-21.5 -102.5q0 -63 39.5 -99.5t106.5 -36.5q36 0 75 12.5t77 36.5q24 15 49.5 34t49 40t44.5 42t38 41l249 306q14 17 31.5 36t35.5 36t34.5 31.5t28.5 22.5q6 4 15 9t17.5 9.5t15.5 7t10 2.5
q2 0 2 -2t-2 -3.5t-14 -8.5q-16 -10 -28.5 -22.5t-24 -30.5t-22 -43.5t-22.5 -60.5z" />
    <glyph glyph-name="N" unicode="N" horiz-adv-x="892" 
d="M1069 373q38 62 68.5 109.5t56 83.5t47 63t42.5 50q33 37 65 56.5t58 19.5q15 0 25.5 -9t10.5 -23q0 -11 -6.5 -19t-14.5 -8q-2 0 -4.5 1t-18.5 6q-3 1 -10 1q-15 0 -39 -12.5t-46 -32.5t-49 -51t-56 -69t-59 -82t-58 -90l-153 -249q-9 -17 -23.5 -37.5t-28.5 -38.5
t-25.5 -30t-14.5 -12q-7 0 -7 7q0 4 4 8q12 15 17 25.5t13 33.5q8 27 13.5 63.5t5.5 68.5l-2 182q0 31 3 59t9.5 56.5t17 59t25.5 66.5q-6 -7 -10.5 -12l-9 -10t-9 -11.5t-10.5 -15.5l-188 -289q-19 -30 -48 -67t-64 -77q-75 -86 -145 -125.5t-148 -39.5q-36 0 -65.5 12.5
t-51 34.5t-33.5 52.5t-12 66.5q0 72 38 144.5t105 128.5q45 37 92.5 58t86.5 21q52 0 84.5 -28.5t32.5 -74.5q0 -32 -13.5 -63.5t-37.5 -54.5q-13 -12 -25 -19.5t-19 -7.5q-6 0 -6 6q0 4 2.5 6t13.5 7q17 9 30 36.5t13 56.5q0 45 -28.5 74t-72.5 29q-47 0 -91 -22.5t-78 -60
t-54.5 -86.5t-20.5 -101q0 -34 10 -61.5t29 -47.5t44.5 -31t57.5 -11q64 0 126 33.5t130 105.5q7 7 23 25.5t33 38.5t31.5 37.5t17.5 22.5l195 280q12 17 21 29.5t18 23t18 19.5t20 19q23 21 40 33t24 12q4 0 4 -4q0 -2 -5 -6q-19 -12 -32 -28.5t-21.5 -40t-13 -54.5
t-5.5 -73l6 -163l1 -10q2 -32 -10 -88t-36 -126z" />
    <glyph glyph-name="O" unicode="O" horiz-adv-x="604" 
d="M782 731q48 0 77.5 -32.5t29.5 -85.5q0 -61 -23 -132t-63.5 -141.5t-96 -137t-120.5 -118.5q-128 -102 -256 -102q-81 0 -127.5 47t-46.5 128q0 51 18 105.5t51.5 108.5t81.5 106t109 99q22 17 46 33t45.5 28t38 19.5t24.5 7.5q5 0 5 -5q0 -2 -4 -4.5t-19 -10.5
q-40 -18 -78.5 -48.5t-73.5 -68t-65 -81.5t-51.5 -88.5t-34 -89t-12.5 -83.5q0 -70 40 -110t110 -40q123 0 248 128q47 48 84.5 100.5t63.5 106.5t40 108t14 104q0 55 -24 84.5t-69 29.5q-47 0 -92.5 -22t-84.5 -64q-38 -41 -60 -88t-22 -89q0 -47 28 -75t76 -28q35 0 63 13
t66 46q4 4 7 4q4 0 4 -4q0 -5 -14 -17.5t-34 -26.5q-30 -20 -63.5 -30.5t-65.5 -10.5q-49 0 -81 26.5t-32 68.5q0 37 14.5 76t40 76t59.5 70t72 57.5t78 38.5t79 14z" />
    <glyph glyph-name="P" unicode="P" horiz-adv-x="712" 
d="M690 302q-21 -40 -48.5 -77.5t-59 -70.5t-66 -60t-68.5 -46q-27 -15 -57.5 -27t-61 -21t-59 -14t-52.5 -5q-70 0 -113.5 24t-43.5 62q0 23 16 40.5t38 17.5q14 0 24.5 -10t10.5 -24q0 -5 -1.5 -6.5t-11.5 -8.5q-11 -7 -11 -22q0 -25 24.5 -41.5t62.5 -16.5q48 0 95 17.5
t90 49.5q23 18 43.5 37t40.5 42.5t40 52.5t43 65q37 60 63.5 102t46 71t33 48.5t26 33.5t25 25.5t28.5 25.5q41 35 79 53.5t70 18.5q14 0 14 -7q0 -4 -7 -4q-20 0 -36 -5.5t-33 -21.5t-37 -43.5t-48 -71.5zM602 384q4 0 4 -5q0 -2 -0.5 -3.5t-3 -4.5t-8.5 -8.5t-16 -15.5
q-6 -6 -16 -13t-22 -14.5t-24.5 -14.5t-23.5 -12q-26 -11 -48 -16.5t-47 -5.5q-48 0 -75.5 27t-27.5 73q0 44 21.5 88.5t59 84.5t89 74.5t111.5 59.5t125.5 39.5t131.5 14.5q59 0 112.5 -18.5t82.5 -48.5q40 -43 40 -105q0 -44 -18.5 -83.5t-49.5 -69.5t-73 -47.5t-88 -17.5
q-26 0 -47.5 5.5t-21.5 12.5q0 5 5 5q4 0 10 -3q19 -7 42 -7q31 0 62.5 18t57 47.5t41 66t15.5 73.5q0 29 -11 60t-28 46q-26 24 -68.5 37t-96.5 13q-84 0 -164.5 -31t-154.5 -92q-54 -45 -84.5 -94t-30.5 -94q0 -40 21.5 -64.5t56.5 -24.5q36 0 75.5 16t71.5 42q8 8 9.5 9
t3.5 1z" />
    <glyph glyph-name="Q" unicode="Q" horiz-adv-x="646" 
d="M712 -75q29 -10 59.5 -15.5t56.5 -5.5q33 0 59.5 10t49.5 30q5 5 8 5t3 -4q0 -2 -5.5 -8.5t-13.5 -12.5q-35 -31 -79 -48.5t-87 -17.5q-17 0 -38.5 3.5t-45 9.5t-47 14.5t-42.5 17.5l-199 96q-62 -20 -97 -28t-63 -8q-26 0 -42.5 8.5t-16.5 21.5q0 17 30 28.5t75 11.5
q13 0 42.5 -3t76.5 -8q63 21 130.5 70t123.5 114q41 48 74.5 100t57.5 104t37 101.5t13 90.5q0 51 -25.5 82t-67.5 31q-16 0 -38.5 -6t-47.5 -17.5t-51.5 -26.5t-50.5 -33q-66 -48 -121.5 -105.5t-95.5 -117t-62.5 -118t-22.5 -109.5q0 -38 23.5 -61t61.5 -23q45 0 88 22
t69 59q5 7 6.5 9t3.5 2q4 0 4 -4q0 -8 -16.5 -25.5t-40.5 -36.5q-32 -26 -72.5 -40.5t-80.5 -14.5q-52 0 -85 33.5t-33 87.5q0 48 17 99.5t49.5 103t79 101t105.5 94.5q43 33 89 60t89.5 46t84 29.5t73.5 10.5q68 0 104 -38t36 -110q0 -86 -46 -180.5t-130 -181.5
q-30 -31 -60 -57t-64 -50t-75 -47.5t-92 -50.5zM349 5q-14 5 -23 6t-25 1q-31 0 -48.5 -5t-17.5 -13q0 -5 6.5 -8t15.5 -3q12 0 25 2t26 5t23.5 7t17.5 8z" />
    <glyph glyph-name="R" unicode="R" horiz-adv-x="919" 
d="M96 112q16 0 27.5 -10t11.5 -23q0 -7 -3 -12t-13 -13q-2 -2 -2 -9q0 -23 22 -36.5t60 -13.5q103 0 194 79q16 14 28 25t25 25.5t29.5 36t42 57t62.5 87.5t90 128q31 45 70 83t79.5 65.5t81 43.5t74.5 16q9 0 9 -5q0 -4 -6 -4q-29 -4 -53 -16t-51 -38t-59.5 -70
t-77.5 -111q-58 -87 -97.5 -143t-69.5 -92.5t-56 -59.5t-56 -44q-114 -76 -245 -76q-75 0 -119 23t-44 62q0 18 13.5 31.5t32.5 13.5zM825 341q20 -17 28.5 -32.5t8.5 -36.5q0 -8 -1.5 -15.5t-3.5 -18.5l-2 -6t-6.5 -14t-17.5 -33.5t-33 -63.5q-17 -33 -17 -58q0 -35 27 -35
q37 0 85.5 39t119.5 126q12 14 16 14q3 0 3 -3q0 -7 -77 -94q-49 -56 -101 -88t-94 -32q-29 0 -48 20t-19 51q0 17 5.5 34.5t19.5 43.5l5.5 11t10 17t22 34.5t41.5 64.5q17 26 17 49q0 36 -42 39q-12 0 -15.5 1t-3.5 5q0 3 0.5 4t4.5 2t12 1h22q46 0 97 20t87 52
q74 65 74 141q0 61 -53.5 94t-153.5 33q-58 0 -114 -11t-106.5 -31.5t-93 -49.5t-72.5 -65q-29 -34 -45.5 -71t-16.5 -66q0 -36 22 -59.5t55 -23.5q12 0 26.5 4t29 10.5t28 15.5t23.5 19q4 4 6 4q3 0 3 -3q0 -5 -14 -19q-76 -75 -152 -75q-42 0 -68 26.5t-26 70.5
q0 46 26.5 95t76.5 94q39 35 89 63t107 47.5t119 30t126 10.5q113 0 178 -40t65 -110q0 -41 -22.5 -77t-63 -65t-97 -48.5t-123.5 -26.5z" />
    <glyph glyph-name="S" unicode="S" horiz-adv-x="611" 
d="M558 445q-7 17 -7 49q0 46 19 87t51.5 71.5t76 48t93.5 17.5q56 0 89 -29t33 -78q0 -31 -12 -60t-31.5 -51.5t-45.5 -36t-53 -13.5q-11 0 -20 5t-9 10q0 4 4 4q1 0 7 -2q9 -6 19 -6q19 0 37.5 11.5t33.5 30.5t24 43t9 49q0 48 -28.5 76.5t-76.5 28.5q-32 0 -59.5 -13
t-47 -35.5t-30.5 -54t-11 -68.5q0 -42 11 -69l57 -142q12 -30 12 -70q0 -63 -27.5 -113.5t-81.5 -85.5q-48 -32 -108 -49.5t-122 -17.5q-48 0 -88.5 14t-70 39t-45.5 60.5t-16 77.5q0 52 23 99.5t61.5 84t89 58t106.5 21.5q48 0 77 -26t29 -68q0 -35 -17 -69t-46 -58
q-13 -10 -29 -17.5t-26 -7.5q-6 0 -6 5q0 3 8 5q33 14 55 47t22 70q0 44 -28 72t-73 28q-39 0 -74.5 -18t-62 -48t-42.5 -70t-16 -84q0 -43 15 -79t42 -62.5t64 -41t81 -14.5q48 0 90.5 17t74 46.5t49.5 69.5t18 86q0 34 -8 58z" />
    <glyph glyph-name="T" unicode="T" horiz-adv-x="597" 
d="M750 331q-36 -57 -56 -88.5t-34 -51t-25.5 -33t-30.5 -33.5q-64 -68 -153.5 -105.5t-186.5 -37.5q-80 0 -126 23.5t-46 63.5q0 20 13 33t32 13q15 0 26 -9.5t11 -22.5q0 -5 -2 -7.5t-9 -8.5q-9 -8 -9 -16q0 -12 9 -22.5t24 -18t35.5 -12t44.5 -4.5q44 0 85 11.5t72 32.5
q14 9 30 23t32 29.5t29.5 31.5t22.5 29l167 250q48 66 99.5 110t108.5 68q12 4 21 9q18 8 27 8q5 0 5 -3t-4 -4q-23 -11 -37.5 -19.5t-26 -19t-22.5 -25t-26 -36.5zM1047 654q12 -2 34.5 -3.5t48.5 -1.5q13 0 22.5 0.5t17.5 2.5t16.5 5t19.5 8l11 4q2 0 2 -2t-4 -4.5
t-18 -9.5q-29 -13 -68 -19.5t-90 -6.5q-57 0 -124 14l-115 25q-58 13 -121 13q-58 0 -110.5 -12.5t-96.5 -37.5q-35 -19 -65 -47t-52 -59.5t-34.5 -65t-12.5 -63.5q0 -52 35.5 -84.5t92.5 -32.5q14 0 24.5 1t20 3.5t21 8t28.5 14.5q21 11 26 14t6 3q3 3 6 3t3 -3
q0 -4 -19 -18q-47 -29 -91.5 -44.5t-81.5 -15.5q-61 0 -98 32t-37 85q0 36 16 74t44.5 75t69 70.5t88.5 59.5q29 16 62.5 28.5t68.5 21.5t70.5 14t68.5 5q11 0 27.5 -1t33 -2.5t32 -3.5t24.5 -4z" />
    <glyph glyph-name="U" unicode="U" horiz-adv-x="930" 
d="M1061 653q8 -1 14 -1h11q14 0 30 2.5t39 7.5l-265 -394q-21 -31 -38.5 -62.5t-31 -59t-21 -50t-7.5 -35.5q0 -14 8 -23t22 -9q47 0 136 93q22 23 34.5 36t18.5 19t7.5 8t3.5 4q6 6 8 6q4 0 4 -4q0 -2 -1 -3.5t-7.5 -9t-20 -22.5t-38.5 -43q-11 -12 -25.5 -26t-31 -28
t-33 -27t-30.5 -22q-23 -15 -40.5 -21.5t-37.5 -6.5q-23 0 -37.5 16t-14.5 41q0 14 1.5 26.5t6.5 27.5t13 35t22 49q3 5 6.5 12.5t8.5 18.5q-33 -37 -57.5 -64t-44 -47t-35.5 -34t-32 -26q-35 -26 -71 -41t-65 -15q-30 0 -49 21t-19 53q0 54 34 116q5 10 10 18.5t12.5 20.5
t20.5 30.5t35 50t55.5 77.5t81.5 114q30 42 47 83t17 71q0 26 -16.5 41t-43.5 15q-111 0 -227 -100q-71 -61 -109.5 -128t-38.5 -128q0 -35 20 -54.5t55 -19.5q32 0 57 12t55 41q2 2 4 2t2 -2q0 -3 -7 -12.5t-18 -20.5q-67 -67 -131 -67q-39 0 -63 26.5t-24 68.5
q0 34 13.5 73t38 78.5t58 77t74.5 68.5q61 47 129 73.5t127 26.5q53 0 83 -24t30 -66q0 -67 -69 -165l-85 -121q-37 -51 -57 -79.5t-31.5 -45t-17 -26.5t-13.5 -25q-16 -28 -23 -50t-7 -42q0 -17 11.5 -28t28.5 -11q22 0 54.5 16t66.5 43q10 8 28 26t37 37.5t35.5 38
t23.5 28.5l119 165z" />
    <glyph glyph-name="V" unicode="V" horiz-adv-x="736" 
d="M596 396q12 16 26.5 39t28.5 47t26.5 47.5t20.5 40.5q6 14 10 31.5t4 31.5q0 25 -16 39.5t-44 14.5q-60 0 -123.5 -32.5t-122.5 -92.5q-56 -57 -88 -118.5t-32 -110.5q0 -30 17.5 -49t45.5 -19q14 0 31 5t33.5 13t31.5 19.5t25 23.5q3 4 5 4q3 0 3 -2q0 -3 -7 -12
t-15 -19q-73 -82 -143 -82q-36 0 -58.5 25t-22.5 66q0 45 19.5 92.5t52.5 92t77.5 83.5t95 68t104 46t105.5 17q44 0 69.5 -23t25.5 -62q0 -32 -13 -68.5t-45 -88.5q-6 -10 -11.5 -18.5t-19 -28t-40 -57t-75.5 -105.5q-42 -57 -65.5 -109.5t-23.5 -84.5q0 -20 15 -35t35 -15
q29 0 65.5 17t76.5 47.5t82 73.5t82 96q76 100 118.5 190t42.5 152q0 19 -4.5 25.5t-22.5 14.5q-17 9 -17 22q0 18 16.5 32t36.5 14q22 0 36.5 -16t14.5 -40q0 -36 -17 -85.5t-47.5 -106t-72.5 -117.5t-93 -120q-97 -112 -185 -169.5t-162 -57.5q-37 0 -58 21t-21 59
q0 20 6 43.5t17 44.5q6 12 15 28t18.5 31.5t17.5 28.5t13 20z" />
    <glyph glyph-name="W" unicode="W" horiz-adv-x="862" 
d="M834 95q-17 -18 -27.5 -30t-17.5 -22.5t-13 -21.5t-13 -27q-7 -13 -14 -13q-6 0 -6 6q0 2 0.5 5t3 9t6.5 16t12 27q7 18 12 31.5t8.5 26t6.5 26.5t7 33q11 58 22 104.5t23 86t26 73.5t31 69q-43 -55 -76 -95.5t-61 -73t-54 -59.5t-55 -53.5t-63.5 -56t-80.5 -66.5
q-11 -9 -25 -22.5t-27 -27t-22 -24.5t-10 -15q-9 -18 -12.5 -23t-7.5 -5q-9 0 -9 10q0 20 38 88q7 13 13 22.5t18.5 30t37 58t69.5 105.5q7 11 19 33t24.5 47t24 49t17.5 40q15 38 22 70t7 65q0 56 -33 80q-10 8 -24.5 12.5t-25.5 4.5q-28 0 -61.5 -12.5t-67.5 -35
t-66 -52.5t-56 -64q-32 -45 -51 -94t-19 -87q0 -42 23 -66t64 -24q29 0 57.5 10.5t46.5 27.5q15 13 23 21t12.5 11.5t5.5 5t2 3.5q4 4 6 4q4 0 4 -4q0 -3 -5.5 -11.5t-13.5 -16.5q-38 -42 -86 -66.5t-93 -24.5q-42 0 -69 30t-27 77q0 27 8.5 58.5t24.5 63.5t38.5 63.5
t49.5 60.5q61 64 135 100t144 36q59 0 94.5 -38.5t35.5 -102.5q0 -41 -13 -83.5t-39 -93.5q-10 -18 -17 -30.5t-15 -25.5t-19.5 -28t-29 -36.5t-42.5 -52.5t-62 -76q-3 -3 -12 -14t-15 -19q22 13 43.5 28.5t46 36.5t54 49t68.5 67q27 29 48.5 53.5t48 56.5t61.5 77.5
t89 115.5q16 21 32 37.5t21 16.5q4 0 4 -5q0 -2 -3 -5q-19 -22 -30 -38t-20.5 -42.5t-19.5 -72t-27 -125.5q-7 -29 -15 -55t-18.5 -54.5t-24 -60t-31.5 -70.5q-2 -2 -5 -12l189 197q17 18 34.5 38.5t34 42.5t31.5 44t26 42q43 74 43 134q0 14 -6 23.5t-15 9.5h-6
q-13 0 -13 13q0 22 16 37.5t39 15.5t36 -17.5t13 -46.5q0 -32 -15 -73.5t-44 -86.5q-23 -36 -67 -87t-96 -103l-152 -149l-9 -9t-15 -16z" />
    <glyph glyph-name="X" unicode="X" horiz-adv-x="838" 
d="M773 477q205 183 338 183q22 0 35 -7t13 -18q0 -8 -4 -17t-10 -17t-13 -13.5t-13 -5.5q-7 0 -7 8q-1 19 -13 31.5t-31 12.5q-75 0 -161.5 -70.5t-178.5 -207.5q-45 -67 -69 -132.5t-24 -122.5q0 -38 15 -60.5t41 -22.5q41 0 113 55q10 8 25.5 22t30.5 29t27 28t16 19
q8 13 11.5 16.5t8.5 3.5q4 0 4 -4t-3 -8t-15 -17q-2 -3 -9.5 -11.5t-21.5 -23.5q-20 -23 -45.5 -46.5t-53.5 -43.5q-76 -54 -132 -54q-38 0 -61 27t-23 71q0 21 2.5 41.5t9.5 48.5q-2 -2 -23 -20t-60 -52q-27 -24 -63 -44t-75 -35t-79 -23.5t-75 -8.5q-32 0 -59 6.5
t-46.5 18.5t-30.5 28t-11 35q0 23 15 38.5t38 15.5q17 0 27.5 -8.5t10.5 -22.5q0 -6 -2 -8.5t-13 -13.5q-7 -7 -7 -16q0 -25 25.5 -42t62.5 -17q65 0 142.5 46.5t151.5 131.5q50 57 90 114.5t68 111.5t43 103.5t15 89.5q0 37 -21.5 61t-55.5 24q-50 0 -102.5 -27t-96 -69
t-71.5 -93.5t-28 -99.5q0 -40 26 -66t65 -26q63 0 120 59q3 3 5 3q3 0 3 -2t-4 -7.5t-10 -12.5t-13 -14t-13 -12q-32 -26 -67.5 -40.5t-69.5 -14.5q-42 0 -67 29t-25 77q0 38 15.5 77t41.5 75.5t62 69t76 56t83.5 37.5t85.5 14q60 0 92.5 -35t32.5 -99q0 -19 -2 -36.5
t-9 -49.5z" />
    <glyph glyph-name="Y" unicode="Y" horiz-adv-x="796" 
d="M797 74q-3 -4 -14 -19.5t-27 -36t-33.5 -43.5t-33.5 -43.5t-28 -35.5t-16 -19q-32 -36 -72.5 -65t-85.5 -49.5t-93.5 -32t-94.5 -11.5q-67 0 -106 22.5t-39 60.5q0 24 17.5 41t41.5 17q15 0 26 -9t11 -21q0 -6 -2.5 -9.5t-16.5 -17.5q-4 -6 -4 -14q0 -25 27 -40.5
t69 -15.5q101 0 199 100q24 24 49 53.5t57 72t74 103.5t101 148q-12 -11 -19.5 -18t-10.5 -10q-25 -24 -50 -48.5t-50 -49.5q-8 -8 -20.5 -18t-26.5 -20t-29 -19.5t-28 -16.5q-24 -13 -43 -18.5t-40 -5.5q-35 0 -55 21.5t-20 59.5q0 24 6.5 44.5t25.5 53.5q7 13 16 28
t18.5 30t18 27.5t14.5 20.5l126 161q29 37 75 127q12 23 16.5 38t4.5 31q0 27 -17 42t-49 15q-38 0 -82 -16.5t-87 -44.5t-81.5 -66t-66.5 -81q-27 -42 -43 -82t-16 -66q0 -36 20 -56t55 -20q52 0 106 53q4 5 7 5q4 0 4 -4q0 -12 -31 -40q-35 -32 -63 -46t-57 -14
q-49 0 -75 26t-26 74q0 42 23 92t66 102q37 45 80.5 81.5t90.5 62t95.5 39.5t93.5 14q55 0 85.5 -26t30.5 -72q0 -14 -2 -26.5t-6.5 -25t-12 -27.5t-19.5 -34q-11 -17 -26 -40t-29 -41l-96 -128q-35 -47 -57 -79t-35 -55.5t-17.5 -41t-4.5 -34.5q0 -18 12.5 -30t32.5 -12
q12 0 27.5 5t33 14t35.5 21.5t35 27.5q16 14 28.5 25.5t27.5 27.5t35 39t53 61q17 19 26.5 30t14 16t5.5 6.5t2 3.5l206 302q2 2 3.5 4.5t3.5 6.5q10 20 14.5 24.5t15.5 3.5q22 1 78 6z" />
    <glyph glyph-name="Z" unicode="Z" horiz-adv-x="818" 
d="M883 266q12 -14 16.5 -26.5t4.5 -32.5q0 -44 -24.5 -85t-65.5 -72.5t-94.5 -50t-111.5 -18.5q-26 0 -50 3.5t-52.5 11.5t-64 22.5t-83.5 35.5q-58 -22 -101.5 -31.5t-82.5 -9.5q-54 0 -89 15.5t-35 40.5q0 14 12.5 27t34.5 22.5t51 15t62 5.5q42 0 80 -6.5t88 -20.5
q31 21 57.5 42t56.5 52.5t68.5 76.5t94.5 114q31 37 54.5 64t46 49t46 42.5t55.5 45.5q-29 7 -54.5 13t-34.5 8q-28 7 -48.5 11t-38 6.5t-34 3.5t-35.5 1q-49 0 -88.5 -10t-74.5 -31q-45 -26 -70.5 -64t-25.5 -77q0 -32 15.5 -52.5t39.5 -20.5q10 0 21 4q7 3 12 3q6 0 6 -9
q0 -17 -16.5 -30t-36.5 -13q-30 0 -50 22.5t-20 55.5q0 32 13.5 65.5t36.5 65t54.5 59t66.5 48t73 32.5t74 12q19 0 45 -3.5t52 -8.5q7 -2 13 -3t19.5 -5t38 -12t69.5 -22q3 -1 11 -3t20 -6q33 15 59 25t48 15.5t42 8t42 2.5q30 0 47 -9t17 -25q0 -28 -66 -49
q-11 -3 -28 -6.5t-35.5 -5.5t-37.5 -3.5t-34 -1.5q-8 0 -22.5 1t-32.5 3q-20 -18 -40 -38t-43 -46t-52 -62t-68 -85q-39 -50 -73.5 -90t-67 -72.5t-64 -58.5t-64.5 -48q12 -6 19.5 -10t16.5 -7.5t22.5 -8.5t36.5 -14q35 -13 58 -21t39 -12t28 -5.5t26 -1.5q71 0 139 86
q61 79 61 149v18zM324 74q-29 13 -50.5 22t-39.5 14t-33.5 7.5t-30.5 2.5q-32 0 -53 -14.5t-21 -35.5t19 -32.5t54 -11.5q18 0 33 2t32 7t38.5 14.5t51.5 24.5zM952 625q3 0 5 -0.5t6.5 -1.5t12.5 -2t23 -4q10 -2 21 -3t23 -1q40 0 64.5 10.5t24.5 27.5q0 13 -12.5 20.5
t-33.5 7.5q-75 0 -134 -54z" />
    <glyph glyph-name="quoteleft" unicode="&#x2018;" horiz-adv-x="131" 
d="M354 538q8 2 12 2.5t9 0.5q27 0 27 -25q0 -11 -6.5 -23t-16 -21.5t-22 -15.5t-24.5 -6q-13 0 -21 9.5t-8 23.5q0 15 8.5 34.5t22.5 38t31 34t35 23.5q5 2 13.5 4t13.5 2q3 0 3 -3q0 -4 -7 -7q-25 -12 -40.5 -27.5t-29.5 -43.5z" />
    <glyph glyph-name="a" unicode="a" horiz-adv-x="397" 
d="M477 352l74 3l-150 -217q-7 -11 -13.5 -24t-12 -25.5t-8.5 -24t-3 -18.5q0 -20 18 -20q26 0 63 32t82 92q14 19 22.5 30.5t10.5 13.5l6 8q3 3 4 3q4 0 4 -4q0 -5 -16.5 -26t-58.5 -70q-94 -112 -156 -112q-39 0 -39 47q0 17 3.5 31t11.5 37q-33 -34 -57 -56t-42.5 -35
t-34.5 -18t-33 -5q-27 0 -44 19t-17 51q0 76 72 159q26 30 56.5 55t62 43.5t62 28.5t56.5 10q12 0 23.5 -5t16.5 -13q4 -5 6 -10.5t5 -17.5zM406 350q-17 2 -41 -10t-51.5 -34.5t-56 -53.5t-52.5 -67q-23 -35 -37.5 -67t-14.5 -52q0 -17 11.5 -28t27.5 -9q20 2 47.5 20
t55.5 49q7 8 22 27t32 42t32.5 45.5t24.5 36.5q27 44 27 73q0 25 -27 28z" />
    <glyph glyph-name="b" unicode="b" horiz-adv-x="358" 
d="M490 622q2 -5 2 -10q0 -16 -18 -42l-193 -281q7 5 12.5 9t7.5 6q22 17 37.5 28t27.5 17t23 8.5t24 2.5q27 0 46.5 -22.5t19.5 -54.5q0 -54 -34 -111.5t-93 -104.5q-94 -73 -173 -73q-37 0 -58 20t-21 55q0 65 60 151l229 331q10 14 16.5 28t6.5 21q0 3 -0.5 6.5t-1.5 8.5
zM389 339q-18 2 -42.5 -12t-51 -38.5t-52.5 -56t-46.5 -64.5t-33.5 -64.5t-13 -54.5q0 -41 39 -41q18 0 39.5 11t44.5 31t46 48t44 62q27 45 41.5 82.5t14.5 62.5q0 31 -30 34z" />
    <glyph glyph-name="c" unicode="c" horiz-adv-x="288" 
d="M482 235q4 0 4 -3q0 -2 -3 -5q-1 -2 -3 -5.5t-7 -9.5q-8 -12 -25 -31t-36.5 -40t-39 -40t-34.5 -31q-93 -76 -165 -76q-38 0 -60.5 22.5t-22.5 59.5q0 77 72 160q25 29 56 53.5t64 42.5t66 28t61 10q19 0 35.5 -10t16.5 -22q0 -5 -5 -13.5t-11.5 -16.5t-13.5 -14.5
t-10 -6.5q-6 0 -7 20q0 18 -11 32t-25 14q-13 0 -30.5 -9.5t-38.5 -27t-44 -41.5t-45 -53q-60 -80 -60 -141q0 -51 49 -51q30 0 56 11t67 42q17 13 35.5 29.5t36.5 34.5t34.5 36.5t28.5 35.5q7 10 10 13t5 3z" />
    <glyph glyph-name="d" unicode="d" horiz-adv-x="426" 
d="M581 489q3 4 8.5 12.5t12 19l13 21t10.5 16.5q12 21 16.5 33t3.5 24q0 3 -1 6q13 0 22 0.5t19 2.5q18 2 22 2.5t6 0.5q14 0 14 -14q0 -15 -21 -45l-245 -358q-15 -23 -29 -46.5t-24.5 -45t-16.5 -39t-6 -27.5q0 -23 22 -23q15 0 35.5 13t41.5 36q9 10 24 27t30.5 35.5
t30 35t22.5 27.5q10 12 12.5 14.5t4.5 2.5q4 0 4 -4q0 -2 -10.5 -15t-25 -31t-31 -37.5t-28.5 -32.5q-50 -54 -85.5 -79.5t-63.5 -25.5q-18 0 -30.5 13.5t-12.5 33.5q0 6 0.5 11.5t2.5 13.5l5 20t9 32q-18 -20 -30 -32.5t-21 -22t-16.5 -16.5t-16.5 -15q-45 -39 -89 -39
q-30 0 -46.5 19.5t-16.5 54.5q0 56 36 114.5t101 108.5q45 34 90 53.5t79 19.5q24 0 35.5 -10.5t15.5 -33.5zM419 356q-26 2 -66 -24t-78 -71q-23 -26 -42.5 -54t-34 -53.5t-22.5 -48t-8 -37.5q0 -18 11 -29t28 -9q16 1 31.5 8t32.5 21.5t36.5 37t44.5 55.5q27 35 45 61.5
t29 46.5t15.5 35t4.5 28q0 31 -27 33z" />
    <glyph glyph-name="e" unicode="e" horiz-adv-x="282" 
d="M188 169q-16 -23 -24.5 -47.5t-8.5 -47.5q0 -19 14.5 -32.5t35.5 -13.5q25 0 55.5 13t62 37.5t63.5 59t62 76.5q4 5 8 5q3 0 3 -3q0 -4 -11.5 -19t-28 -34.5t-36 -40t-35.5 -35.5q-43 -42 -92 -67.5t-86 -25.5q-38 0 -60.5 23.5t-22.5 63.5q0 30 14 62.5t38.5 64t56 60
t67 50t71.5 34.5t69 13q17 0 28 -8t11 -20q0 -22 -23.5 -51.5t-59.5 -52.5q-14 -9 -29 -16.5t-35 -15t-46 -15.5t-61 -17zM198 188q54 10 88 24.5t64 42.5q49 44 49 78q0 20 -18 20q-27 0 -75 -39q-11 -9 -21 -19t-22.5 -24.5t-28 -34.5t-36.5 -48z" />
    <glyph glyph-name="f" unicode="f" horiz-adv-x="171" 
d="M185 344l7 12h70q8 10 13 16t7 10q33 43 53 68t36 42t32 30t40 32q99 76 163 76q22 0 22 -19q0 -3 -0.5 -5.5t-2 -5.5t-5 -8.5t-9.5 -15.5q-11 -15 -13.5 -18t-5.5 -3q-7 0 -5 9l1 6q2 11 -8.5 21t-23.5 10q-38 0 -91 -62q-35 -42 -69.5 -89t-63.5 -94h71l-5 -12h-75
l-182 -293q-24 -39 -53 -76.5t-60 -69.5t-62 -58t-61 -42q-38 -22 -81 -35t-78 -13q-48 0 -74.5 15.5t-26.5 42.5q0 17 11.5 28.5t28.5 11.5q11 0 18.5 -6.5t7.5 -15.5q0 -5 -2 -7.5t-10 -9.5q-2 -2 -2 -6q0 -17 17 -28.5t43 -11.5q67 0 145 73t177 228l172 273h-66z" />
    <glyph glyph-name="g" unicode="g" horiz-adv-x="369" 
d="M313 94q-30 -29 -52.5 -48t-41.5 -30.5t-35.5 -16.5t-32.5 -5q-26 0 -44 19t-18 46q0 55 36.5 115t96.5 106q22 17 47.5 32t50.5 25.5t48 16.5t40 6q37 0 50 -47l28 39l73 1l-230 -336q-26 -41 -46.5 -70t-38.5 -51t-36 -38.5t-39 -32.5q-40 -31 -93 -50t-100 -19
q-46 0 -75.5 17.5t-29.5 45.5q0 16 10.5 27t25.5 11q11 0 20 -7.5t9 -16.5q0 -3 -1.5 -5.5t-6.5 -9.5q-5 -8 -5 -13q0 -14 21 -25t46 -11q30 0 60.5 11.5t56.5 33.5q15 12 70 76zM409 350q-11 1 -28 -5t-37 -18.5t-41.5 -30t-40.5 -38.5q-24 -25 -44 -52t-34.5 -53
t-22.5 -49.5t-8 -41.5q0 -15 11 -24.5t27 -8.5q34 2 67 27t77 83q55 69 79.5 112t24.5 68q0 26 -30 31z" />
    <glyph glyph-name="h" unicode="h" horiz-adv-x="412" 
d="M406 555q13 19 18.5 32.5t7.5 26.5q0 4 1 7l75 5q1 -4 1 -7q-2 -22 -15 -44l-220 -317q31 29 56 48.5t46 31.5t40 17.5t39 5.5q19 0 32.5 -11.5t13.5 -27.5q0 -15 -6.5 -34.5t-16.5 -31.5l-100 -135q-6 -8 -11.5 -18t-10.5 -20.5t-8 -19.5t-3 -13q0 -10 7.5 -16.5
t18.5 -6.5q15 0 38 13.5t49 37.5q16 15 26 25t21 22.5t26 32t40 52.5q6 7 8 7q3 0 3 -3q0 -2 -10 -15.5t-24 -31.5t-29 -36t-25 -29q-100 -108 -171 -108q-20 0 -33.5 11.5t-13.5 28.5q0 8 3 20t7.5 25t10.5 24.5t12 19.5l90 121q35 45 35 71q0 9 -6 15t-15 6q-18 0 -45 -16
t-57.5 -42.5t-61.5 -61.5t-57 -73l-97 -143h-72z" />
    <glyph glyph-name="i" unicode="i" horiz-adv-x="193" 
d="M303 361q1 -5 1.5 -8t0.5 -6q0 -9 -4 -20t-11 -21l-100 -143q-21 -35 -32.5 -54.5t-17 -30.5t-6.5 -17t-1 -13q0 -23 21 -23q31 0 85 51q13 12 31 31.5t35.5 39.5t32.5 38.5t22 29.5q8 11 11 11t3 -2t-2 -4l-6 -9q-15 -21 -33.5 -44.5t-38 -46t-39.5 -43t-36 -34.5
q-25 -22 -53.5 -35.5t-48.5 -13.5q-23 0 -36 13t-13 34q0 23 11 50t34 61l94 137q9 14 15 29t6 26v6t-1 8zM330 494q11 0 17.5 -6.5t6.5 -16.5q0 -17 -13.5 -30t-30.5 -13q-11 0 -19 6.5t-7 16.5q1 17 15 30t31 13z" />
    <glyph glyph-name="j" unicode="j" horiz-adv-x="157" 
d="M331 360q1 -4 1 -9q0 -8 -3.5 -17.5t-8.5 -18.5l-239 -347q-136 -198 -329 -198q-56 0 -88.5 17t-32.5 46q0 18 12.5 30t29.5 12q11 0 18.5 -6.5t7.5 -16.5q0 -4 -2 -6.5t-13 -13.5q-3 -2 -3 -8q0 -18 20.5 -31t47.5 -13q44 0 90.5 22.5t91.5 64.5q5 4 14 14t18.5 21
t17.5 21t11 14l207 309q2 4 4.5 7.5t5.5 7.5q45 60 45 86v9zM364 494q11 0 17.5 -6.5t6.5 -16.5q0 -17 -13.5 -30t-30.5 -13q-11 0 -19 6.5t-7 16.5q1 17 15 30t31 13z" />
    <glyph glyph-name="k" unicode="k" horiz-adv-x="377" 
d="M502 628q2 -10 2 -11q0 -8 -6.5 -25t-14.5 -28l-235 -334l150 94q22 14 38.5 23.5t29 15t22.5 8t19 2.5q17 0 17 -12q0 -17 -12.5 -33t-26.5 -16q-3 0 -5.5 1.5t-13.5 11.5q-3 3 -9 3q-9 0 -20.5 -3.5t-30 -13t-46.5 -27t-70 -44.5q18 4 28.5 5.5t21.5 1.5q30 0 50 -14
t20 -36q0 -7 -1 -12.5t-6 -15t-16.5 -27t-32.5 -49.5q-24 -35 -24 -54q0 -7 5 -12t12 -5q27 0 72 42t122 138q7 10 12 10q2 0 2 -4q0 -2 -0.5 -3.5t-2.5 -4.5t-6.5 -9t-13.5 -16t-14 -16t-9 -11.5t-9 -11.5t-14 -17q-104 -124 -181 -124q-19 0 -30.5 10.5t-11.5 27.5
q0 18 10 39q1 2 2.5 4.5t8 13t21 31.5t40.5 60q7 12 7 21q0 13 -10.5 21.5t-25.5 8.5q-25 0 -53.5 -14t-47.5 -37q-8 -9 -14 -16.5t-17 -24t-29.5 -46t-51.5 -81.5q-5 -9 -8.5 -11.5t-8.5 -2.5h-4q-7 1 -12.5 1h-10.5h-7.5t-17.5 -1h-2q-7 0 -7 5q0 4 4 10l360 519
q20 28 30.5 50t10.5 33v9z" />
    <glyph glyph-name="l" unicode="l" horiz-adv-x="213" 
d="M492 629q4 -8 4 -15q0 -9 -12.5 -31.5t-38.5 -60.5l-261 -382q-7 -11 -14 -24t-13 -25.5t-9.5 -23t-3.5 -15.5q0 -9 8 -16t19 -7q21 0 53 26q14 12 23.5 20.5t22.5 22t33.5 37t57.5 65.5q8 10 11.5 13t5.5 3q3 0 3 -4q0 -3 -14 -20.5t-34 -40.5t-41.5 -46t-36.5 -37
q-33 -32 -70 -53t-60 -21q-22 0 -34.5 12.5t-12.5 33.5q0 49 57 132l247 362q15 21 25.5 43.5t10.5 32.5v4.5t-2 9.5z" />
    <glyph glyph-name="m" unicode="m" horiz-adv-x="583" 
d="M172 231l10 14t10 15q28 41 38.5 62.5t10.5 36.5l72 6v-9q0 -8 -6.5 -22t-17.5 -31q-4 -5 -12.5 -19t-18.5 -31q3 1 5 3l6 6t11.5 12.5t21.5 23.5q11 11 33 27.5t42 26.5q14 8 27.5 11.5t28.5 3.5q49 0 49 -39q0 -15 -6 -32.5t-23 -47.5q30 34 53.5 56.5t45 36.5t41.5 20
t43 6t35.5 -11t12.5 -32q0 -41 -26 -78l-93 -134q-27 -38 -27 -64q0 -9 6 -14.5t15 -5.5q16 0 40 14.5t51.5 39.5t55.5 57t51 68q8 11 12 11q2 0 2 -3q0 -2 -6 -11t-16 -22t-23 -29t-28 -32q-30 -34 -54.5 -57.5t-46 -38t-41 -21t-39.5 -6.5t-33.5 11.5t-13.5 28.5
q0 14 6.5 33.5t14.5 31.5l90 132q11 16 18 27t11 20t5.5 17t1.5 18q0 11 -7.5 17.5t-19.5 6.5q-14 0 -29 -8.5t-41 -30.5q-23 -19 -42 -38.5t-30 -36.5l-156 -227h-27h-14h-12t-15 2l157 229q1 2 2.5 4t4 6.5t7 13t12.5 23.5q6 10 9 16.5t4.5 11t2 8.5t0.5 9q0 19 -21 19
q-16 0 -31.5 -6.5t-35.5 -22.5t-46.5 -43t-62.5 -68q-12 -14 -31 -39.5t-38 -52.5t-34 -51t-21 -36q-8 -16 -13 -20.5t-16 -4.5t-25.5 0.5t-29.5 1.5z" />
    <glyph glyph-name="n" unicode="n" horiz-adv-x="385" 
d="M197 264q0 1 1 2t4.5 7t11 19t21.5 36q5 8 5 18q0 6 -2 11l71 5q1 -4 1 -8q0 -11 -8 -26.5t-26 -41.5l-27 -41q33 30 52 47.5t31 27.5t20 15t19 11q40 19 65 19q23 0 38 -11.5t15 -29.5q0 -21 -9 -41.5t-30 -48.5l-90 -119q-5 -7 -10.5 -16.5t-10 -19.5t-7.5 -18.5
t-3 -12.5q0 -8 6 -13.5t15 -5.5q18 0 41 13t55 42q14 13 30.5 29.5t31.5 33t27 31.5t17 24q2 5 6 5t4 -4q0 -3 -12.5 -19.5t-31 -37t-38.5 -42t-35 -35.5q-39 -35 -73 -53t-62 -18q-20 0 -34 11t-14 27q0 19 12 45.5t34 55.5l83 111q15 20 24.5 40t9.5 31q0 8 -6 14t-15 6
q-24 0 -47.5 -13.5t-61.5 -49.5q-23 -22 -39.5 -39t-31.5 -34t-30 -37.5t-35 -49.5q-11 -15 -19.5 -27t-11.5 -17q-10 -13 -17.5 -24t-7.5 -12q-8 -13 -12.5 -20t-9 -10.5t-10 -4.5t-14.5 -1h-18h-27z" />
    <glyph glyph-name="o" unicode="o" horiz-adv-x="342" 
d="M405 367q32 0 51.5 -18t19.5 -47t-20 -74.5t-52 -88.5q-23 -32 -53 -58.5t-62 -46t-64.5 -30.5t-61.5 -11q-35 0 -56 25t-17 61q5 51 36 102t76 92.5t99 67.5t104 26zM402 358q-12 1 -31 -7t-40.5 -24t-44 -38t-42.5 -47t-37 -51t-29 -50t-18.5 -44.5t-6.5 -35.5
q0 -22 13.5 -34t36.5 -12q17 0 38 11t43.5 31t46 47.5t44.5 61.5q29 46 45 84.5t16 63.5q0 41 -34 44z" />
    <glyph glyph-name="p" unicode="p" horiz-adv-x="375" 
d="M170 226q24 36 36.5 56t18.5 31t7 16.5t1 12.5q0 4 -1 8l66 5q1 -4 1 -8q0 -11 -7 -27.5t-26 -50.5q24 25 44 42.5t38 28.5t34.5 15.5t34.5 4.5q29 0 46 -19t17 -51q0 -49 -28.5 -101t-72.5 -95.5t-97.5 -71.5t-102.5 -28q-50 0 -72 41l-193 -284h-73zM389 341
q-17 1 -45 -16.5t-57 -46.5q-12 -12 -32 -36t-40.5 -51t-38.5 -52t-27 -40q-11 -18 -15 -28t-4 -20q0 -19 14.5 -32t34.5 -12q55 3 136 96q51 58 77 110t26 93q0 33 -29 35z" />
    <glyph glyph-name="q" unicode="q" horiz-adv-x="363" 
d="M58 -249l200 284q-42 -22 -73 -31.5t-60 -9.5q-31 0 -48 16t-17 46q0 23 12 50.5t34.5 57.5t54 61t69.5 60q48 35 93 55t77 20q38 0 38 -35q0 -11 -3.5 -23.5t-11.5 -32.5q16 20 28 33.5t21 23t17.5 16t19.5 13.5l59 -5q-12 -7 -22 -15.5t-22 -22t-28 -34.5t-38 -52
l-327 -475h-73zM400 341q-14 2 -38 -10t-49 -31q-52 -41 -88 -80.5t-65 -88.5q-18 -31 -28 -56t-10 -42q0 -12 8 -19.5t22 -6.5q13 1 30 6t34.5 13.5t34 19.5t29.5 23q19 18 44 54.5t64 104.5q19 32 26.5 51.5t7.5 33.5q0 26 -22 28z" />
    <glyph glyph-name="r" unicode="r" horiz-adv-x="289" 
d="M161 181l-11 -1l44 65q27 36 45.5 70.5t29.5 48.5q22 -13 41 -18.5t40 -5.5q34 0 62 14q6 3 9 3t3 -3q0 -1 -1 -2.5t-7 -8.5t-19.5 -21.5t-37.5 -41.5t-47 -58t-40.5 -61t-28 -55t-10.5 -39q0 -11 8 -19.5t19 -8.5q17 0 43 19t58 54q20 23 41 48.5t34 42.5q3 4 5 4
q3 0 3 -4q0 -1 -1 -2.5t-5.5 -7.5t-14.5 -18.5t-28 -35.5q-64 -77 -107 -111t-77 -34q-20 0 -34.5 14.5t-14.5 34.5q0 26 14 55.5t43 67.5q10 13 20.5 25.5t25.5 27.5t36.5 35t52.5 49q-19 -6 -32 -8t-27 -2q-24 0 -46 15z" />
    <glyph glyph-name="s" unicode="s" horiz-adv-x="286" 
d="M266 271q19 19 31 32.5t17 20.5q8 11 13 17.5t10 10t10.5 4.5t14.5 2t17 1.5t16 0.5q3 0 7.5 -0.5t12.5 -1.5q-13 -14 -18.5 -24.5t-10.5 -28.5l-32 -124q-8 -34 -27 -68t-43 -59q-29 -31 -61 -45.5t-71 -14.5q-31 0 -48.5 10.5t-17.5 29.5q0 13 9 25t19 12q4 0 4.5 -3.5
t0.5 -25.5q0 -14 7.5 -22.5t19.5 -8.5q29 0 61.5 27.5t55.5 73.5q7 15 13.5 30.5t13.5 38.5t16 56.5t22 84.5q-21 -22 -34 -35.5t-29.5 -31t-42 -44t-71.5 -73.5q-26 -27 -42 -43.5t-27.5 -27.5t-22.5 -19.5t-26 -19.5q-24 -18 -31.5 -22.5t-14.5 -4.5q-10 0 -10 9
q0 8 5.5 12.5t28.5 13.5q9 3 21.5 11t27 18.5t28.5 22.5t25 24z" />
    <glyph glyph-name="t" unicode="t" horiz-adv-x="218" 
d="M195 339l4 11h67l56 85q15 23 21 36.5t6 25.5v3l66 4q4 -5 4 -10q0 -10 -10 -29t-27 -42q-7 -9 -11.5 -15t-5.5 -8l-35 -50h62l-4 -11h-68l-124 -179q-31 -46 -44 -71.5t-13 -42.5q0 -10 6.5 -16.5t17.5 -6.5q29 0 75.5 36.5t94.5 97.5q35 44 40 44q2 0 2 -3t-5 -8
q-4 -5 -12.5 -14.5t-20.5 -24.5q-63 -78 -116.5 -117.5t-95.5 -39.5q-20 0 -34 14t-14 33q0 25 13.5 55t42.5 71l123 172h-61z" />
    <glyph glyph-name="u" unicode="u" horiz-adv-x="380" 
d="M502 355q0 -8 -1 -12.5t-3.5 -9.5t-7.5 -13t-15 -22l-100 -147q-8 -12 -15.5 -26t-13.5 -28.5t-9.5 -26.5t-3.5 -19q0 -11 6 -17.5t16 -6.5q16 0 42 19t66 61q5 6 16.5 19t23.5 27t21.5 25t10.5 13q2 5 5 5t3 -3t-7 -13t-19.5 -24.5t-28.5 -32.5t-34 -36
q-51 -53 -81.5 -73.5t-55.5 -20.5q-20 0 -32 13t-12 35q0 17 6.5 37t22.5 51q-64 -71 -108 -102t-79 -31q-20 0 -33 13.5t-13 36.5q0 19 11.5 48t28.5 55l90 131q11 16 18 31.5t7 23.5q0 5 -3 14l73 5q3 -9 3 -12q0 -25 -25 -61l-94 -134q-21 -31 -33 -56t-12 -39
q0 -9 7 -15t18 -6q28 0 69.5 36t90.5 104q34 46 54.5 75.5t31.5 48t15 29t4 19.5v7z" />
    <glyph glyph-name="v" unicode="v" horiz-adv-x="294" 
d="M305 351q-2 -19 -4.5 -27.5t-10.5 -21.5l-88 -126q-2 -3 -7.5 -12.5t-12 -21.5t-12.5 -24l-9 -18q-7 -14 -9 -22.5t-2 -18.5q0 -17 10 -27t25 -10q20 0 44 13t49 36.5t50.5 57t49.5 75.5q18 32 30 63t12 48q0 2 -0.5 5t-4.5 18q-1 2 -1 5q0 14 9.5 23t23.5 9q23 0 23 -26
t-19 -67.5t-53 -89.5q-33 -47 -66.5 -84t-66.5 -62.5t-63.5 -39.5t-56.5 -14t-42 18.5t-16 48.5q0 23 11.5 52t33.5 61l95 141q7 12 7 23v10z" />
    <glyph glyph-name="w" unicode="w" horiz-adv-x="481" 
d="M235 346l74 5q1 -4 1 -9q0 -8 -6 -22.5t-13 -24.5l-122 -169q-12 -17 -20 -38t-8 -36q0 -11 7.5 -17t19.5 -6q22 0 50.5 24.5t73.5 81.5q21 26 41.5 54.5t38.5 54t30.5 46.5t17.5 32q2 7 3.5 12t2.5 12l72 6q0 -23 -12 -39l-106 -155q-38 -56 -38 -94q0 -41 32 -41
q26 0 58 23.5t67 68.5q15 19 32 46t31 54t23.5 49.5t9.5 32.5l-5 30q-1 4 -1 11q0 14 10.5 24.5t24.5 10.5q22 0 22 -25q0 -23 -11 -53t-31 -64.5t-47.5 -70.5t-60.5 -70q-93 -96 -160 -96q-21 0 -36.5 15.5t-15.5 36.5q0 37 19 84q-31 -36 -56.5 -62t-47 -42.5t-40.5 -24
t-37 -7.5q-20 0 -32 15t-12 40q0 27 14.5 58.5t47.5 76.5t52 71.5t28 42t11.5 23t2.5 15.5v3.5t-1 5.5z" />
    <glyph glyph-name="x" unicode="x" horiz-adv-x="369" 
d="M324 352q-11 -26 -19 -47t-14 -41.5t-10 -41t-7 -45.5q7 6 12.5 11t13 12.5t19 20t30.5 33.5q52 59 89.5 85t68.5 26q14 0 24 -6.5t10 -14.5q0 -12 -12 -28t-30 -30q-10 11 -17 15.5t-16 4.5q-34 0 -83 -38.5t-109 -110.5q-3 -21 -3 -31q0 -17 5.5 -38t13.5 -35
q12 -20 33 -20q22 0 50 16t56 45q10 11 24 25.5t27.5 29.5t25 28t17.5 20q5 5 6 5q3 0 3 -2t-6.5 -10.5t-17.5 -21.5t-24.5 -28t-28.5 -30q-31 -32 -55 -54.5t-43.5 -36t-35 -19.5t-29.5 -6q-32 0 -51.5 28t-24.5 80q-31 -32 -52.5 -52.5t-37.5 -32t-29.5 -16t-27.5 -4.5
q-12 0 -21 8.5t-9 20.5q0 19 14.5 32.5t34.5 13.5q11 0 18 -15q3 -9 5 -11.5t7 -2.5q29 0 98 75q3 39 5 63t4.5 42t6.5 34t11 40q0 2 3 13q-38 -51 -57.5 -72.5t-24.5 -22.5q-4 0 -4 3q0 1 0.5 2t3.5 4.5t10 11.5t20 22q20 22 35.5 44t28.5 47z" />
    <glyph glyph-name="y" unicode="y" horiz-adv-x="343" 
d="M276 100q-32 -30 -56 -50t-43.5 -32.5t-35 -18t-29.5 -5.5q-51 0 -51 52q0 10 3.5 24t9 29t13 29.5t15.5 25.5l106 146q7 10 11.5 21t4.5 19l-1 8l71 5q2 -5 2 -9q0 -8 -4.5 -19.5t-12.5 -21.5l-95 -132q-28 -39 -43.5 -69.5t-15.5 -46.5q0 -11 8 -18t20 -7q15 0 37 13
t48 37t55 58t59 76q21 28 34 48.5t21.5 35.5t12 27t4.5 24l73 2q1 -3 1 -8q0 -7 -6 -19t-22 -35l-234 -347q-55 -81 -136 -127t-170 -46q-47 0 -74.5 14.5t-27.5 40.5q0 16 10.5 27t24.5 11q10 0 17.5 -5t7.5 -12q0 -3 -1 -5t-6 -10q-4 -7 -4 -13q0 -16 17.5 -26.5
t42.5 -10.5q84 0 162 78q8 8 18.5 20l21 24t19.5 23t12 16z" />
    <glyph glyph-name="z" unicode="z" horiz-adv-x="306" 
d="M391 270q4 2 8 4.5t9 7t13 11.5t22 19q-15 -4 -27.5 -6.5t-25 -4t-27 -1.5h-32.5q-36 0 -57.5 -1t-36 -4.5t-25.5 -11t-25 -19.5q-6 -6 -9 -6q-4 0 -4 4q0 2 5 9t11 13q19 20 29.5 31t17 16.5t12 8.5t14.5 6q13 5 31 8t38 3h11.5t13.5 -1.5t24.5 -4t43.5 -6.5
q5 -1 11 -1.5t12 -0.5q14 0 28 3t26 9q6 2 8 2q7 0 7 -7q0 -5 -9 -9q-24 -11 -29 -15q-5 -3 -14 -12.5t-23 -23.5q-33 -32 -57 -55t-44.5 -40t-40 -30t-44 -25.5t-57 -26t-77.5 -32.5q-5 -2 -19.5 -13.5t-36.5 -29.5q29 12 46 16.5t33 4.5q30 0 110 -16q9 -2 16 -3t12 -1
q32 0 66 24t73 75q10 14 14 14q3 0 3 -3q0 -2 -5.5 -9.5t-14 -18t-18 -21.5t-16.5 -18q-45 -46 -83 -67t-75 -21q-3 0 -6.5 0.5t-15 2.5t-35.5 6.5t-68 12.5q-3 1 -8 1h-11q-17 0 -31 -3.5t-22 -10.5q-7 -6 -10 -6q-4 0 -4 7q0 6 11 17q10 9 19 18.5t19 19.5q47 50 87.5 83
t84.5 57z" />
    <glyph glyph-name="exclamdown" unicode="&#xa1;" horiz-adv-x="209" 
d="M396 480q11 0 19 -8.5t7 -19.5q-1 -12 -8 -24t-17 -21.5t-22 -15.5t-23 -6t-19 8t-8 19q0 12 6.5 24.5t16.5 22t22.5 15.5t25.5 6zM166 56q-59 -104 -97 -150t-63 -46q-20 0 -20 21q0 22 13.5 50.5t39.5 62.5q28 36 43.5 56t23 29.5t9.5 12t3 3.5l203 251q6 8 10 8
q2 0 2 -3q0 -5 -5 -13z" />
    <glyph glyph-name="cent" unicode="&#xa2;" horiz-adv-x="289" 
d="M176 63q-7 -10 -12 -18t-6 -10q-11 -21 -16.5 -28t-12.5 -7q-5 0 -10 4q7 14 10 17q14 20 27 40t27 40v1l-30 31q-11 10 -11 35q0 77 79 158q21 21 40 36.5t40 27t46.5 21t58.5 18.5q10 14 17 24t11 17q17 29 25.5 39.5t16.5 10.5q3 0 6 -1q0 -3 -0.5 -5t-4 -8t-11 -16.5
t-21.5 -29.5q-5 -8 -8.5 -14t-7.5 -14l4 -2q31 -9 38.5 -13.5t7.5 -15.5q0 -17 -12 -32.5t-30 -23.5l-7 8q3 11 4 18t1 13q0 14 -8.5 22.5t-20.5 8.5q-31 0 -73 -35.5t-87 -97.5q-46 -67 -46 -108q0 -22 12.5 -33.5t35.5 -11.5q19 0 35 4.5t33 16t37.5 31.5t47.5 52h7
q-3 -14 -22 -35t-43 -41t-47.5 -34t-36.5 -14q-53 -6 -59 -10q-1 -1 -3.5 -4.5t-5.5 -8.5z" />
    <glyph glyph-name="sterling" unicode="&#xa3;" horiz-adv-x="580" 
d="M274 274v6q0 4 6 6q1 1 5 1h30l33 1q17 1 21 1.5t6 2.5q8 6 18 29q6 13 21 35.5t34 48t39 49.5t36 41q56 60 112.5 91.5t108.5 31.5q35 0 55.5 -17.5t20.5 -47.5q0 -34 -17.5 -68.5t-46 -61.5t-63.5 -44t-69 -17l-1 4q0 3 10 6q19 5 45 24.5t49 45.5q52 59 52 117
q0 44 -43 44q-34 0 -75 -29q-12 -9 -20 -15.5t-16 -15t-18.5 -22t-28.5 -36.5q-11 -15 -17.5 -23t-9.5 -12.5t-4.5 -6.5t-2.5 -4l-90 -151q14 -1 26 -1.5t17 -1.5q9 -1 16 -1h13t16 2q4 1 9 1q2 0 7 -3q-1 -8 -5 -12q-2 0 -3 -1l-107 -3q-4 0 -9.5 -9t-12.5 -25
q-20 -30 -32 -48.5t-23.5 -34t-26.5 -32t-39 -42.5l-3 -4q54 -17 97.5 -25t81.5 -8q19 0 38 5.5t33 15.5q1 1 2.5 2t4 4t7 8l13.5 15q2 2 4 2q6 0 6 -5q0 -4 -1.5 -7.5t-6.5 -9t-13.5 -14.5t-23.5 -23q-20 -19 -52 -31t-63 -12q-10 0 -17.5 0.5t-18.5 2.5v5l-1 -5
q-6 0 -17.5 2.5t-25 6t-26.5 8t-20 7.5q-32 16 -43 16l-78 -29q-13 -5 -31 -7.5t-39 -2.5q-30 0 -48.5 9t-18.5 25q0 9 11.5 19.5t29 18.5t38.5 13.5t41 5.5h3l65 -1q14 0 21.5 5.5t18.5 25.5q0 2 10.5 17.5t22.5 32.5q20 28 37 57t25 51zM206 50q-15 6 -26.5 8t-26.5 2
q-30 0 -46 -7.5t-25 -24.5q7 -11 15.5 -14.5t24.5 -3.5q20 0 43 10.5t43 27.5z" />
    <glyph glyph-name="fraction" unicode="&#x2044;" horiz-adv-x="443" 
d="M780 690q8 0 14 -3.5t6 -8.5q0 -6 -16 -24.5t-36 -37.5q-18 -16 -31.5 -28.5t-32 -28.5t-46 -38t-72.5 -57t-111.5 -87.5t-162.5 -127.5q-59 -46 -114 -99.5t-96 -104.5q-10 -14 -16.5 -22.5t-11 -13t-9 -6t-9.5 -1.5q-9 0 -15.5 5t-6.5 12q0 14 40 57q17 19 31 33.5
t34 32t50.5 42.5t81.5 64.5t126 97.5t185 142q10 6 34.5 27.5t51.5 48t51.5 51.5t33.5 37q18 24 26.5 31t20.5 7z" />
    <glyph glyph-name="yen" unicode="&#xa5;" horiz-adv-x="794" 
d="M644 158q-19 -17 -32.5 -29.5t-18.5 -17.5q-76 -73 -132.5 -106t-104.5 -33q-35 0 -55 20.5t-20 55.5q0 23 6.5 42.5t25.5 50.5q7 12 16 26.5t18.5 28.5t18 26t14.5 19l126 152q14 17 33 47.5t42 73.5q12 23 16.5 37t4.5 29q0 26 -17 40t-49 14q-38 0 -82 -15.5
t-86.5 -42.5t-81.5 -63t-67 -77q-27 -39 -43 -77.5t-16 -62.5q0 -34 20 -53t55 -19q55 0 106 51q6 4 8 4q3 0 3 -4q0 -11 -31 -38q-35 -31 -63 -44t-58 -13q-48 0 -74 24.5t-26 70.5q0 40 23 87t66 97q37 43 81 77.5t90.5 59t94.5 37.5t93 13q56 0 86.5 -24.5t30.5 -68.5
q0 -14 -2 -25.5t-6.5 -23.5t-12 -26.5t-19.5 -32.5q-11 -16 -26.5 -37.5t-28.5 -38.5l-96 -121q-35 -45 -57.5 -75.5t-35 -52t-17 -38t-4.5 -32.5q0 -17 12.5 -28.5t31.5 -11.5q40 0 98.5 39.5t122.5 108.5h-104q-14 0 -14 7q0 3 1 5t5.5 3t14.5 1h28h84l44 48h-139
q-14 0 -14 7q0 3 1 5t5.5 3t14.5 1h29h117l7.5 7.5t5.5 6.5q5 5 11 13q3 4 6 6l206 286q2 2 3.5 4.5t3.5 5.5q10 19 14.5 23t14.5 4h16t21 2q8 2 31 3l7 1h4l-254 -362h133q24 -2 28 -2.5t4 -4.5q0 -7 -5.5 -8t-33.5 -1h-137l-33 -48h153q23 -2 27 -2.5t4 -4.5q0 -7 -5 -8
t-33 -1h-158l-72 -103q-3 -4 -14 -18.5t-27 -33.5t-33.5 -41.5t-33.5 -41.5t-28 -33.5t-16 -18.5q-32 -34 -72 -61.5t-85.5 -47t-93.5 -30t-95 -10.5q-67 0 -106 21t-39 58q0 22 17.5 38t41.5 16q15 0 26 -8.5t11 -20.5q0 -5 -2.5 -8.5t-16.5 -16.5q-4 -6 -4 -14
q0 -23 27 -37.5t69 -14.5q61 0 120 34.5t125 106.5q21 24 37.5 43.5t38.5 48.5t55 74t86 119h-11zM666 174l7 9q-5 -4 -6 -5t-5 -4h4z" />
    <glyph glyph-name="florin" unicode="&#x192;" horiz-adv-x="235" 
d="M163 344l7 12h70q8 10 13 16t7 10q33 43 53 68t36 42t32 30t40 32q99 76 163 76q22 0 22 -19q0 -3 -0.5 -5.5t-2 -5.5t-5 -8.5t-9.5 -15.5q-11 -15 -13.5 -18t-5.5 -3q-7 0 -5 9l1 6q2 11 -8.5 21t-23.5 10q-38 0 -91 -62q-35 -42 -69.5 -89t-63.5 -94h71l-5 -12h-75
l-182 -293q-24 -39 -53 -76.5t-60 -69.5t-62 -58t-61 -42q-38 -22 -81 -35t-78 -13q-48 0 -74.5 15.5t-26.5 42.5q0 17 11.5 28.5t28.5 11.5q11 0 18.5 -6.5t7.5 -15.5q0 -5 -2 -7.5t-10 -9.5q-2 -2 -2 -6q0 -17 17 -28.5t43 -11.5q67 0 145 73t177 228l172 273h-66z" />
    <glyph glyph-name="section" unicode="&#xa7;" horiz-adv-x="459" 
d="M226 202q-12 27 -12 65q0 57 29 105.5t79 74.5q11 6 22.5 11.5t27.5 11.5q0 43 18.5 80t51 65t76.5 44t94 16q56 0 89 -26t33 -71q0 -29 -12 -55.5t-32 -46.5t-46 -32.5t-53 -12.5q-11 0 -20 4t-9 9q0 4 4 4q1 0 7 -2q10 -5 20 -5q19 0 37.5 10.5t33.5 28t24 39t9 44.5
q0 43 -28.5 69t-76.5 26q-32 0 -59.5 -11.5t-47 -32t-30.5 -49t-11 -61.5q0 -40 11 -64l57 -130q12 -29 12 -65q0 -57 -29 -105t-80 -75q-11 -6 -22.5 -11t-26.5 -12q0 -42 -19 -79.5t-51.5 -65.5t-76.5 -44t-94 -16q-56 0 -89 26t-33 71q0 28 12 55t32 47t46 32.5t53 12.5
q11 0 20 -4t9 -9q0 -4 -4 -4q-1 0 -7 2q-10 5 -20 5q-19 0 -37.5 -10.5t-33.5 -28t-24 -39.5t-9 -44q0 -43 28.5 -69t75.5 -26q33 0 60 11.5t47 32t31 49t11 62.5q0 39 -10 64zM358 86q3 -7 5 -18q87 52 87 153q0 31 -9 52l-62 153q-2 5 -3 9t-2 10q-86 -53 -86 -154
q0 -31 8 -52z" />
    <glyph glyph-name="quotedblleft" unicode="&#x201c;" horiz-adv-x="255" 
d="M479 538q8 2 12 2.5t9 0.5q27 0 27 -25q0 -11 -6.5 -23t-16 -21.5t-22 -15.5t-24.5 -6q-13 0 -21 9.5t-8 23.5q0 15 8.5 34.5t22 38t31 34t34.5 23.5q5 2 13.5 4t13.5 2q3 0 3 -3q0 -4 -7 -7q-25 -12 -40.5 -28t-28.5 -43zM354 539q8 2 12 2h9q27 0 27 -25
q0 -11 -6.5 -22.5t-16 -21t-22 -15.5t-24.5 -6q-13 0 -21 9.5t-8 23.5q0 15 8.5 34.5t22.5 38t31 34t35 23.5q5 2 13.5 4t13.5 2q3 0 3 -3q0 -4 -7 -7q-24 -11 -40 -27.5t-30 -43.5z" />
    <glyph glyph-name="guillemotleft" unicode="&#xab;" horiz-adv-x="283" 
d="M418 365q5 0 5 -4q0 -2 -1.5 -3.5l-12.5 -12.5q-56 -60 -79.5 -93t-23.5 -53q0 -16 5.5 -41.5t14.5 -50.5q5 -12 5.5 -14.5t0.5 -4.5q0 -3 -3 -3q-5 0 -33 48q-22 34 -29 49.5t-7 27.5q0 7 4 15q5 8 18.5 22.5t31.5 31.5t38.5 34.5t39.5 32.5q8 6 13 10t8 6q3 3 5 3z
M300 363q5 0 5 -4q0 -2 -2 -4l-12 -12q-8 -9 -19.5 -21.5t-23 -26t-22 -26.5t-17.5 -22q-21 -27 -21 -50q0 -16 6 -41.5t15 -50.5q4 -11 5 -14t1 -5q0 -3 -3 -3q-1 0 -4 3q-2 4 -11 16q-55 78 -55 106q0 7 4 15q5 8 18 22t30.5 31t38 34.5t41.5 33.5q18 13 21 16t5 3z" />
    <glyph glyph-name="guilsinglleft" unicode="&#x2039;" horiz-adv-x="164" 
d="M311 353q9 5 10 5q3 0 3 -3q0 -2 -2.5 -5t-19.5 -17q-6 -5 -18 -16.5t-25.5 -25t-26 -25.5t-17.5 -18q-13 -15 -19 -35.5t-6 -50.5l2 -69q0 -3 -2 -3t-4 5q-2 3 -3 11q-5 15 -9.5 33.5t-8.5 36t-6.5 31.5t-2.5 20q0 27 24 43z" />
    <glyph glyph-name="guilsinglright" unicode="&#x203a;" horiz-adv-x="179" 
d="M219 363q2 0 34 -48q21 -33 28.5 -49t7.5 -28q0 -7 -4 -15q-5 -8 -18.5 -22.5t-31.5 -32t-38.5 -35t-39.5 -31.5q-18 -13 -21 -16t-5 -3q-5 0 -5 4q0 2 4 5q62 66 87.5 101t25.5 56q0 16 -6 41.5t-15 49.5q-4 11 -5 14.5t-1 5.5q0 3 3 3z" />
    <glyph glyph-name="endash" unicode="&#x2013;" horiz-adv-x="368" 
d="M406 229q10 0 19 3t24 11q4 2 6 2q5 0 5 -6q0 -7 -8 -17.5t-19 -18.5q-17 -13 -41.5 -20t-51.5 -7q-8 0 -23.5 1t-33.5 2.5t-37 3t-34 3.5q-12 1 -19.5 1.5t-15.5 0.5h-8t-8 -1.5t-13 -4.5t-22 -9q-2 -1 -6 -1q-5 0 -5 5q0 7 15.5 21t32.5 24q37 21 89 21h10t18.5 -1.5
l40.5 -4.5t76 -8h9z" />
    <glyph glyph-name="quotesinglbase" unicode="&#x201a;" horiz-adv-x="157" 
d="M97 2q-8 -1 -13.5 -1.5t-8.5 -0.5q-27 0 -27 25q0 11 6.5 22.5t16.5 21t22 15.5t24 6q13 0 21.5 -9.5t8.5 -23.5q0 -20 -12.5 -43.5t-31 -44t-40.5 -34t-40 -13.5q-3 0 -3 3q0 4 7 7q25 11 40.5 27t29.5 43z" />
    <glyph glyph-name="quotedblbase" unicode="&#x201e;" horiz-adv-x="287" 
d="M95 2q-8 -2 -12.5 -2h-9.5q-27 0 -27 25q0 11 6.5 22.5t16.5 21t22 15.5t24 6q13 0 21.5 -9.5t8.5 -23.5q0 -15 -8.5 -34t-22.5 -37.5t-31 -34t-35 -23.5q-5 -2 -13.5 -4t-13.5 -2q-3 0 -3 3q0 4 7 7q25 12 40.5 27.5t29.5 42.5zM219 1l-12 -1.5t-9 -0.5q-27 0 -27 24
q0 11 6.5 23t16 21.5t22 15.5t24.5 6q13 0 21 -9.5t8 -23.5q0 -20 -12.5 -44t-31 -44t-40 -33.5t-39.5 -13.5q-3 0 -3 3q0 4 7 7q25 11 40 27t29 43z" />
    <glyph glyph-name="quotedblright" unicode="&#x201d;" horiz-adv-x="249" 
d="M389 532q-8 -2 -12.5 -2h-9.5q-27 0 -27 25q0 11 6.5 22.5t16.5 21t22 15.5t24 6q13 0 21.5 -9.5t8.5 -23.5q0 -15 -8.5 -34.5t-22.5 -38t-31 -34t-35 -23.5q-5 -2 -13.5 -4t-13.5 -2q-3 0 -3 3q0 4 7 7q25 12 40.5 28t29.5 43zM513 531q-8 -2 -12 -2h-9q-27 0 -27 24
q0 11 6.5 23t16 21.5t22 15.5t24.5 6q13 0 21 -9.5t8 -23.5q0 -20 -12.5 -44t-31 -44t-40 -33.5t-39.5 -13.5q-3 0 -3 3q0 4 7 7q24 11 39.5 27t29.5 43z" />
    <glyph glyph-name="guillemotright" unicode="&#xbb;" horiz-adv-x="281" 
d="M214 363q2 0 34 -48q21 -33 28.5 -49t7.5 -28q0 -7 -4 -15q-5 -8 -18.5 -22.5t-31.5 -32t-38.5 -35t-39.5 -31.5q-18 -13 -21 -16t-5 -3q-5 0 -5 4q0 2 4 5q62 66 87.5 101t25.5 56q0 16 -6 41.5t-15 49.5q-4 11 -5 14.5t-1 5.5q0 3 3 3zM336 365q2 0 34 -48
q21 -33 28.5 -49t7.5 -28q0 -7 -4 -15q-5 -8 -18.5 -22.5t-31.5 -32t-38.5 -35t-39.5 -31.5q-18 -13 -21 -16t-5 -3q-5 0 -5 4q0 2 4 5q62 66 87.5 101t25.5 56q0 16 -6 41.5t-15 49.5q-4 11 -5 14.5t-1 5.5q0 3 3 3z" />
    <glyph glyph-name="ellipsis" unicode="&#x2026;" horiz-adv-x="383" 
d="M104 97q12 0 20 -7t8 -18q0 -13 -6.5 -25.5t-16.5 -23t-22.5 -17t-24.5 -6.5q-11 0 -20 8t-9 19q0 12 6.5 24.5t16.5 22.5t23 16.5t25 6.5zM230 98q12 0 20 -7t8 -18q0 -13 -6.5 -26t-16.5 -23.5t-22.5 -17t-24.5 -6.5q-11 0 -20 8t-9 19q0 12 6.5 25t16.5 23t23 16.5
t25 6.5zM358 98q12 0 20 -7t8 -18q0 -13 -6 -26t-16 -23.5t-22.5 -17t-25.5 -6.5q-11 0 -19.5 8t-8.5 19q0 12 6.5 25t16.5 23t22.5 16.5t24.5 6.5z" />
    <glyph glyph-name="perthousand" unicode="&#x2030;" horiz-adv-x="760" 
d="M234 167q-41 -32 -67.5 -53t-46.5 -38t-36.5 -33.5t-37.5 -38.5q-6 -7 -17 -7q-6 0 -10.5 2.5t-4.5 5.5q0 6 16.5 23.5t45 41.5t66.5 53t80 59q45 32 78.5 56t61 44.5t52.5 39.5t52.5 41t60.5 49l77 63q-27 -11 -44 -18t-29 -11t-20.5 -5t-17.5 -1q-10 0 -34 7
q-25 -26 -39 -40.5t-26 -24.5q-24 -20 -55 -32.5t-59 -12.5q-27 0 -43.5 16.5t-16.5 44.5q0 36 23 75t59 71.5t78.5 54t81.5 21.5q8 0 18 -2.5t16 -6.5q15 -10 15 -45q0 -26 -9 -42q-13 -24 -20 -39.5t-7 -19.5t6.5 -7.5t13.5 -3.5q45 0 113 42q12 7 24 15.5t26 19.5
t31 25.5t40 34.5q25 23 37 23q8 0 8 -6q0 -12 -31 -35q-13 -10 -42.5 -35t-74.5 -65q-49 -43 -101.5 -85.5t-110.5 -85.5zM444 462q-1 5 -1.5 9t-0.5 9q0 37 27 63l15.5 15.5t8 8.5t3 5.5t0.5 6.5q0 14 -8 22.5t-21 8.5q-26 0 -59 -23t-62 -57t-49 -71.5t-20 -67.5
q0 -14 9.5 -22t26.5 -8q37 0 89 48q28 27 42 53zM503 263q51 -3 51 -49q0 -38 -20.5 -77.5t-52 -72t-70.5 -53t-76 -20.5q-26 0 -42.5 17.5t-14.5 43.5q2 35 25 73t56.5 69t72 50.5t71.5 18.5zM512 251q-47 3 -122 -93q-31 -40 -44 -65.5t-13 -48.5q0 -14 10.5 -23.5
t24.5 -7.5q27 3 57 25t54.5 53t41 66.5t16.5 65.5q0 26 -25 28zM758 263q51 -3 51 -49q0 -38 -20.5 -77.5t-52 -72t-71 -53t-76.5 -20.5q-26 0 -42.5 17.5t-14.5 44.5q2 34 25.5 72t57 69t72 50.5t71.5 18.5zM767 251q-48 3 -123 -93q-31 -40 -44 -65.5t-13 -48.5
q0 -14 10.5 -23.5t24.5 -7.5q27 3 57 25t55 53t41.5 66.5t16.5 65.5q0 26 -25 28z" />
    <glyph glyph-name="questiondown" unicode="&#xbf;" horiz-adv-x="457" 
d="M539 489q13 0 22.5 -10.5t7.5 -24.5q-1 -13 -7 -25.5t-15.5 -22t-20.5 -15.5t-23 -6q-14 0 -23 8t-9 20q0 14 6 27.5t15.5 24.5t21.5 17.5t25 6.5zM460 335q8 0 8 -8q0 -9 -10 -26.5t-27 -35.5q-12 -14 -21 -22.5t-28 -21.5t-54 -33.5t-98 -57.5q-8 -4 -19 -12.5
t-22.5 -19l-23 -21t-18.5 -18.5q-20 -23 -31.5 -51t-11.5 -53q0 -35 22 -55t62 -20q33 0 66.5 16.5t60.5 42.5t44.5 58t17.5 64q0 12 -4.5 17.5t-22.5 13.5q-7 2 -7 8q0 8 12 14.5t26 6.5q21 0 36.5 -16t15.5 -39q0 -37 -22.5 -73.5t-59 -65t-82.5 -46t-93 -17.5
q-67 0 -104.5 28t-37.5 78q0 45 28 87t81 78q13 9 23 15t28 14t50 21.5t91 37.5q32 13 62.5 37.5t42.5 47.5q8 17 11.5 22t8.5 5z" />
    <glyph glyph-name="grave" unicode="`" horiz-adv-x="207" 
d="M376 516q0 -65 21 -114q6 -14 10 -22t5.5 -12t2 -5.5t0.5 -2.5q0 -4 -3 -4t-7 6q-1 2 -3.5 5t-6.5 8q-17 24 -27 38t-18 26.5t-16.5 27.5t-21.5 41q0 2 -4 8h68z" />
    <glyph glyph-name="acute" unicode="&#xb4;" horiz-adv-x="220" 
d="M471 513q-10 -14 -35.5 -35t-56.5 -42.5t-63.5 -40t-56.5 -27.5q-7 -3 -11.5 -5t-6.5 -3q-7 -4 -9 -4q-5 0 -5 3q0 1 1 2t6 4.5t15.5 10t30.5 18.5q50 36 79 67.5t33 52.5z" />
    <glyph glyph-name="circumflex" unicode="&#x2c6;" horiz-adv-x="222" 
d="M273 379q-33 -21 -34 -21q-3 0 -3 3t3.5 7.5t13.5 12.5l116 103q13 12 21.5 16.5t18.5 4.5q11 0 18.5 -5t7.5 -13q0 -4 -1.5 -8.5t-9.5 -29.5l-21 -62q-7 -22 -8 -25.5t-3 -4.5q-4 -2 -4 10l1 87z" />
    <glyph glyph-name="tilde" unicode="&#x2dc;" horiz-adv-x="289" 
d="M485 482q12 0 20 -7.5t8 -19.5q0 -14 -9 -27t-24 -23t-35 -16t-42 -6q-6 0 -11 0.5t-15.5 3t-30 7.5t-54.5 15q-2 1 -6 1q-8 0 -14.5 -3.5t-20.5 -17.5h-1q-4 0 -4 4q0 1 0.5 2.5t2.5 4t6.5 7l12.5 12.5q13 12 24.5 17t25.5 5q5 0 9 -0.5t14 -3t28.5 -8t53.5 -15.5
q10 -3 22 -3q19 0 30.5 11.5t11.5 30.5q0 16 -7 29h5z" />
    <glyph glyph-name="macron" unicode="&#xaf;" horiz-adv-x="211" 
d="M266 406q-3 0 -7 6q6 22 26 36t44 14h2.5t8 -0.5t20 -1.5t39.5 -2h5q15 0 34 4q3 -6 3 -8q0 -19 -24.5 -34t-55.5 -15h-9t-9 1q-39 6 -49 6q-2 0 -5.5 -0.5t-21.5 -5.5h-1z" />
    <glyph glyph-name="breve" unicode="&#x2d8;" horiz-adv-x="198" 
d="M391 437q-16 -15 -27 -24.5t-19.5 -15t-16 -7.5t-16.5 -2q-12 0 -21 9.5t-9 21.5v8t1.5 8t4.5 13t9 22l11 31q4 12 5.5 14t3.5 2t2 -3q0 -1 -2 -9q-3 -12 -3 -29q0 -35 23 -35q14 0 38.5 14t72.5 49q8 7 12 9t6 2q5 0 5 -4t-6 -8z" />
    <glyph glyph-name="dotaccent" unicode="&#x2d9;" horiz-adv-x="114" 
d="M315 471q11 0 17.5 -6t6.5 -15q0 -21 -13.5 -36t-30.5 -15q-11 0 -18.5 8.5t-6.5 19.5q1 17 14.5 30.5t30.5 13.5z" />
    <glyph glyph-name="dieresis" unicode="&#xa8;" horiz-adv-x="198" 
d="M313 471q11 0 17.5 -6t6.5 -15q0 -21 -13.5 -36t-30.5 -15q-11 0 -18.5 8.5t-6.5 19.5q1 17 14.5 30.5t30.5 13.5zM407 472q23 0 23 -23q0 -20 -13 -35t-30 -15q-10 0 -17.5 8.5t-6.5 19.5q1 17 14.5 31t29.5 14z" />
    <glyph glyph-name="ring" unicode="&#x2da;" horiz-adv-x="153" 
d="M326 474q-15 0 -26.5 -12t-11.5 -28t11 -26.5t27 -10.5t27 11t11 27t-11 27.5t-27 11.5zM271 435q0 23 15.5 39t38.5 16t39 -16.5t16 -38.5q0 -23 -15.5 -38.5t-38.5 -15.5q-22 0 -38.5 15.5t-16.5 35.5v3z" />
    <glyph glyph-name="cedilla" unicode="&#xb8;" horiz-adv-x="178" 
d="M-24 -117q-11 -14 -11 -22t8.5 -13.5t22.5 -5.5q22 0 40 17t18 38q0 11 -6 18.5t-32 28.5l-4 2l116 96q-5 -5 -5.5 -8l-1.5 -9l-67 -59q2 -3 5 -6q10 -10 15 -16t7.5 -10t3 -8t0.5 -10q0 -34 -25 -56q-18 -15 -41.5 -24.5t-44.5 -9.5q-18 0 -32.5 12t-14.5 28
q0 13 9 21.5t23 8.5q10 0 21 -8z" />
    <glyph glyph-name="hungarumlaut" unicode="&#x2dd;" horiz-adv-x="300" 
d="M447 536q-3 -4 -3.5 -5t-2.5 -3q-14 -20 -34 -42.5t-44 -44t-49.5 -41t-50.5 -34.5q-13 -8 -15 -10q-8 -5 -11 -5q-7 0 -7 5q0 4 4 7q26 19 50 42t42 45.5t28 42t9 30.5zM551 535q-6 -14 -26 -37t-47 -47.5t-56.5 -48t-53.5 -37.5q-13 -8 -15 -10q-9 -5 -11 -5q-7 0 -7 6
q0 3 4 6q26 19 50 42.5t42 45.5t28 41t9 31z" />
    <glyph glyph-name="ogonek" unicode="&#x2db;" horiz-adv-x="171" 
d="M78 -8q-48 -14 -48 -51q0 -16 11 -26.5t27 -10.5q12 0 21.5 10t8.5 23q0 3 -1 5q24 -14 24 -36q0 -15 -15.5 -27t-35.5 -12q-26 0 -44 19.5t-18 46.5q0 24 12.5 41t41.5 31z" />
    <glyph glyph-name="caron" unicode="&#x2c7;" horiz-adv-x="200" 
d="M441 497l34 20q3 0 3 -3t-3 -7t-14 -13l-116 -103q-14 -12 -22.5 -16.5t-17.5 -4.5q-11 0 -18.5 5t-7.5 13q0 4 1.5 10.5t9.5 27.5l21 62q7 23 8 26.5t3 3.5q4 0 4 -10l-2 -86z" />
    <glyph glyph-name="emdash" unicode="&#x2014;" horiz-adv-x="514" 
d="M231 212q-5 1 -17 1q-48 0 -67 -24q-5 -6 -7 -6q-4 0 -4 5q0 6 9.5 15.5t25.5 18.5q40 23 88 23h10.5t23 -1.5t52 -4.5t97.5 -9q8 -1 19 -1h25q32 0 54 2.5t40 7.5q4 1 6.5 2t5.5 3t6.5 5.5t10.5 9.5q2 2 5 2q6 0 6 -4q0 -3 -4.5 -9t-12 -13t-16 -13t-15.5 -10
q-14 -7 -27 -11.5t-28 -7.5t-33 -4t-41 -1q-12 0 -21.5 0.5t-16.5 1.5z" />
    <glyph glyph-name="AE" unicode="&#xc6;" horiz-adv-x="1310" 
d="M924 515q2 2 4.5 4t11.5 10t26.5 23.5t49.5 44.5q34 30 70 53.5t66 34.5q10 4 28 8.5t37 8.5t36.5 6.5t26.5 2.5l241 -5q33 0 47 2t24 9l4 2q2 0 2 -3q0 -7 -14 -16t-34.5 -17t-43 -13t-39.5 -5l-165 2l-434 -627q27 3 32 3l233 -7q13 0 30.5 2.5t36 7t35.5 9.5t28 11
q62 31 62 81q0 5 -1 13t-3 16.5t-4 16t-3 10.5q-2 6 -2 7q0 3 4 3q10 0 18 -22.5t8 -49.5q0 -35 -17 -69t-48 -59q-44 -37 -120 -37q-21 0 -42 3l-150 20q-3 0 -9 0.5t-17 0.5h-30h-48h-114l230 315h-216l-169 -182q-11 -11 -29 -27t-38.5 -32.5t-41 -32.5t-36.5 -26
q-35 -23 -76.5 -36t-77.5 -13q-37 0 -67.5 12.5t-52.5 34.5t-34 53t-12 68q0 64 31 128t80.5 115t112 83t124.5 32q51 0 82 -32t31 -84q0 -35 -11.5 -62.5t-36.5 -51.5q-8 -9 -16 -15t-10 -6q-3 0 -3 4q0 3 3 6q17 16 28 44.5t11 55.5q0 46 -32 75.5t-83 29.5t-97.5 -23
t-82.5 -61.5t-57.5 -89t-21.5 -104.5q0 -31 10.5 -57t29.5 -45t45.5 -29.5t57.5 -10.5q18 0 33.5 2.5t32 8t34.5 15t41 24.5q45 29 88.5 63t74.5 65l101 101h-58q-14 0 -14 5q0 11 28 11h58zM1255 423q6 0 13.5 -0.5t19.5 -1.5t31 -3t49 -5q10 -1 18 -1.5t16 -0.5
q14 0 21.5 4t19.5 17q6 6 10 6t4 -4q0 -9 -17 -29q-17 -19 -41 -31t-47 -12h-3t-12 1.5t-30 4t-57 7.5q-5 1 -10 1h-11q-78 0 -105 -50q-3 -4 -5 -4q-3 0 -5.5 2.5t-1.5 4.5q0 3 3.5 8.5t8 12l9 13t8.5 9.5q51 51 114 51zM993 331q53 73 89.5 123t60 83.5t36 52.5t18.5 29.5
t7 16.5t1 12q0 11 -9.5 17t-23.5 6q-18 0 -45 -12.5t-58 -34t-65.5 -52t-67.5 -66.5l-163 -175h220z" />
    <glyph glyph-name="ordfeminine" unicode="&#xaa;" horiz-adv-x="387" 
d="M590 696l53 2l-108 -157q-11 -15 -19 -35t-8 -31q0 -14 13 -14q31 0 89 70q3 3 5 5.5t5.5 7t9 11.5t15.5 21l9 12q1 0 1 0.5t1 0.5l1 1q3 0 3 -3t-11.5 -18t-42.5 -51q-69 -81 -113 -81q-28 0 -28 34q0 12 2.5 22.5t8.5 26.5q-23 -24 -40 -40t-30.5 -25.5t-25.5 -13
t-24 -3.5q-20 0 -32 13.5t-12 36.5q0 55 52 115q38 44 85.5 71.5t85.5 27.5q29 0 36 -34zM539 694q-20 3 -51 -19t-60.5 -55t-50.5 -69.5t-21 -61.5q0 -11 8.5 -19t19.5 -7q15 2 35 14.5t40 35.5q5 6 15.5 19.5t22.5 30t23 32.5t18 27q20 29 20 51q0 18 -19 21zM497 388
q19 -1 29 -1.5t15.5 -1t8.5 -0.5h6q10 0 18 2q1 1 2 1q5 0 5 -8t-6.5 -16t-16 -14t-21.5 -9.5t-23 -3.5l-22 1l-172 1l-21 1q-5 1 -8 1h-5q-5 0 -8 -1q-17 -5 -18 -5q-2 0 -4.5 3t-2.5 5t5 9.5t10 12.5q8 9 21.5 14.5t27.5 6.5z" />
    <glyph glyph-name="Lslash" unicode="&#x141;" horiz-adv-x="760" 
d="M564 227l59 16q2 1 8 1q8 0 8 -6q0 -3 -0.5 -5t-5 -3.5t-14 -4.5t-26.5 -7l-53 -15q-16 -21 -28.5 -37t-26 -30t-29 -28.5t-36.5 -32.5q7 -4 11 -6t24 -9q6 -2 10.5 -4t12 -5t21 -8.5t38.5 -15.5q34 -14 58.5 -19.5t49.5 -5.5q61 0 115 74q50 68 50 132q0 26 -13 48
q-1 2 -1 4q0 3 3 3q5 0 11 -8t11.5 -20t9 -26t3.5 -25q0 -44 -18 -81t-50 -64t-75 -42t-94 -15q-25 0 -48 2.5t-49 9t-57.5 17.5t-72.5 27q-35 -15 -61.5 -24t-49 -14.5t-44 -7.5t-47.5 -2q-24 0 -45.5 4.5t-37.5 12t-25.5 17.5t-9.5 22q0 29 46.5 47t121.5 18q18 0 33.5 -1
t31.5 -3t35 -6t44 -10q11 9 19.5 17.5t16.5 17.5t17 20.5t21 28.5l-68 -18l-10 -2q-5 -1 -11 -3q-2 -1 -3 -1h-1q-7 0 -7 7q0 6 4.5 8t30.5 9l80 22q9 14 17 27t19 30l23 38h-35q-93 0 -147.5 39.5t-54.5 105.5q0 43 23.5 83.5t62 71.5t88.5 49.5t103 18.5q27 0 44 -6
t17 -17q0 -6 -8 -6q-4 0 -13 5q-22 11 -54 11q-40 0 -76.5 -16.5t-64.5 -44t-45 -63.5t-17 -75q0 -78 77 -115q24 -12 48.5 -16.5t63.5 -5.5l109 161q19 29 45.5 58t56.5 55t62 48t62 36q67 31 119 31t52 -46q0 -44 -39 -100t-106 -109q-27 -21 -54 -38t-58.5 -33.5t-69 -32
t-85.5 -33.5l-57 -79l-3 -3zM325 56q-10 7 -29 14t-40.5 13t-43 9.5t-36.5 3.5q-35 0 -59.5 -16.5t-24.5 -40.5q0 -17 20 -28.5t51 -11.5q20 0 43 4.5t44.5 12t41 18t33.5 22.5zM629 328q39 13 70 26t59 29t54 36t55 46q29 27 53 54.5t41 53t26.5 48.5t9.5 40q0 13 -9 20.5
t-24 7.5q-20 0 -38 -6t-37.5 -19.5t-41.5 -35.5t-49 -55q-23 -28 -47 -59.5t-46 -63.5t-41.5 -63.5t-34.5 -58.5z" />
    <glyph glyph-name="Oslash" unicode="&#xd8;" horiz-adv-x="622" 
d="M478 326q-41 34 -41 84q0 35 18 76.5t53 86.5q29 37 62 67t68 51t70 32.5t68 11.5q30 0 53 -11.5t37 -31.5q10 -16 15 -34.5t8 -53.5q8 9 13.5 16t10 14.5t10 17t13.5 23.5q9 17 15 23t14 6q9 0 16 -6t7 -14t-10 -25.5t-27 -37.5q-14 -17 -27.5 -29.5t-39.5 -30.5
q-8 -48 -26.5 -99.5t-46 -103t-63.5 -101.5t-79 -96q-83 -89 -168.5 -134t-172.5 -45q-54 0 -89 19t-63 63q-11 -14 -18 -22.5t-11.5 -14.5t-7 -10t-5.5 -8q-15 -32 -20.5 -39t-13.5 -7q-11 0 -20 10.5t-9 21.5q0 16 23 46.5t65 68.5q-2 16 -3 28t-1 24q0 47 16 97.5
t46 101.5t72.5 100.5t96.5 94.5q27 22 55 42t52.5 35t44.5 24t30 9q5 0 5 -4q0 -3 -2.5 -5t-15.5 -7q-27 -12 -56.5 -33t-58.5 -48.5t-57 -59.5t-50 -66q-32 -48 -51.5 -87.5t-29.5 -75.5q-7 -26 -11.5 -50.5t-4.5 -35.5q0 -4 0.5 -9.5t1.5 -13.5zM244 134q9 -25 16.5 -38
t19.5 -24q20 -18 49.5 -28t62.5 -10q36 0 75 14t78.5 40t78.5 63.5t75 85.5q27 35 50.5 74t40.5 77t27.5 72.5t12.5 61.5l-289 -180q25 -11 47 -11q15 0 32.5 4.5t35 12t32 17.5t23.5 21q9 9 12 9q5 0 5 -4q0 -5 -12 -16.5t-30 -23.5q-31 -20 -65 -33t-59 -13q-20 0 -64 10z
M730 484l105 74l1 28q0 53 -25.5 84t-67.5 31q-22 0 -47.5 -7.5t-50.5 -21t-49 -32.5t-43 -41q-32 -38 -50.5 -82t-18.5 -85q0 -51 38 -79z" />
    <glyph glyph-name="OE" unicode="&#x152;" horiz-adv-x="1114" 
d="M612 42q16 -1 22.5 -1h23.5q9 0 16 -0.5t22 -1.5t42.5 -2.5t78.5 -4.5q15 -1 24 -1.5t14 -1t9.5 -0.5h10.5q42 0 74.5 7.5t60.5 23.5q34 19 53 46t19 57q0 17 -8 31q-4 8 -4 10q0 8 6 8q4 0 8.5 -6.5t8 -17t6 -22.5t2.5 -24q0 -36 -13.5 -67t-37.5 -53.5t-57 -35
t-72 -12.5q-12 0 -27.5 0.5l-31 1t-27.5 1t-16 1.5l-151 24q-9 1 -25.5 3t-33 3.5t-31.5 2.5t-21 1q-9 0 -25 -1.5t-37 -3.5q-42 -9 -67 -14t-41.5 -7.5t-27.5 -3t-24 -0.5q-38 0 -73.5 15t-58.5 41q-39 46 -39 119q0 47 15.5 97t45 100t72 98.5t96.5 93.5q26 21 54.5 41
t54 35t46 24.5t30.5 9.5q6 0 6 -5q0 -2 -6 -5q-6 -2 -18.5 -9t-26.5 -15.5t-28.5 -18t-23.5 -16.5q-32 -24 -64.5 -58.5t-64.5 -77.5q-107 -146 -107 -270q0 -36 12.5 -66.5t35.5 -52.5t54 -34t69 -12q51 0 95 29t76 83l232 385q25 41 42 82t17 61q0 23 -19 35t-53 12
q-45 0 -93 -17t-96 -49q-27 -19 -50 -44t-39.5 -53t-25.5 -58t-9 -59q0 -42 29 -68.5t74 -26.5q17 0 33 3t28 9q4 2 6 2q7 0 7 -8q0 -2 -4 -5q-30 -17 -50 -23t-41 -6q-61 0 -95 27t-34 76q0 33 16.5 72t44.5 77t65 72t78 57q25 14 50.5 23.5t54.5 15.5t64.5 8.5t81.5 2.5
h22.5t21.5 -0.5t28.5 -1.5t43 -2.5t66 -4t96.5 -6.5h3h10q15 1 33.5 1h40.5q32 0 47 5q3 1 6 1q2 0 2 -4q0 -3 -13 -11t-29 -14q-10 -4 -25.5 -7.5t-33 -6t-36.5 -4t-37 -1.5q-20 0 -58.5 2.5t-98.5 7.5zM963 391l-41 2q-23 0 -35.5 -9.5t-31.5 -43.5q-6 -10 -10 -10
q-3 0 -3 4q0 7 8 23.5t16 27.5q19 25 49 40t53 12h4l102 -4q24 -1 38.5 -1.5t17.5 -0.5q13 0 25 5.5t20 15.5q2 3 7 3q3 0 3 -3q0 -5 -12.5 -19.5t-28.5 -25.5q-14 -10 -32 -16t-32 -5z" />
    <glyph glyph-name="ordmasculine" unicode="&#xba;" horiz-adv-x="328" 
d="M454 388q19 -1 29 -1.5t15.5 -1t8.5 -0.5h6q10 0 18 2q1 1 2 1q5 0 5 -8t-6.5 -16t-16 -14t-21.5 -9.5t-23 -3.5l-22 1l-172 1l-21 1q-5 1 -8 1h-5q-5 0 -8 -1q-15 -5 -17 -5q-8 0 -8 7q0 3 5 10t10 13q8 9 21.5 14.5t27.5 6.5zM562 699q23 0 37 -13t14 -34t-14.5 -53.5
t-37.5 -63.5q-17 -23 -38.5 -42t-44.5 -33t-46.5 -22t-44.5 -8q-25 0 -40 18t-12 44q4 36 26.5 73t55 67t71 48.5t74.5 18.5zM559 692q-13 1 -31 -9t-38 -28t-39.5 -41.5t-35 -47.5t-25 -47t-9.5 -40q0 -33 36 -33q24 0 58.5 30t64.5 78q21 33 32.5 61t11.5 46q0 28 -25 31z
" />
    <glyph glyph-name="ae" unicode="&#xe6;" horiz-adv-x="552" 
d="M312 108q-33 -34 -57 -56t-42.5 -35t-34.5 -18t-33 -5q-27 0 -44 19t-17 51q0 76 72 159q26 30 56.5 55t62 43.5t62 28.5t56.5 10q12 0 23.5 -5t16.5 -13q4 -5 6 -10.5t5 -17.5l26 38l53 2l-28 -40q71 52 139 52q18 0 30 -8.5t12 -20.5q0 -13 -8.5 -28.5t-23.5 -31.5
t-34.5 -31t-40.5 -26q-17 -8 -28.5 -13t-26.5 -10t-37.5 -11.5t-61.5 -16.5l-13 -20q-10 -18 -16 -38.5t-6 -35.5q0 -20 15 -33.5t36 -13.5q54 0 119.5 49t131.5 137q4 5 7 5q4 0 4 -4q0 -3 -12.5 -18.5t-30.5 -36t-37.5 -41t-33.5 -32.5q-48 -44 -96.5 -68.5t-85.5 -24.5
q-40 0 -63 23.5t-23 65.5q0 11 3 26zM429 189q25 5 43 9t32 9.5t26.5 12t26.5 16.5q34 23 54.5 49.5t20.5 47.5q0 20 -18 20q-27 0 -77 -39q-14 -12 -26.5 -23.5t-25 -26t-26.5 -33t-30 -42.5zM399 350q-17 2 -41 -10t-51.5 -34.5t-56 -53.5t-52.5 -67q-23 -34 -37.5 -66.5
t-14.5 -52.5q0 -16 11 -27t27 -10q60 3 144 119q31 43 50.5 71t30 46.5t14 31.5t3.5 25q0 25 -27 28z" />
    <glyph glyph-name="dotlessi" unicode="&#x131;" horiz-adv-x="226" 
d="M303 361q1 -5 1.5 -8t0.5 -6q0 -9 -4 -20t-11 -21l-100 -143q-21 -35 -32.5 -54.5t-17 -30.5t-6.5 -17t-1 -13q0 -23 21 -23q31 0 85 51q13 12 31 31.5t35.5 39.5t32.5 38.5t22 29.5q8 11 11 11t3 -2t-2 -4l-6 -9q-15 -21 -33.5 -44.5t-38 -46t-39.5 -43t-36 -34.5
q-25 -22 -53.5 -35.5t-48.5 -13.5q-23 0 -36 13t-13 34q0 23 11 50t34 61l94 137q9 14 15 29t6 26v6t-1 8z" />
    <glyph glyph-name="lslash" unicode="&#x142;" horiz-adv-x="249" 
d="M148 273q-28 -10 -32 -10q-2 0 -5 3t-3 7q0 2 2 4l8 3l18 7l104 38l143 209q15 21 25.5 43.5t10.5 32.5v4.5t-2 9.5l76 5q4 -8 4 -15q0 -9 -12.5 -31.5t-38.5 -60.5l-111 -162l70 25q28 10 33.5 12t7.5 2q9 0 9 -8q0 -5 -11 -10l-125 -45l-134 -196q-7 -11 -14 -24
t-13 -25.5t-9.5 -23t-3.5 -15.5q0 -9 8 -16t19 -7q21 0 53 26q14 12 23.5 20.5t22.5 22t34 37t57 65.5q8 10 11.5 13t5.5 3q3 0 3 -4q0 -3 -14 -20.5t-34 -40.5t-41.5 -46t-36.5 -37q-33 -32 -70 -53t-60 -21q-22 0 -34.5 12.5t-12.5 33.5q0 49 57 132l88 129z" />
    <glyph glyph-name="oslash" unicode="&#xf8;" horiz-adv-x="377" 
d="M107 14q-4 -4 -6 -6.5t-5 -6.5q-2 -2 -4 -5t-5 -8.5t-8.5 -14.5t-13.5 -24q-14 -26 -32 -26q-6 0 -10.5 3t-4.5 8t7 19.5t17 28.5q4 6 8 11.5t9.5 11.5t13.5 14l19 19l-1 5q-2 12 -3 18.5t-1 11.5q0 48 30 100t76 95t102 71t107 28q52 0 68 -45q23 21 28 30l33 51
q8 11 22 11q6 0 10.5 -3t4.5 -8q0 -3 -1.5 -6t-9.5 -20q-3 -8 -9 -16t-15.5 -18.5t-24.5 -24.5t-37 -34q-6 -31 -24.5 -69.5t-45.5 -75.5q-24 -32 -53.5 -58.5t-62 -46t-65 -30.5t-61.5 -11q-13 0 -24 4.5t-28 16.5zM150 56q2 -19 14 -30t29 -11q22 0 47.5 14t52 38.5
t52.5 59.5t49 77q13 24 20 40q-52 -32 -85 -52t-58 -37.5t-47.5 -35t-53.5 -43.5q-9 -7 -12.5 -11t-5.5 -7zM155 91q55 36 95.5 63t71.5 48.5t56 40.5t50 39q3 10 4 16.5t1 14.5q0 20 -9.5 32.5t-24.5 12.5q-27 0 -63 -24.5t-71.5 -63.5t-65.5 -86.5t-44 -92.5z" />
    <glyph glyph-name="oe" unicode="&#x153;" horiz-adv-x="576" 
d="M471 285q48 38 97 59t90 21q17 0 28 -8t11 -20q0 -22 -23.5 -51.5t-59.5 -52.5q-14 -9 -29 -16.5t-35 -15t-46 -15.5t-61 -17q-16 -22 -24.5 -47t-8.5 -48q0 -19 14.5 -32.5t35.5 -13.5q52 0 115 48t128 138q5 5 7 5q4 0 4 -4q0 -3 -12.5 -18.5t-29.5 -36t-36.5 -41
t-32.5 -32.5q-47 -44 -94 -68.5t-83 -24.5q-37 0 -59 22t-24 60q-48 -40 -95 -61.5t-89 -21.5q-32 0 -52.5 21.5t-20.5 54.5t13.5 67.5t37 68t55 63t66.5 51.5t71.5 35t71.5 13q32 0 51.5 -17.5t19.5 -46.5v-7t-1 -11zM398 358q-12 1 -31 -7t-40.5 -24t-44 -38t-42.5 -47
t-37 -51t-29 -50t-18.5 -44.5t-6.5 -35.5q0 -21 13 -33.5t34 -12.5q36 0 83.5 41.5t91.5 109.5q29 47 45 85t16 63q0 41 -34 44zM453 188q54 10 88 24.5t65 42.5q48 45 48 78q0 20 -17 20q-28 0 -76 -39q-11 -9 -21 -19t-22 -24t-28 -34.5t-37 -48.5z" />
    <glyph glyph-name="germandbls" unicode="&#xdf;" horiz-adv-x="439" 
d="M150 73q-97 -157 -197.5 -233t-211.5 -76q-42 0 -67.5 16t-25.5 42q0 17 12 28.5t29 11.5q10 0 17.5 -5.5t7.5 -13.5q0 -3 -1.5 -5.5t-9.5 -14.5q-2 -4 -2 -9q0 -15 17 -26t42 -11q36 0 71 17t75 55.5t86 101t104 153.5l152 240q17 27 39 56.5t45 57t46.5 52t44.5 42.5
q22 19 47 35t50 28t47 19t38 7q18 0 32 -14t14 -32q0 -24 -15.5 -45t-55.5 -50q-29 -21 -48 -38t-29.5 -33.5t-14.5 -35t-4 -42.5q0 -23 3 -54q2 -26 3 -50t1 -46q0 -111 -87 -175q-44 -32 -104 -32q-27 0 -45.5 11t-18.5 28q0 13 8 24.5t17 11.5q11 0 11 -10q-1 -1 -1 -3
t-0.5 -4.5t-0.5 -4.5v-4q0 -14 7.5 -22.5t18.5 -8.5q28 0 57 23.5t46 58.5q7 14 11 27t5 24l12 154q4 28 9 47.5t18.5 41.5t38.5 53t68 81q30 35 30 69q0 23 -20 23q-23 0 -48.5 -13.5t-44.5 -36.5q-25 -30 -38.5 -46.5t-20 -24t-8 -10t-2.5 -3.5l-97 -144z" />
    <glyph glyph-name="onesuperior" unicode="&#xb9;" horiz-adv-x="235" 
d="M511 635q-22 -13 -48 -26.5t-49.5 -25t-41.5 -18.5t-22 -7q-8 0 -8 8q0 5 9 9q69 29 130.5 62.5t104.5 65.5q3 3 8 3q6 0 6 -6q0 -2 -1.5 -5.5t-3.5 -5.5l-89 -104q-28 -32 -49 -58t-38 -47t-30 -39.5t-24 -35.5q-6 -12 -12 -12l-26 1l-19 -1q-10 0 -10 8q0 7 10 22.5
t25 34.5q15 17 25 28t26.5 27.5t45 43.5t79.5 75z" />
    <glyph glyph-name="trademark" unicode="&#x2122;" horiz-adv-x="1050" 
d="M648 608q-23 -37 -38.5 -60.5t-28.5 -39.5t-25.5 -26.5t-28.5 -21.5q-31 -20 -68.5 -31.5t-75.5 -11.5q-45 0 -71.5 14t-26.5 38q0 12 8.5 20.5t20.5 8.5q10 0 17 -6.5t7 -15.5q0 -4 -1.5 -5.5l-6.5 -6.5q-3 -3 -3 -6q0 -11 17 -18.5t40 -7.5t44.5 6t37.5 17
q14 10 32.5 28.5t27.5 32.5l91 135q9 13 21 26.5t25.5 26t28 22.5t27.5 17q13 6 24.5 10.5t15.5 4.5q7 0 7 -7q0 -4 -5 -6q-12 -5 -19.5 -9.5t-13.5 -10t-12 -13t-13 -19.5zM806 790q7 -2 16.5 -2.5t27.5 -0.5q14 0 21.5 1t17.5 6q6 3 9 3q5 0 5 -6q0 -5 -9 -9t-23 -8
t-32 -6t-37 -2q-32 0 -69 8l-62 13q-13 3 -30.5 4.5t-33.5 1.5q-64 0 -111 -26q-18 -10 -33.5 -24.5t-27.5 -31t-18.5 -34t-6.5 -33.5q0 -26 18 -42t47 -16q8 0 13.5 0.5t11.5 2.5t15 6.5t26 13.5q6 2 7 2q5 0 5 -6t-12 -14t-29 -15.5t-36 -12.5t-32 -5q-35 0 -56 18.5
t-21 48.5q0 36 23 70.5t61 62t86.5 44t98.5 16.5q6 0 14.5 -0.5t18 -1.5t17.5 -2t13 -2zM1128 551l69 89q13 16 32 36t40 39t41 35.5t36 26.5q30 18 58.5 29t46.5 11q11 0 11 -6q0 -7 -9 -7q-20 0 -55 -26t-69 -67q-26 -30 -48.5 -63.5t-39.5 -65t-27 -58.5t-10 -44t16 -17
t45 23q6 5 10 8.5t9.5 9.5t14.5 16t25 29q4 4 7 4q7 0 7 -6q0 -3 -8 -13.5t-28 -33.5q-67 -77 -116 -77q-17 0 -26.5 11.5t-9.5 31.5q0 52 56 135q16 25 29 43t26.5 34t28.5 31.5t35 34.5q-35 -28 -61 -53.5t-54 -59.5l-71 -91q-17 -21 -37 -41t-38.5 -35.5t-34 -25
t-24.5 -9.5q-6 0 -6 6q0 4 5 7q17 8 29 26.5t26 56.5l32 108q0 1 1.5 5.5t11.5 28.5l5 13q3 8 17 35l-128 -165q-54 -69 -106.5 -104.5t-100.5 -35.5q-42 0 -67.5 25.5t-25.5 65.5q0 33 17 67t43.5 61.5t59 45t64.5 17.5q30 0 48 -16t18 -42q0 -15 -5.5 -31t-14.5 -28.5
t-20 -21t-21 -8.5q-8 0 -8 7q0 3 5 7q14 8 23 25t9 34q0 20 -14.5 33.5t-35.5 13.5q-25 0 -48.5 -12t-42 -32t-30 -45t-11.5 -52q0 -32 20 -50.5t54 -18.5q19 0 42 8t46.5 22.5t46 34.5t42.5 44l134 165q14 17 29.5 32.5t30 27t26.5 18.5t19 7q6 0 6 -6q0 -2 -1.5 -3.5
t-9.5 -6.5q-17 -10 -27 -27t-23 -55l-22 -83q-10 -34 -19.5 -59.5t-20.5 -45.5z" />
    <glyph glyph-name="Eth" unicode="&#xd0;" horiz-adv-x="880" 
d="M412 223q-15 0 -15 7q0 4 1 6t5.5 3t14.5 1h29h37l90 134q14 21 33 44t39.5 44.5t41.5 40t40 31.5q34 23 71.5 38.5t63.5 15.5q8 0 8 -7q0 -5 -10 -6q-35 -5 -69 -35.5t-80 -99.5l-126 -200h94q23 -2 27 -2.5t4 -5.5q0 -7 -5 -8t-33 -1h-98q-23 -32 -39.5 -53t-34.5 -39
t-41 -36.5t-59 -45.5q47 -16 77.5 -25.5t51.5 -14.5t36.5 -6.5t33.5 -1.5q127 0 230 112q63 68 98.5 156.5t35.5 179.5q0 112 -68.5 173.5t-195.5 61.5q-166 0 -299 -102q-65 -51 -99 -105.5t-34 -108.5q0 -42 26.5 -67.5t68.5 -25.5q28 0 63 17t70 47l4 2q4 0 4 -5
q0 -3 -7.5 -11.5t-20.5 -19.5q-37 -31 -79 -47.5t-84 -16.5q-24 0 -44.5 8t-35.5 21.5t-24 32t-9 39.5q0 73 50.5 143.5t141.5 124.5q74 44 155 67t159 23q75 0 136 -20t103.5 -57.5t66 -90t23.5 -116.5q0 -54 -15.5 -107.5t-44 -101.5t-69 -88.5t-90.5 -70.5
q-27 -16 -59 -29t-66 -22t-69 -14t-68 -5q-45 0 -92 10t-113 33q-62 -22 -106 -30.5t-88 -8.5q-63 0 -99.5 15.5t-36.5 41.5q0 8 6 17.5t15 14.5q20 12 51 19.5t60 7.5q26 0 70.5 -8t120.5 -25q32 26 50.5 46t38.5 50l42 62h-61zM301 34q-46 22 -90.5 34t-79.5 12
q-30 0 -50 -11.5t-20 -28.5q0 -20 25 -32t65 -12q51 0 87.5 9t62.5 29z" />
    <glyph glyph-name="onehalf" unicode="&#xbd;" horiz-adv-x="661" 
d="M461 636q-22 -13 -48.5 -27t-50 -25t-41 -18.5t-21.5 -7.5q-8 0 -8 8q0 5 9 9q37 16 67.5 30.5t58.5 29.5t55 32.5t57 38.5q2 1 5 1q6 0 6 -6q0 -5 -5 -12l-89 -104q-54 -63 -86.5 -105t-54.5 -76q-6 -11 -12 -11l-37 1q-18 0 -18 8q0 7 9.5 22.5t25.5 34.5q14 17 24 28
t26.5 27.5t45 43.5t80.5 75zM817 690q8 0 14 -3.5t6 -8.5q0 -6 -16 -24.5t-36 -37.5q-17 -16 -31 -28.5t-32.5 -28.5t-46 -38t-72.5 -57t-111.5 -87.5t-162.5 -127.5q-59 -46 -114 -99.5t-96 -104.5q-10 -14 -16.5 -22.5t-11 -13t-9 -6t-9.5 -1.5q-9 0 -15.5 5t-6.5 12
q0 14 40 57q17 19 31 33.5t34 32t50.5 42.5t81.5 64.5t126 97.5t185 142q10 6 34.5 27.5t51.5 48t51.5 51.5t33.5 37q18 24 26.5 31t20.5 7zM492 95q-24 -6 -45 -17.5t-31 -25.5q19 3 33 3q4 0 7 -0.5t11 -2t23.5 -6t43.5 -11.5q12 -3 24 -3q19 0 36 14q12 11 14.5 13t5.5 2
q8 0 8 -8q0 -6 -9 -15t-24 -18q-30 -20 -72 -20h-10t-12 1.5t-22.5 4.5t-40.5 9q-5 1 -10.5 1.5t-11.5 0.5q-26 0 -40 -12q-6 -6 -9 -6q-10 0 -10 9q0 8 6 20t16 23q19 20 42.5 33t63.5 27l79 27q34 12 64 29t52 36.5t34.5 40.5t12.5 40q0 12 -9.5 20t-23.5 8
q-21 0 -44 -9.5t-42 -24t-31 -32.5t-12 -34q0 -17 22 -17q9 0 9 -7q0 -5 -8.5 -8.5t-22.5 -3.5q-20 0 -33.5 12t-13.5 30q0 21 15.5 41t41 35.5t58 25t66.5 9.5q38 0 59 -14.5t21 -40.5q0 -22 -12 -43.5t-32 -37.5q-30 -25 -72.5 -45.5t-84.5 -31.5z" />
    <glyph glyph-name="Thorn" unicode="&#xde;" horiz-adv-x="786" 
d="M745 490q1 2 18 21.5t37 42.5q-37 10 -85 10q-85 0 -165.5 -31t-153.5 -91q-55 -45 -85.5 -94t-30.5 -94q0 -40 21.5 -64.5t56.5 -24.5q36 0 76 16t71 42q8 7 9.5 8.5t3.5 1.5q4 0 4 -5q0 -2 -0.5 -3.5t-3 -4.5t-8.5 -8.5t-16 -15.5q-12 -11 -37.5 -27t-48.5 -27
q-48 -22 -95 -22q-48 0 -75.5 27t-27.5 73q0 61 44 125.5t122 118.5q81 56 178.5 86t195.5 30q35 0 69 -7q58 59 109.5 90.5t89.5 31.5q21 0 21 -9q0 -4 -7 -5q-39 -2 -75.5 -30.5t-83.5 -93.5q57 -23 84 -59t27 -90q0 -45 -18.5 -84.5t-50 -69t-73 -47t-88.5 -17.5
q-26 0 -47 6t-21 14q0 4 5 4q4 0 10 -3q8 -3 19.5 -5.5t22.5 -2.5q31 0 62.5 18t57 47.5t41 66t15.5 73.5q0 82 -62 124l-158 -247q-50 -78 -119.5 -143t-145.5 -105q-54 -29 -106 -42.5t-108 -13.5q-74 0 -119 24t-45 63q0 20 14 36t33 16q14 0 25 -9.5t11 -21.5
q0 -9 -11 -20q-8 -8 -8 -15q0 -11 9.5 -22t24.5 -19.5t34.5 -13.5t39.5 -5q49 0 99 20t93 57q16 14 33.5 31.5t34.5 36t32.5 36.5t26.5 34z" />
    <glyph glyph-name="onequarter" unicode="&#xbc;" horiz-adv-x="587" 
d="M542 108q4 -1 11 -1q14 0 26 6t30 22q4 3 7 3q7 0 7 -7q0 -6 -12 -15.5t-32 -19.5q-15 -8 -28.5 -11t-30.5 -5q-6 -8 -9 -11q-36 -48 -45 -63q-5 -8 -9 -10t-13 -2h-10q-7 1 -12.5 1h-8.5h-2h-8q-2 14 9 31.5t39 48.5l4 4t5 7q-29 8 -45 10.5t-31 2.5q-31 0 -49 -8
q-8 -4 -9.5 -4.5t-4.5 -0.5q-9 0 -9 7t8 12l363 217q5 4 9 4q2 0 3.5 -2t1.5 -4q0 -5 -3 -8zM400 129q7 1 10.5 1h8.5q15 0 29 -2t40 -10l144 151zM457 636q-22 -13 -48.5 -27t-50 -25t-41 -18.5t-21.5 -7.5q-8 0 -8 8q0 5 9 9q37 16 67.5 30.5t58.5 29.5t55 32.5t57 38.5
q2 1 5 1q6 0 6 -6q0 -5 -5 -12l-89 -104q-54 -63 -86.5 -105t-54.5 -76q-6 -11 -12 -11l-37 1q-18 0 -18 8q0 7 9.5 22.5t25.5 34.5q14 17 24 28t26.5 27.5t45 43.5t80.5 75zM813 690q8 0 14 -3.5t6 -8.5q0 -6 -16 -24.5t-36 -37.5q-18 -16 -31.5 -28.5t-32 -28.5t-46 -38
t-72.5 -57t-111.5 -87.5t-162.5 -127.5q-59 -46 -114 -99.5t-96 -104.5q-10 -14 -16.5 -22.5t-11 -13t-9 -6t-9.5 -1.5q-9 0 -15.5 5t-6.5 12q0 14 40 57q17 19 31 33.5t34 32t50.5 42.5t81.5 64.5t126 97.5t185 142q10 6 34.5 27.5t51.5 48t51.5 51.5t33.5 37
q18 24 26.5 31t20.5 7z" />
    <glyph glyph-name="thorn" unicode="&#xfe;" horiz-adv-x="362" 
d="M394 534q14 21 25 43.5t11 31.5v5t-2 10l76 5q4 -8 4 -15q0 -9 -12.5 -31.5t-38.5 -60.5l-160 -235q40 40 70.5 56.5t62.5 16.5q29 0 46 -19t17 -51q0 -49 -28.5 -101t-72.5 -95.5t-97.5 -71.5t-102.5 -28q-50 0 -72 41l-193 -284h-73zM402 341q-17 1 -45 -16.5
t-57 -46.5q-12 -12 -32 -36t-40.5 -51t-38.5 -52t-27 -40q-11 -18 -15 -28t-4 -20q0 -18 13.5 -31t33.5 -13q56 0 138 96q51 58 77 110t26 93q0 33 -29 35z" />
    <glyph glyph-name="threequarters" unicode="&#xbe;" horiz-adv-x="729" 
d="M686 108q4 -1 11 -1q14 0 26 6t30 22q4 3 7 3q7 0 7 -7q0 -6 -12 -15.5t-32 -19.5q-15 -8 -28.5 -11t-30.5 -5q-6 -8 -9 -11q-36 -48 -45 -63q-5 -8 -9 -10t-13 -2h-10q-7 1 -12.5 1h-8.5h-2h-8q-2 14 9 31.5t39 48.5l4 4t5 7q-29 8 -45 10.5t-31 2.5q-31 0 -49 -8
q-8 -4 -9.5 -4.5t-4.5 -0.5q-9 0 -9 7t8 12l363 217q5 4 9 4q2 0 3.5 -2t1.5 -4q0 -5 -3 -8zM544 129q7 1 10.5 1h8.5q15 0 29 -2t40 -10l144 151zM957 690q8 0 14 -3.5t6 -8.5q0 -6 -16 -24.5t-36 -37.5q-17 -16 -31 -28.5t-32.5 -28.5t-46 -38t-72.5 -57t-111.5 -87.5
t-162.5 -127.5q-59 -46 -114 -99.5t-96 -104.5q-10 -14 -16.5 -22.5t-11 -13t-9 -6t-9.5 -1.5q-9 0 -15.5 5t-6.5 12q0 14 40 57q17 19 31 33.5t34 32t50.5 42.5t81.5 64.5t126 97.5t185 142q10 6 34.5 27.5t51.5 48t51.5 51.5t33.5 37q18 24 26.5 31t20.5 7zM495 560
q53 -19 53 -54q0 -23 -15 -44t-41 -37t-60 -25.5t-72 -9.5q-43 0 -70 13.5t-27 36.5q0 14 12 25t29 11q11 0 18.5 -6t7.5 -15q0 -5 -1.5 -7t-12.5 -10q-5 -3 -5 -7q0 -8 13.5 -15.5t29.5 -7.5q24 0 48.5 10t44.5 25.5t33 35t13 37.5q0 16 -13.5 25.5t-34.5 9.5q-16 0 -16 9
q0 8 6 10.5t29 3.5q19 1 45.5 10.5t43.5 22.5q43 32 43 68q0 13 -10.5 20t-28.5 7q-17 0 -35.5 -7t-34 -17.5t-25.5 -23t-10 -24.5q0 -10 10 -13q8 -2 8 -7q0 -6 -8 -9.5t-21 -3.5q-14 0 -24.5 9.5t-10.5 23.5q0 17 13 33t35 28.5t50.5 20t58.5 7.5q38 0 60.5 -14.5
t22.5 -37.5q0 -36 -38 -65q-20 -16 -44.5 -25t-68.5 -17z" />
    <glyph glyph-name="twosuperior" unicode="&#xb2;" horiz-adv-x="339" 
d="M394 488q-25 -6 -45.5 -17.5t-30.5 -25.5q19 3 33 3q4 0 7 -0.5t11 -2t23.5 -6t43.5 -11.5q12 -3 24 -3q19 0 36 15q12 11 14.5 13t5.5 2q8 0 8 -8q0 -6 -9 -15t-24 -19q-32 -20 -72 -20h-10t-12 1.5t-22.5 4.5t-40.5 9q-5 1 -10.5 1.5t-11.5 0.5q-26 0 -40 -12
q-6 -6 -9 -6q-10 0 -10 10q0 26 35 54t92 48l80 27q34 12 64 29.5t52 37t34.5 40.5t12.5 40q0 12 -9 20t-23 8q-22 0 -45 -9.5t-42 -24t-31 -32.5t-12 -35q0 -16 22 -17q9 0 9 -6t-9 -9.5t-23 -3.5q-20 0 -33 12t-13 30q0 21 15.5 41t41 36t58 25.5t66.5 9.5q38 0 59 -15
t21 -41q0 -21 -12 -43t-32 -38q-30 -24 -73 -45t-85 -32z" />
    <glyph glyph-name="eth" unicode="&#xf0;" horiz-adv-x="367" 
d="M602 476q-17 -64 -57 -138.5t-94 -146.5q-73 -97 -147.5 -147.5t-141.5 -50.5q-31 0 -51.5 22t-20.5 54q0 33 14 67.5t37.5 68t54.5 63t66 51.5t72 35t72 13q28 0 46 -14t23 -38q17 29 36 68t39 84l-78 -14q-2 -1 -5 -1q-10 0 -10 7q0 3 0.5 4.5t5 3t14 3.5t27.5 5l54 10
q9 23 15 42.5t7 30.5q1 5 2 21t5 57l6 1q16 -24 16 -83q0 -17 -1 -31.5t-3 -28.5l54 10l18 2l8 2q6 0 6 -8q0 -6 -5 -7.5t-31 -6.5zM402 358q-12 1 -31 -7t-40.5 -24t-44 -38t-42.5 -47t-37 -51t-29 -50t-18.5 -44.5t-6.5 -35.5q0 -21 13 -33.5t34 -12.5q36 0 83.5 41.5
t91.5 109.5q29 47 45 85t16 63q0 41 -34 44z" />
    <glyph glyph-name="threesuperior" unicode="&#xb3;" horiz-adv-x="324" 
d="M500 563q52 -17 52 -54q0 -23 -15 -44t-41 -37t-60 -25.5t-71 -9.5q-43 0 -70 13.5t-27 36.5q0 14 12 25t29 11q11 0 18.5 -6t7.5 -15q0 -5 -1.5 -7t-11.5 -10q-5 -3 -5 -7q1 -8 14 -15.5t28 -7.5q24 0 48.5 10t44.5 25.5t32.5 35t12.5 37.5q0 16 -13.5 25.5t-33.5 9.5
q-16 0 -16 9q0 8 6 10.5t29 3.5q19 1 45.5 10.5t43.5 22.5q43 32 43 68q0 13 -10.5 20t-28.5 7q-17 0 -35.5 -7t-34 -17.5t-25.5 -23.5t-10 -25q0 -9 10 -12q8 -2 8 -7q0 -6 -8 -9.5t-21 -3.5q-14 0 -24.5 9.5t-10.5 22.5q0 18 13 34t35 28.5t50.5 20t58.5 7.5
q38 0 60.5 -14.5t22.5 -37.5q0 -36 -38 -65q-20 -16 -44.5 -25t-68.5 -17z" />
    <glyph glyph-name="Aacute" unicode="&#xc1;" 
d="M637 315q-5 0 -9.5 2t-4.5 4q0 10 28 10h58l183 184q93 94 166 139.5t132 45.5q24 0 39 -12.5t15 -32.5t-15 -49t-53 -81l-244 -338q-28 -39 -47.5 -68t-32.5 -50.5t-21 -38t-12 -30.5h-72q-10 0 -10 6q0 4 4 9q5 5 14 28q3 7 6 12.5t8 12.5t13 18.5t22 30.5
q19 26 37.5 52.5t38.5 52.5l70 93h-221l-169 -182q-11 -11 -29 -27t-38.5 -32.5t-41 -32.5t-36.5 -26q-35 -23 -76.5 -36t-77.5 -13q-37 0 -67.5 12.5t-52.5 34.5t-34 53t-12 68q0 64 31 128t80.5 115t111.5 83t124 32q50 0 82 -31.5t32 -80.5q0 -22 -7 -46t-17.5 -44.5
t-23.5 -33.5t-25 -13q-4 0 -4 5q0 1 3 3q18 15 28.5 42.5t10.5 58.5q0 28 -15.5 53.5t-41.5 38.5q-24 12 -58 12q-51 0 -97.5 -23t-82.5 -61.5t-57.5 -89t-21.5 -104.5q0 -31 10.5 -57t29.5 -45t45.5 -29.5t57.5 -10.5q18 0 33.5 2.5t32 8t34.5 15t41 24.5q45 29 88.5 63
t74.5 65l101 101h-58zM961 331l103 141l79 112q30 41 30 65q0 10 -9.5 16t-23.5 6q-18 0 -45 -12.5t-58.5 -34t-65.5 -52t-67 -66.5l-163 -175h220zM1415 890q-11 -15 -36 -36t-56 -42t-63 -39.5t-57 -27.5q-7 -3 -11.5 -5t-6.5 -3q-7 -4 -9 -4q-5 0 -5 3q0 1 1 2t6 4.5
t15.5 10t30.5 18.5q50 35 79.5 67t32.5 53z" />
    <glyph glyph-name="Acircumflex" unicode="&#xc2;" 
d="M637 315q-5 0 -9.5 2t-4.5 4q0 10 28 10h58l183 184q93 94 166 139.5t132 45.5q24 0 39 -12.5t15 -32.5t-15 -49t-53 -81l-244 -338q-28 -39 -47.5 -68t-32.5 -50.5t-21 -38t-12 -30.5h-72q-10 0 -10 6q0 4 4 9q5 5 14 28q3 7 6 12.5t8 12.5t13 18.5t22 30.5
q19 26 37.5 52.5t38.5 52.5l70 93h-221l-169 -182q-11 -11 -29 -27t-38.5 -32.5t-41 -32.5t-36.5 -26q-35 -23 -76.5 -36t-77.5 -13q-37 0 -67.5 12.5t-52.5 34.5t-34 53t-12 68q0 64 31 128t80.5 115t111.5 83t124 32q50 0 82 -31.5t32 -80.5q0 -22 -7 -46t-17.5 -44.5
t-23.5 -33.5t-25 -13q-4 0 -4 5q0 1 3 3q18 15 28.5 42.5t10.5 58.5q0 28 -15.5 53.5t-41.5 38.5q-24 12 -58 12q-51 0 -97.5 -23t-82.5 -61.5t-57.5 -89t-21.5 -104.5q0 -31 10.5 -57t29.5 -45t45.5 -29.5t57.5 -10.5q18 0 33.5 2.5t32 8t34.5 15t41 24.5q45 29 88.5 63
t74.5 65l101 101h-58zM961 331l103 141l79 112q30 41 30 65q0 10 -9.5 16t-23.5 6q-18 0 -45 -12.5t-58.5 -34t-65.5 -52t-67 -66.5l-163 -175h220zM1161 759q-33 -21 -35 -21q-3 0 -3 3t3 6.5t14 13.5l117 104q23 20 40 20q11 0 18.5 -5t7.5 -13q0 -4 -1.5 -8.5t-9.5 -29.5
l-21 -62q-7 -23 -8 -26.5t-3 -3.5q-6 0 -4 10l1 87z" />
    <glyph glyph-name="Adieresis" unicode="&#xc4;" 
d="M1220 873q11 0 19 -7.5t8 -19.5q0 -13 -6 -26.5t-16 -24t-22 -17t-24 -6.5q-11 0 -19 9t-7 20q1 13 7.5 26t16 23t21 16.5t22.5 6.5zM1347 870q11 0 18 -7.5t7 -18.5q0 -13 -5.5 -26t-14.5 -23t-20.5 -16.5t-23.5 -6.5q-11 0 -19.5 9.5t-7.5 20.5q1 13 7.5 25.5t15.5 22
t20.5 15t22.5 5.5zM637 315q-5 0 -9.5 2t-4.5 4q0 10 28 10h58l183 184q93 94 166 139.5t132 45.5q24 0 39 -12.5t15 -32.5t-15 -49t-53 -81l-244 -338q-28 -39 -47.5 -68t-32.5 -50.5t-21 -38t-12 -30.5h-72q-10 0 -10 6q0 4 4 9q5 5 14 28q3 7 6 12.5t8 12.5t13 18.5
t22 30.5q19 26 37.5 52.5t38.5 52.5l70 93h-221l-169 -182q-11 -11 -29 -27t-38.5 -32.5t-41 -32.5t-36.5 -26q-35 -23 -76.5 -36t-77.5 -13q-37 0 -67.5 12.5t-52.5 34.5t-34 53t-12 68q0 64 31 128t80.5 115t111.5 83t124 32q50 0 82 -31.5t32 -80.5q0 -22 -7 -46
t-17.5 -44.5t-23.5 -33.5t-25 -13q-4 0 -4 5q0 1 3 3q18 15 28.5 42.5t10.5 58.5q0 28 -15.5 53.5t-41.5 38.5q-24 12 -58 12q-51 0 -97.5 -23t-82.5 -61.5t-57.5 -89t-21.5 -104.5q0 -31 10.5 -57t29.5 -45t45.5 -29.5t57.5 -10.5q18 0 33.5 2.5t32 8t34.5 15t41 24.5
q45 29 88.5 63t74.5 65l101 101h-58zM961 331l103 141l79 112q30 41 30 65q0 10 -9.5 16t-23.5 6q-18 0 -45 -12.5t-58.5 -34t-65.5 -52t-67 -66.5l-163 -175h220z" />
    <glyph glyph-name="Agrave" unicode="&#xc0;" 
d="M637 315q-5 0 -9.5 2t-4.5 4q0 10 28 10h58l183 184q93 94 166 139.5t132 45.5q24 0 39 -12.5t15 -32.5t-15 -49t-53 -81l-244 -338q-28 -39 -47.5 -68t-32.5 -50.5t-21 -38t-12 -30.5h-72q-10 0 -10 6q0 4 4 9q5 5 14 28q3 7 6 12.5t8 12.5t13 18.5t22 30.5
q19 26 37.5 52.5t38.5 52.5l70 93h-221l-169 -182q-11 -11 -29 -27t-38.5 -32.5t-41 -32.5t-36.5 -26q-35 -23 -76.5 -36t-77.5 -13q-37 0 -67.5 12.5t-52.5 34.5t-34 53t-12 68q0 64 31 128t80.5 115t111.5 83t124 32q50 0 82 -31.5t32 -80.5q0 -22 -7 -46t-17.5 -44.5
t-23.5 -33.5t-25 -13q-4 0 -4 5q0 1 3 3q18 15 28.5 42.5t10.5 58.5q0 28 -15.5 53.5t-41.5 38.5q-24 12 -58 12q-51 0 -97.5 -23t-82.5 -61.5t-57.5 -89t-21.5 -104.5q0 -31 10.5 -57t29.5 -45t45.5 -29.5t57.5 -10.5q18 0 33.5 2.5t32 8t34.5 15t41 24.5q45 29 88.5 63
t74.5 65l101 101h-58zM961 331l103 141l79 112q30 41 30 65q0 10 -9.5 16t-23.5 6q-18 0 -45 -12.5t-58.5 -34t-65.5 -52t-67 -66.5l-163 -175h220zM1223 889q0 -66 22 -114q13 -27 15.5 -33t2.5 -8q0 -4 -3 -4t-7 6q-3 2 -10 13q-15 21 -23.5 32.5t-14 19t-8.5 13t-8 14.5
q-8 15 -15.5 28.5t-14.5 24.5l-4 8h68z" />
    <glyph glyph-name="Aring" unicode="&#xc5;" 
d="M1223 821q0 26 17 43t42 17q24 0 42 -18t18 -42q0 -25 -17 -42t-42 -17q-24 0 -42 16.5t-18 39.5v3zM1283 860q-15 0 -26.5 -12t-11.5 -28t11 -26.5t27 -10.5t27 11t11 27t-11 27.5t-27 11.5zM637 315q-5 0 -9.5 2t-4.5 4q0 10 28 10h58l183 184q93 94 166 139.5
t132 45.5q24 0 39 -12.5t15 -32.5t-15 -49t-53 -81l-244 -338q-28 -39 -47.5 -68t-32.5 -50.5t-21 -38t-12 -30.5h-72q-10 0 -10 6q0 4 4 9q5 5 14 28q3 7 6 12.5t8 12.5t13 18.5t22 30.5q19 26 37.5 52.5t38.5 52.5l70 93h-221l-169 -182q-11 -11 -29 -27t-38.5 -32.5
t-41 -32.5t-36.5 -26q-35 -23 -76.5 -36t-77.5 -13q-37 0 -67.5 12.5t-52.5 34.5t-34 53t-12 68q0 64 31 128t80.5 115t111.5 83t124 32q50 0 82 -31.5t32 -80.5q0 -22 -7 -46t-17.5 -44.5t-23.5 -33.5t-25 -13q-4 0 -4 5q0 1 3 3q18 15 28.5 42.5t10.5 58.5
q0 28 -15.5 53.5t-41.5 38.5q-24 12 -58 12q-51 0 -97.5 -23t-82.5 -61.5t-57.5 -89t-21.5 -104.5q0 -31 10.5 -57t29.5 -45t45.5 -29.5t57.5 -10.5q18 0 33.5 2.5t32 8t34.5 15t41 24.5q45 29 88.5 63t74.5 65l101 101h-58zM961 331l103 141l79 112q30 41 30 65
q0 10 -9.5 16t-23.5 6q-18 0 -45 -12.5t-58.5 -34t-65.5 -52t-67 -66.5l-163 -175h220z" />
    <glyph glyph-name="Atilde" unicode="&#xc3;" 
d="M637 315q-5 0 -9.5 2t-4.5 4q0 10 28 10h58l183 184q93 94 166 139.5t132 45.5q24 0 39 -12.5t15 -32.5t-15 -49t-53 -81l-244 -338q-28 -39 -47.5 -68t-32.5 -50.5t-21 -38t-12 -30.5h-72q-10 0 -10 6q0 4 4 9q5 5 14 28q3 7 6 12.5t8 12.5t13 18.5t22 30.5
q19 26 37.5 52.5t38.5 52.5l70 93h-221l-169 -182q-11 -11 -29 -27t-38.5 -32.5t-41 -32.5t-36.5 -26q-35 -23 -76.5 -36t-77.5 -13q-37 0 -67.5 12.5t-52.5 34.5t-34 53t-12 68q0 64 31 128t80.5 115t111.5 83t124 32q50 0 82 -31.5t32 -80.5q0 -22 -7 -46t-17.5 -44.5
t-23.5 -33.5t-25 -13q-4 0 -4 5q0 1 3 3q18 15 28.5 42.5t10.5 58.5q0 28 -15.5 53.5t-41.5 38.5q-24 12 -58 12q-51 0 -97.5 -23t-82.5 -61.5t-57.5 -89t-21.5 -104.5q0 -31 10.5 -57t29.5 -45t45.5 -29.5t57.5 -10.5q18 0 33.5 2.5t32 8t34.5 15t41 24.5q45 29 88.5 63
t74.5 65l101 101h-58zM961 331l103 141l79 112q30 41 30 65q0 10 -9.5 16t-23.5 6q-18 0 -45 -12.5t-58.5 -34t-65.5 -52t-67 -66.5l-163 -175h220zM1353 852q11 0 19 -8t8 -19q0 -14 -9 -27t-24 -23t-35 -16t-41 -6q-7 0 -12 0.5t-15.5 3t-30 8t-54.5 15.5q-2 1 -5 1
q-5 0 -12 -3t-10 -6q-11 -10 -12.5 -11.5t-2.5 -1.5q-4 0 -4 5q0 2 3 5l20 20q23 22 47 22q4 0 7.5 -0.5t12 -2t25 -5t46.5 -9.5q34 -13 43 -13q14 0 25.5 12.5t11.5 29.5q0 15 -7 29h6z" />
    <glyph glyph-name="Ccedilla" unicode="&#xc7;" horiz-adv-x="667" 
d="M308 -40q18 -19 23.5 -28.5t5.5 -23.5q0 -18 -9.5 -34.5t-25.5 -29t-36.5 -20.5t-42.5 -8t-38 13.5t-16 31.5q0 15 11 25t27 10q7 0 12 -2t15 -10q-11 -14 -14 -18.5t-3 -8.5q0 -6 7.5 -10.5t18.5 -4.5q9 0 18.5 4.5t17 11.5t12.5 15.5t5 17.5q0 5 -1 9t-5 8.5
t-11.5 10.5t-20.5 17l-6 5l67 51q-15 5 -24 8.5t-18 8.5q-42 21 -64.5 63.5t-22.5 96.5t16.5 109.5t47.5 109.5t75 104t100 94q42 33 87 59.5t88.5 46t84 30t73.5 10.5q26 0 51 -11t41 -29q24 -27 24 -76q0 -98 -90 -189q-87 -92 -185 -92q-37 0 -59.5 19.5t-22.5 51.5
q0 39 27 74.5t72 53.5q14 6 28.5 9.5t25.5 3.5q9 0 9 -6q0 -7 -16 -8q-14 -2 -28.5 -6t-22.5 -9q-24 -13 -40 -38.5t-16 -51.5q0 -28 22.5 -46t56.5 -18q39 0 75.5 19.5t65 52t46 73.5t17.5 84q0 48 -34.5 74t-96.5 26q-52 0 -105 -21t-102.5 -57t-92.5 -85t-75.5 -104.5
t-51 -115.5t-18.5 -118q0 -34 11.5 -62t32.5 -48t50.5 -31t65.5 -11q41 0 83 10.5t82 30t76.5 47t66.5 62.5q20 23 35.5 46t23.5 41q3 6 9 6q5 0 5 -6q0 -4 -7 -17t-18 -29t-24 -33.5t-24 -30.5q-38 -42 -81 -76.5t-88 -58.5t-90 -37t-87 -13q-14 0 -25.5 1.5t-25.5 3.5z
" />
    <glyph glyph-name="Eacute" unicode="&#xc9;" horiz-adv-x="638" 
d="M527 451q6 1 13 1h14q45 0 71.5 -9t26.5 -26q0 -14 -19.5 -21t-54.5 -7q-36 0 -68 9t-66 29q-45 -14 -74 -29t-58 -38q-23 -19 -41.5 -42.5t-32 -48.5t-21 -50.5t-7.5 -49.5q0 -30 14 -55.5t39.5 -44t60 -29t76.5 -10.5q146 0 267 98q14 11 29 25t29 28.5t26 28.5t20 25
q4 7 9 7q4 0 4 -4t-10.5 -18.5t-26.5 -33.5t-34.5 -38.5t-34.5 -33.5q-70 -63 -154 -98t-165 -35q-52 0 -99 16t-81 45q-56 49 -56 119q0 33 12 65.5t33.5 62t53 55t70.5 44.5q34 17 67 28t81 22q-24 36 -24 61v1q0 2 1 3q-54 11 -100 31q-34 16 -52.5 39.5t-18.5 51.5
q0 19 10.5 35.5t29 28.5t44.5 19t57 7q17 0 33.5 -2t30 -5t21.5 -6.5t8 -7.5q0 -6 -7 -6q-2 0 -8 2q-39 13 -72 13q-21 0 -39.5 -6.5t-32.5 -18t-22 -26.5t-8 -32q0 -73 127 -106q8 29 17.5 48.5t24.5 35.5q49 52 126 80.5t170 28.5q59 0 90.5 -15t31.5 -43
q0 -29 -30.5 -56.5t-80 -49t-113 -34.5t-130.5 -13q-10 0 -19 0.5t-25 1.5q-3 -12 -3 -20t2 -14t8 -16h9zM482 508q20 -2 30 -2h22q95 0 193 40q51 20 78.5 46.5t27.5 55.5q0 23 -21 35.5t-58 12.5q-47 0 -94 -16.5t-85 -43t-63.5 -60t-29.5 -68.5zM491 437q17 -20 34 -28
t42 -8q14 0 23.5 4t9.5 11q0 11 -17 16.5t-48 5.5h-15t-29 -1zM931 890q-11 -15 -36 -36t-56 -42t-63 -39.5t-57 -27.5q-7 -3 -11.5 -5t-6.5 -3q-7 -4 -9 -4q-5 0 -5 3q0 1 1 2t6 4.5t15.5 10t30.5 18.5q50 35 79.5 67t32.5 53z" />
    <glyph glyph-name="Ecircumflex" unicode="&#xca;" horiz-adv-x="638" 
d="M527 451q6 1 13 1h14q45 0 71.5 -9t26.5 -26q0 -14 -19.5 -21t-54.5 -7q-36 0 -68 9t-66 29q-45 -14 -74 -29t-58 -38q-23 -19 -41.5 -42.5t-32 -48.5t-21 -50.5t-7.5 -49.5q0 -30 14 -55.5t39.5 -44t60 -29t76.5 -10.5q146 0 267 98q14 11 29 25t29 28.5t26 28.5t20 25
q4 7 9 7q4 0 4 -4t-10.5 -18.5t-26.5 -33.5t-34.5 -38.5t-34.5 -33.5q-70 -63 -154 -98t-165 -35q-52 0 -99 16t-81 45q-56 49 -56 119q0 33 12 65.5t33.5 62t53 55t70.5 44.5q34 17 67 28t81 22q-24 36 -24 61v1q0 2 1 3q-54 11 -100 31q-34 16 -52.5 39.5t-18.5 51.5
q0 19 10.5 35.5t29 28.5t44.5 19t57 7q17 0 33.5 -2t30 -5t21.5 -6.5t8 -7.5q0 -6 -7 -6q-2 0 -8 2q-39 13 -72 13q-21 0 -39.5 -6.5t-32.5 -18t-22 -26.5t-8 -32q0 -73 127 -106q8 29 17.5 48.5t24.5 35.5q49 52 126 80.5t170 28.5q59 0 90.5 -15t31.5 -43
q0 -29 -30.5 -56.5t-80 -49t-113 -34.5t-130.5 -13q-10 0 -19 0.5t-25 1.5q-3 -12 -3 -20t2 -14t8 -16h9zM482 508q20 -2 30 -2h22q95 0 193 40q51 20 78.5 46.5t27.5 55.5q0 23 -21 35.5t-58 12.5q-47 0 -94 -16.5t-85 -43t-63.5 -60t-29.5 -68.5zM491 437q17 -20 34 -28
t42 -8q14 0 23.5 4t9.5 11q0 11 -17 16.5t-48 5.5h-15t-29 -1zM719 757q-33 -21 -35 -21q-3 0 -3 3t3 6.5t14 13.5l117 104q23 20 40 20q11 0 18.5 -5t7.5 -13q0 -4 -1.5 -8.5t-9.5 -29.5l-21 -62q-7 -23 -8 -26.5t-3 -3.5q-6 0 -4 10l1 87z" />
    <glyph glyph-name="Edieresis" unicode="&#xcb;" horiz-adv-x="638" 
d="M745 873q11 0 18.5 -8t7.5 -19q0 -13 -6 -26.5t-15.5 -24t-21.5 -17t-24 -6.5q-11 0 -19 9t-7 20q1 13 7.5 26t16 23t21 16.5t22.5 6.5zM872 870q25 0 25 -26q0 -13 -5.5 -26t-14.5 -23t-20.5 -16.5t-23.5 -6.5q-11 0 -19.5 9.5t-7.5 20.5q1 13 7.5 25t15.5 21.5
t20.5 15.5t22.5 6zM527 451q6 1 13 1h14q45 0 71.5 -9t26.5 -26q0 -14 -19.5 -21t-54.5 -7q-36 0 -68 9t-66 29q-45 -14 -74 -29t-58 -38q-23 -19 -41.5 -42.5t-32 -48.5t-21 -50.5t-7.5 -49.5q0 -30 14 -55.5t39.5 -44t60 -29t76.5 -10.5q146 0 267 98q14 11 29 25t29 28.5
t26 28.5t20 25q4 7 9 7q4 0 4 -4t-10.5 -18.5t-26.5 -33.5t-34.5 -38.5t-34.5 -33.5q-70 -63 -154 -98t-165 -35q-52 0 -99 16t-81 45q-56 49 -56 119q0 33 12 65.5t33.5 62t53 55t70.5 44.5q34 17 67 28t81 22q-24 36 -24 61v1q0 2 1 3q-54 11 -100 31q-34 16 -52.5 39.5
t-18.5 51.5q0 19 10.5 35.5t29 28.5t44.5 19t57 7q17 0 33.5 -2t30 -5t21.5 -6.5t8 -7.5q0 -6 -7 -6q-2 0 -8 2q-39 13 -72 13q-21 0 -39.5 -6.5t-32.5 -18t-22 -26.5t-8 -32q0 -73 127 -106q8 29 17.5 48.5t24.5 35.5q49 52 126 80.5t170 28.5q59 0 90.5 -15t31.5 -43
q0 -29 -30.5 -56.5t-80 -49t-113 -34.5t-130.5 -13q-10 0 -19 0.5t-25 1.5q-3 -12 -3 -20t2 -14t8 -16h9zM482 508q20 -2 30 -2h22q95 0 193 40q51 20 78.5 46.5t27.5 55.5q0 23 -21 35.5t-58 12.5q-47 0 -94 -16.5t-85 -43t-63.5 -60t-29.5 -68.5zM491 437q17 -20 34 -28
t42 -8q14 0 23.5 4t9.5 11q0 11 -17 16.5t-48 5.5h-15t-29 -1z" />
    <glyph glyph-name="Egrave" unicode="&#xc8;" horiz-adv-x="638" 
d="M527 451q6 1 13 1h14q45 0 71.5 -9t26.5 -26q0 -14 -19.5 -21t-54.5 -7q-36 0 -68 9t-66 29q-45 -14 -74 -29t-58 -38q-23 -19 -41.5 -42.5t-32 -48.5t-21 -50.5t-7.5 -49.5q0 -30 14 -55.5t39.5 -44t60 -29t76.5 -10.5q146 0 267 98q14 11 29 25t29 28.5t26 28.5t20 25
q4 7 9 7q4 0 4 -4t-10.5 -18.5t-26.5 -33.5t-34.5 -38.5t-34.5 -33.5q-70 -63 -154 -98t-165 -35q-52 0 -99 16t-81 45q-56 49 -56 119q0 33 12 65.5t33.5 62t53 55t70.5 44.5q34 17 67 28t81 22q-24 36 -24 61v1q0 2 1 3q-54 11 -100 31q-34 16 -52.5 39.5t-18.5 51.5
q0 19 10.5 35.5t29 28.5t44.5 19t57 7q17 0 33.5 -2t30 -5t21.5 -6.5t8 -7.5q0 -6 -7 -6q-2 0 -8 2q-39 13 -72 13q-21 0 -39.5 -6.5t-32.5 -18t-22 -26.5t-8 -32q0 -73 127 -106q8 29 17.5 48.5t24.5 35.5q49 52 126 80.5t170 28.5q59 0 90.5 -15t31.5 -43
q0 -29 -30.5 -56.5t-80 -49t-113 -34.5t-130.5 -13q-10 0 -19 0.5t-25 1.5q-3 -12 -3 -20t2 -14t8 -16h9zM482 508q20 -2 30 -2h22q95 0 193 40q51 20 78.5 46.5t27.5 55.5q0 23 -21 35.5t-58 12.5q-47 0 -94 -16.5t-85 -43t-63.5 -60t-29.5 -68.5zM491 437q17 -20 34 -28
t42 -8q14 0 23.5 4t9.5 11q0 11 -17 16.5t-48 5.5h-15t-29 -1zM752 889q0 -66 22 -114q13 -27 15.5 -33t2.5 -8q0 -4 -3 -4t-7 6q-3 2 -10 13q-15 21 -23.5 32.5t-14 19t-8.5 13t-8 14.5q-8 15 -15.5 28.5t-14.5 24.5l-4 8h68z" />
    <glyph glyph-name="Iacute" unicode="&#xcd;" horiz-adv-x="549" 
d="M742 490q32 40 58.5 68t53.5 50t57.5 40.5t71.5 38.5q-14 1 -24.5 1.5t-18.5 0.5q-19 0 -48 -3t-61 -8t-62.5 -11.5t-52.5 -12.5q-49 -14 -103 -43.5t-97 -66.5q-45 -38 -68 -77.5t-23 -76.5q0 -30 21.5 -51t53.5 -21q42 0 88 28l4 2q3 0 3 -3t-18 -15q-26 -19 -60 -30
t-66 -11q-43 0 -71 26t-28 67q0 35 17 70t48 68t75 62t99 52q26 11 50 19t49.5 14.5t55.5 11.5t68 10q42 5 76.5 8t52.5 3q16 0 32.5 -1t30 -3t22 -4.5t8.5 -5.5q0 -4 -7 -5q-40 -2 -78 -32.5t-85 -97.5l-170 -266q-50 -78 -119.5 -143t-145.5 -105q-54 -29 -106 -42.5
t-108 -13.5q-74 0 -119 24t-45 63q0 20 14 36t33 16q14 0 25 -9.5t11 -21.5q0 -9 -11 -20q-8 -8 -8 -15q0 -11 9.5 -22t24.5 -19.5t34.5 -13.5t39.5 -5q49 0 99 20t93 57q16 14 33.5 31.5t34.5 36t32.5 36.5t26.5 34zM1109 890q-11 -15 -36 -36t-56 -42t-63 -39.5t-57 -27.5
q-7 -3 -11.5 -5t-6.5 -3q-7 -4 -9 -4q-5 0 -5 3q0 1 1 2t6 4.5t15.5 10t30.5 18.5q50 35 79.5 67t32.5 53z" />
    <glyph glyph-name="Icircumflex" unicode="&#xce;" horiz-adv-x="549" 
d="M850 756q-10 -6 -15.5 -10t-8.5 -5.5t-5 -2t-5 -0.5q-9 0 -9 8t18 23l122 107q17 15 24 18.5t19 3.5q14 0 23 -6.5t9 -16.5t-3 -20l-33 -97q-7 -23 -13 -23q-5 0 -6 4t-1 18v78zM742 490q32 40 58.5 68t53.5 50t57.5 40.5t71.5 38.5q-14 1 -24.5 1.5t-18.5 0.5
q-19 0 -48 -3t-61 -8t-62.5 -11.5t-52.5 -12.5q-49 -14 -103 -43.5t-97 -66.5q-45 -38 -68 -77.5t-23 -76.5q0 -30 21.5 -51t53.5 -21q42 0 88 28l4 2q3 0 3 -3t-18 -15q-26 -19 -60 -30t-66 -11q-43 0 -71 26t-28 67q0 35 17 70t48 68t75 62t99 52q26 11 50 19t49.5 14.5
t55.5 11.5t68 10q42 5 76.5 8t52.5 3q16 0 32.5 -1t30 -3t22 -4.5t8.5 -5.5q0 -4 -7 -5q-40 -2 -78 -32.5t-85 -97.5l-170 -266q-50 -78 -119.5 -143t-145.5 -105q-54 -29 -106 -42.5t-108 -13.5q-74 0 -119 24t-45 63q0 20 14 36t33 16q14 0 25 -9.5t11 -21.5q0 -9 -11 -20
q-8 -8 -8 -15q0 -11 9.5 -22t24.5 -19.5t34.5 -13.5t39.5 -5q49 0 99 20t93 57q16 14 33.5 31.5t34.5 36t32.5 36.5t26.5 34z" />
    <glyph glyph-name="Idieresis" unicode="&#xcf;" horiz-adv-x="549" 
d="M828 873q11 0 18.5 -8t7.5 -19q0 -13 -6 -26.5t-15.5 -24t-21.5 -17t-24 -6.5q-11 0 -19 9t-7 20q1 13 7.5 26t16 23t21 16.5t22.5 6.5zM932 870q11 0 18 -7.5t7 -18.5q0 -13 -5.5 -26t-14.5 -23t-20.5 -16.5t-23.5 -6.5q-11 0 -19.5 9.5t-7.5 20.5q1 13 7.5 25.5
t15.5 22t20.5 15t22.5 5.5zM742 490q32 40 58.5 68t53.5 50t57.5 40.5t71.5 38.5q-14 1 -24.5 1.5t-18.5 0.5q-19 0 -48 -3t-61 -8t-62.5 -11.5t-52.5 -12.5q-49 -14 -103 -43.5t-97 -66.5q-45 -38 -68 -77.5t-23 -76.5q0 -30 21.5 -51t53.5 -21q42 0 88 28l4 2q3 0 3 -3
t-18 -15q-26 -19 -60 -30t-66 -11q-43 0 -71 26t-28 67q0 35 17 70t48 68t75 62t99 52q26 11 50 19t49.5 14.5t55.5 11.5t68 10q42 5 76.5 8t52.5 3q16 0 32.5 -1t30 -3t22 -4.5t8.5 -5.5q0 -4 -7 -5q-40 -2 -78 -32.5t-85 -97.5l-170 -266q-50 -78 -119.5 -143t-145.5 -105
q-54 -29 -106 -42.5t-108 -13.5q-74 0 -119 24t-45 63q0 20 14 36t33 16q14 0 25 -9.5t11 -21.5q0 -9 -11 -20q-8 -8 -8 -15q0 -11 9.5 -22t24.5 -19.5t34.5 -13.5t39.5 -5q49 0 99 20t93 57q16 14 33.5 31.5t34.5 36t32.5 36.5t26.5 34z" />
    <glyph glyph-name="Igrave" unicode="&#xcc;" horiz-adv-x="549" 
d="M742 490q32 40 58.5 68t53.5 50t57.5 40.5t71.5 38.5q-14 1 -24.5 1.5t-18.5 0.5q-19 0 -48 -3t-61 -8t-62.5 -11.5t-52.5 -12.5q-49 -14 -103 -43.5t-97 -66.5q-45 -38 -68 -77.5t-23 -76.5q0 -30 21.5 -51t53.5 -21q42 0 88 28l4 2q3 0 3 -3t-18 -15q-26 -19 -60 -30
t-66 -11q-43 0 -71 26t-28 67q0 35 17 70t48 68t75 62t99 52q26 11 50 19t49.5 14.5t55.5 11.5t68 10q42 5 76.5 8t52.5 3q16 0 32.5 -1t30 -3t22 -4.5t8.5 -5.5q0 -4 -7 -5q-40 -2 -78 -32.5t-85 -97.5l-170 -266q-50 -78 -119.5 -143t-145.5 -105q-54 -29 -106 -42.5
t-108 -13.5q-74 0 -119 24t-45 63q0 20 14 36t33 16q14 0 25 -9.5t11 -21.5q0 -9 -11 -20q-8 -8 -8 -15q0 -11 9.5 -22t24.5 -19.5t34.5 -13.5t39.5 -5q49 0 99 20t93 57q16 14 33.5 31.5t34.5 36t32.5 36.5t26.5 34zM952 889q0 -66 22 -114q13 -27 15.5 -33t2.5 -8
q0 -4 -3 -4t-7 6q-3 2 -10 13q-15 21 -23.5 32.5t-14 19t-8.5 13t-8 14.5q-8 15 -15.5 28.5t-14.5 24.5l-4 8h68z" />
    <glyph glyph-name="Ntilde" unicode="&#xd1;" horiz-adv-x="892" 
d="M1179 852q5 0 9 -0.5t13 -2.5t25 -7t45 -14q9 -2 19 -4t18 -2q18 0 28.5 8.5t10.5 23.5q0 9 -7 23q-3 6 -3 8q0 7 11 7q31 0 31 -28q0 -16 -10.5 -30.5t-27.5 -26t-39 -18.5t-45 -7q-15 0 -42 7t-47 16q-14 6 -20 6t-12 -3t-16 -13q-4 -2 -7 -2q-9 0 -9 9q0 4 2.5 7
t18.5 18q14 14 26 19.5t28 5.5zM1069 373q38 62 68.5 109.5t56 83.5t47 63t42.5 50q33 37 65 56.5t58 19.5q15 0 25.5 -9t10.5 -23q0 -11 -6.5 -19t-14.5 -8q-2 0 -4.5 1t-18.5 6q-3 1 -10 1q-15 0 -39 -12.5t-46 -32.5t-49 -51t-56 -69t-59 -82t-58 -90l-153 -249
q-9 -17 -23.5 -37.5t-28.5 -38.5t-25.5 -30t-14.5 -12q-7 0 -7 7q0 4 4 8q12 15 17 25.5t13 33.5q8 27 13.5 63.5t5.5 68.5l-2 182q0 31 3 59t9.5 56.5t17 59t25.5 66.5q-6 -7 -10.5 -12l-9 -10t-9 -11.5t-10.5 -15.5l-188 -289q-19 -30 -48 -67t-64 -77
q-75 -86 -145 -125.5t-148 -39.5q-36 0 -65.5 12.5t-51 34.5t-33.5 52.5t-12 66.5q0 72 38 144.5t105 128.5q45 37 92.5 58t86.5 21q52 0 84.5 -28.5t32.5 -74.5q0 -32 -13.5 -63.5t-37.5 -54.5q-13 -12 -25 -19.5t-19 -7.5q-6 0 -6 6q0 4 2.5 6t13.5 7q17 9 30 36.5
t13 56.5q0 45 -28.5 74t-72.5 29q-47 0 -91 -22.5t-78 -60t-54.5 -86.5t-20.5 -101q0 -34 10 -61.5t29 -47.5t44.5 -31t57.5 -11q64 0 126 33.5t130 105.5q7 7 23 25.5t33 38.5t31.5 37.5t17.5 22.5l195 280q12 17 21 29.5t18 23t18 19.5t20 19q23 21 40 33t24 12q4 0 4 -4
q0 -2 -5 -6q-19 -12 -32 -28.5t-21.5 -40t-13 -54.5t-5.5 -73l6 -163l1 -10q2 -32 -10 -88t-36 -126z" />
    <glyph glyph-name="Oacute" unicode="&#xd3;" horiz-adv-x="604" 
d="M782 731q48 0 77.5 -32.5t29.5 -85.5q0 -61 -23 -132t-63.5 -141.5t-96 -137t-120.5 -118.5q-128 -102 -256 -102q-81 0 -127.5 47t-46.5 128q0 51 18 105.5t51.5 108.5t81.5 106t109 99q22 17 46 33t45.5 28t38 19.5t24.5 7.5q5 0 5 -5q0 -2 -4 -4.5t-19 -10.5
q-40 -18 -78.5 -48.5t-73.5 -68t-65 -81.5t-51.5 -88.5t-34 -89t-12.5 -83.5q0 -70 40 -110t110 -40q123 0 248 128q47 48 84.5 100.5t63.5 106.5t40 108t14 104q0 55 -24 84.5t-69 29.5q-47 0 -92.5 -22t-84.5 -64q-38 -41 -60 -88t-22 -89q0 -47 28 -75t76 -28q35 0 63 13
t66 46q4 4 7 4q4 0 4 -4q0 -5 -14 -18t-34 -26q-30 -20 -64 -30.5t-66 -10.5q-48 0 -80 27t-32 68q0 37 14.5 76t40 76t59.5 70t72 57.5t78 38.5t79 14zM969 921q-11 -15 -36 -36t-56 -42t-63 -39.5t-57 -27.5q-7 -3 -11.5 -5t-6.5 -3q-7 -4 -9 -4q-5 0 -5 3q0 1 1 2t6 4.5
t15.5 10t30.5 18.5q50 35 79.5 67t32.5 53z" />
    <glyph glyph-name="Ocircumflex" unicode="&#xd4;" horiz-adv-x="604" 
d="M782 731q48 0 77.5 -32.5t29.5 -85.5q0 -61 -23 -132t-63.5 -141.5t-96 -137t-120.5 -118.5q-128 -102 -256 -102q-81 0 -127.5 47t-46.5 128q0 51 18 105.5t51.5 108.5t81.5 106t109 99q22 17 46 33t45.5 28t38 19.5t24.5 7.5q5 0 5 -5q0 -2 -4 -4.5t-19 -10.5
q-40 -18 -78.5 -48.5t-73.5 -68t-65 -81.5t-51.5 -88.5t-34 -89t-12.5 -83.5q0 -70 40 -110t110 -40q123 0 248 128q47 48 84.5 100.5t63.5 106.5t40 108t14 104q0 55 -24 84.5t-69 29.5q-47 0 -92.5 -22t-84.5 -64q-38 -41 -60 -88t-22 -89q0 -47 28 -75t76 -28q35 0 63 13
t66 46q4 4 7 4q4 0 4 -4q0 -5 -14 -18t-34 -26q-30 -20 -64 -30.5t-66 -10.5q-48 0 -80 27t-32 68q0 37 14.5 76t40 76t59.5 70t72 57.5t78 38.5t79 14zM738 772q-33 -21 -35 -21q-3 0 -3 3t3 6.5t14 13.5l117 104q23 20 40 20q11 0 18.5 -5t7.5 -13q0 -4 -1.5 -8.5
t-9.5 -29.5l-21 -62q-7 -23 -8 -26.5t-3 -3.5q-6 0 -4 10l1 87z" />
    <glyph glyph-name="Odieresis" unicode="&#xd6;" horiz-adv-x="604" 
d="M779 873q11 0 18.5 -8t7.5 -19q0 -13 -6 -26.5t-15.5 -24t-21.5 -17t-24 -6.5q-11 0 -19 9t-7 20q1 13 7.5 26t16 23t21 16.5t22.5 6.5zM905 870q11 0 18 -7.5t7 -18.5q0 -13 -5.5 -26t-14.5 -23t-20.5 -16.5t-23.5 -6.5q-11 0 -19.5 9.5t-7.5 20.5q1 13 7.5 25.5
t15.5 22t20.5 15t22.5 5.5zM782 731q48 0 77.5 -32.5t29.5 -85.5q0 -61 -23 -132t-63.5 -141.5t-96 -137t-120.5 -118.5q-128 -102 -256 -102q-81 0 -127.5 47t-46.5 128q0 51 18 105.5t51.5 108.5t81.5 106t109 99q22 17 46 33t45.5 28t38 19.5t24.5 7.5q5 0 5 -5
q0 -2 -4 -4.5t-19 -10.5q-40 -18 -78.5 -48.5t-73.5 -68t-65 -81.5t-51.5 -88.5t-34 -89t-12.5 -83.5q0 -70 40 -110t110 -40q123 0 248 128q47 48 84.5 100.5t63.5 106.5t40 108t14 104q0 55 -24 84.5t-69 29.5q-47 0 -92.5 -22t-84.5 -64q-38 -41 -60 -88t-22 -89
q0 -47 28 -75t76 -28q35 0 63 13t66 46q4 4 7 4q4 0 4 -4q0 -5 -14 -18t-34 -26q-30 -20 -64 -30.5t-66 -10.5q-48 0 -80 27t-32 68q0 37 14.5 76t40 76t59.5 70t72 57.5t78 38.5t79 14z" />
    <glyph glyph-name="Ograve" unicode="&#xd2;" horiz-adv-x="604" 
d="M782 731q48 0 77.5 -32.5t29.5 -85.5q0 -61 -23 -132t-63.5 -141.5t-96 -137t-120.5 -118.5q-128 -102 -256 -102q-81 0 -127.5 47t-46.5 128q0 51 18 105.5t51.5 108.5t81.5 106t109 99q22 17 46 33t45.5 28t38 19.5t24.5 7.5q5 0 5 -5q0 -2 -4 -4.5t-19 -10.5
q-40 -18 -78.5 -48.5t-73.5 -68t-65 -81.5t-51.5 -88.5t-34 -89t-12.5 -83.5q0 -70 40 -110t110 -40q123 0 248 128q47 48 84.5 100.5t63.5 106.5t40 108t14 104q0 55 -24 84.5t-69 29.5q-47 0 -92.5 -22t-84.5 -64q-38 -41 -60 -88t-22 -89q0 -47 28 -75t76 -28q35 0 63 13
t66 46q4 4 7 4q4 0 4 -4q0 -5 -14 -18t-34 -26q-30 -20 -64 -30.5t-66 -10.5q-48 0 -80 27t-32 68q0 37 14.5 76t40 76t59.5 70t72 57.5t78 38.5t79 14zM775 925q0 -66 22 -114q13 -27 15.5 -33t2.5 -8q0 -4 -3 -4t-7 6q-3 2 -10 13q-15 21 -23.5 32.5t-14 19t-8.5 13
t-8 14.5q-8 15 -15.5 28.5t-14.5 24.5l-4 8h68z" />
    <glyph glyph-name="Otilde" unicode="&#xd5;" horiz-adv-x="604" 
d="M782 731q48 0 77.5 -32.5t29.5 -85.5q0 -61 -23 -132t-63.5 -141.5t-96 -137t-120.5 -118.5q-128 -102 -256 -102q-81 0 -127.5 47t-46.5 128q0 51 18 105.5t51.5 108.5t81.5 106t109 99q22 17 46 33t45.5 28t38 19.5t24.5 7.5q5 0 5 -5q0 -2 -4 -4.5t-19 -10.5
q-40 -18 -78.5 -48.5t-73.5 -68t-65 -81.5t-51.5 -88.5t-34 -89t-12.5 -83.5q0 -70 40 -110t110 -40q123 0 248 128q47 48 84.5 100.5t63.5 106.5t40 108t14 104q0 55 -24 84.5t-69 29.5q-47 0 -92.5 -22t-84.5 -64q-38 -41 -60 -88t-22 -89q0 -47 28 -75t76 -28q35 0 63 13
t66 46q4 4 7 4q4 0 4 -4q0 -5 -14 -18t-34 -26q-30 -20 -64 -30.5t-66 -10.5q-48 0 -80 27t-32 68q0 37 14.5 76t40 76t59.5 70t72 57.5t78 38.5t79 14zM926 881q11 0 19 -8t8 -19q0 -14 -9 -27t-24 -23t-35 -16t-41 -6q-7 0 -12 0.5t-15.5 3t-30 8t-54.5 15.5q-2 1 -5 1
q-5 0 -12 -3t-10 -6q-11 -10 -12.5 -11.5t-2.5 -1.5q-4 0 -4 5q0 2 3 5l20 20q23 22 47 22q4 0 7.5 -0.5t12 -2t25 -5t46.5 -9.5q34 -13 43 -13q14 0 25.5 12.5t11.5 29.5q0 15 -7 29h6z" />
    <glyph glyph-name="Scaron" unicode="&#x160;" horiz-adv-x="611" 
d="M975 902q10 7 16 10.5t9 5t5 2t4 0.5q9 0 9 -8q0 -7 -18 -24l-122 -106q-17 -14 -24 -18t-19 -4q-14 0 -23 6.5t-9 16.5t3 19l33 98q5 14 7.5 18.5t5.5 4.5q5 0 6 -4t1 -19v-77zM558 445q-7 17 -7 49q0 46 19 87t51.5 71.5t76 48t93.5 17.5q56 0 89 -29t33 -78
q0 -31 -12 -60t-31.5 -51.5t-45.5 -36t-53 -13.5q-11 0 -20 5t-9 10q0 4 4 4q1 0 7 -2q9 -6 19 -6q19 0 37.5 11.5t33.5 30.5t24 43t9 49q0 48 -28.5 76.5t-76.5 28.5q-32 0 -59.5 -13t-47 -35.5t-30.5 -54t-11 -68.5q0 -42 11 -69l57 -142q12 -30 12 -70
q0 -63 -27.5 -113.5t-81.5 -85.5q-48 -32 -108 -49.5t-122 -17.5q-48 0 -88.5 14t-70 39t-45.5 60.5t-16 77.5q0 52 23 99.5t61.5 84t89 58t106.5 21.5q48 0 77 -26t29 -68q0 -35 -17 -69t-46 -58q-13 -10 -29 -17.5t-26 -7.5q-6 0 -6 5q0 3 8 5q33 14 55 47t22 70
q0 44 -28 72t-73 28q-39 0 -74.5 -18t-62 -48t-42.5 -70t-16 -84q0 -43 15 -79t42 -62.5t64 -41t81 -14.5q48 0 90.5 17t74 46.5t49.5 69.5t18 86q0 34 -8 58z" />
    <glyph glyph-name="Uacute" unicode="&#xda;" horiz-adv-x="930" 
d="M1061 653q8 -1 14 -1h11q14 0 30 2.5t39 7.5l-265 -394q-21 -31 -38.5 -62.5t-31 -59t-21 -50t-7.5 -35.5q0 -14 8 -23t22 -9q47 0 136 93q22 23 34.5 36t18.5 19t7.5 8t3.5 4q6 6 8 6q4 0 4 -4q0 -2 -1 -3.5t-7.5 -9t-20 -22.5t-38.5 -43q-11 -12 -25.5 -26t-31 -28
t-33 -27t-30.5 -22q-23 -15 -40.5 -21.5t-37.5 -6.5q-23 0 -37.5 16t-14.5 41q0 14 1.5 26.5t6.5 27.5t13 35t22 49q3 5 6.5 12.5t8.5 18.5q-33 -37 -57.5 -64t-44 -47t-35.5 -34t-32 -26q-35 -26 -71 -41t-65 -15q-30 0 -49 21t-19 53q0 54 34 116q5 10 10 18.5t12.5 20.5
t20.5 30.5t35 50t55.5 77.5t81.5 114q30 42 47 83t17 71q0 26 -16.5 41t-43.5 15q-111 0 -227 -100q-71 -61 -109.5 -128t-38.5 -128q0 -35 20 -54.5t55 -19.5q32 0 57 12t55 41q2 2 4 2t2 -2q0 -3 -7 -12.5t-18 -20.5q-67 -67 -131 -67q-39 0 -63 26.5t-24 68.5
q0 34 13.5 73t38 78.5t58 77t74.5 68.5q61 47 129 73.5t127 26.5q53 0 83 -24t30 -66q0 -67 -69 -165l-85 -121q-37 -51 -57 -79.5t-31.5 -45t-17 -26.5t-13.5 -25q-16 -28 -23 -50t-7 -42q0 -17 11.5 -28t28.5 -11q22 0 54.5 16t66.5 43q10 8 28 26t37 37.5t35.5 38
t23.5 28.5l119 165zM1158 890q-11 -15 -36 -36t-56 -42t-63 -39.5t-57 -27.5q-7 -3 -11.5 -5t-6.5 -3q-7 -4 -9 -4q-5 0 -5 3q0 1 1 2t6 4.5t15.5 10t30.5 18.5q50 35 79.5 67t32.5 53z" />
    <glyph glyph-name="Ucircumflex" unicode="&#xdb;" horiz-adv-x="930" 
d="M908 756q-10 -6 -15.5 -10t-8.5 -5.5t-5 -2t-5 -0.5q-9 0 -9 8t18 23l122 107q17 15 24 18.5t19 3.5q14 0 23 -6.5t9 -16.5t-3 -20l-33 -97q-7 -23 -13 -23q-5 0 -6 4t-1 18v78zM1061 653q8 -1 14 -1h11q14 0 30 2.5t39 7.5l-265 -394q-21 -31 -38.5 -62.5t-31 -59
t-21 -50t-7.5 -35.5q0 -14 8 -23t22 -9q47 0 136 93q22 23 34.5 36t18.5 19t7.5 8t3.5 4q6 6 8 6q4 0 4 -4q0 -2 -1 -3.5t-7.5 -9t-20 -22.5t-38.5 -43q-11 -12 -25.5 -26t-31 -28t-33 -27t-30.5 -22q-23 -15 -40.5 -21.5t-37.5 -6.5q-23 0 -37.5 16t-14.5 41q0 14 1.5 26.5
t6.5 27.5t13 35t22 49q3 5 6.5 12.5t8.5 18.5q-33 -37 -57.5 -64t-44 -47t-35.5 -34t-32 -26q-35 -26 -71 -41t-65 -15q-30 0 -49 21t-19 53q0 54 34 116q5 10 10 18.5t12.5 20.5t20.5 30.5t35 50t55.5 77.5t81.5 114q30 42 47 83t17 71q0 26 -16.5 41t-43.5 15
q-111 0 -227 -100q-71 -61 -109.5 -128t-38.5 -128q0 -35 20 -54.5t55 -19.5q32 0 57 12t55 41q2 2 4 2t2 -2q0 -3 -7 -12.5t-18 -20.5q-67 -67 -131 -67q-39 0 -63 26.5t-24 68.5q0 34 13.5 73t38 78.5t58 77t74.5 68.5q61 47 129 73.5t127 26.5q53 0 83 -24t30 -66
q0 -67 -69 -165l-85 -121q-37 -51 -57 -79.5t-31.5 -45t-17 -26.5t-13.5 -25q-16 -28 -23 -50t-7 -42q0 -17 11.5 -28t28.5 -11q22 0 54.5 16t66.5 43q10 8 28 26t37 37.5t35.5 38t23.5 28.5l119 165z" />
    <glyph glyph-name="Udieresis" unicode="&#xdc;" horiz-adv-x="930" 
d="M931 873q11 0 19 -7.5t8 -19.5q0 -13 -6 -26.5t-16 -24t-22 -17t-24 -6.5q-11 0 -19 9t-7 20q1 13 7.5 26t16 23t21 16.5t22.5 6.5zM1058 870q11 0 18 -7.5t7 -18.5q0 -13 -5.5 -26t-14.5 -23t-20.5 -16.5t-23.5 -6.5q-11 0 -19.5 9.5t-7.5 20.5q1 13 7.5 25.5t15.5 22
t20.5 15t22.5 5.5zM1061 653q8 -1 14 -1h11q14 0 30 2.5t39 7.5l-265 -394q-21 -31 -38.5 -62.5t-31 -59t-21 -50t-7.5 -35.5q0 -14 8 -23t22 -9q47 0 136 93q22 23 34.5 36t18.5 19t7.5 8t3.5 4q6 6 8 6q4 0 4 -4q0 -2 -1 -3.5t-7.5 -9t-20 -22.5t-38.5 -43
q-11 -12 -25.5 -26t-31 -28t-33 -27t-30.5 -22q-23 -15 -40.5 -21.5t-37.5 -6.5q-23 0 -37.5 16t-14.5 41q0 14 1.5 26.5t6.5 27.5t13 35t22 49q3 5 6.5 12.5t8.5 18.5q-33 -37 -57.5 -64t-44 -47t-35.5 -34t-32 -26q-35 -26 -71 -41t-65 -15q-30 0 -49 21t-19 53
q0 54 34 116q5 10 10 18.5t12.5 20.5t20.5 30.5t35 50t55.5 77.5t81.5 114q30 42 47 83t17 71q0 26 -16.5 41t-43.5 15q-111 0 -227 -100q-71 -61 -109.5 -128t-38.5 -128q0 -35 20 -54.5t55 -19.5q32 0 57 12t55 41q2 2 4 2t2 -2q0 -3 -7 -12.5t-18 -20.5q-67 -67 -131 -67
q-39 0 -63 26.5t-24 68.5q0 34 13.5 73t38 78.5t58 77t74.5 68.5q61 47 129 73.5t127 26.5q53 0 83 -24t30 -66q0 -67 -69 -165l-85 -121q-37 -51 -57 -79.5t-31.5 -45t-17 -26.5t-13.5 -25q-16 -28 -23 -50t-7 -42q0 -17 11.5 -28t28.5 -11q22 0 54.5 16t66.5 43
q10 8 28 26t37 37.5t35.5 38t23.5 28.5l119 165z" />
    <glyph glyph-name="Ugrave" unicode="&#xd9;" horiz-adv-x="930" 
d="M1061 653q8 -1 14 -1h11q14 0 30 2.5t39 7.5l-265 -394q-21 -31 -38.5 -62.5t-31 -59t-21 -50t-7.5 -35.5q0 -14 8 -23t22 -9q47 0 136 93q22 23 34.5 36t18.5 19t7.5 8t3.5 4q6 6 8 6q4 0 4 -4q0 -2 -1 -3.5t-7.5 -9t-20 -22.5t-38.5 -43q-11 -12 -25.5 -26t-31 -28
t-33 -27t-30.5 -22q-23 -15 -40.5 -21.5t-37.5 -6.5q-23 0 -37.5 16t-14.5 41q0 14 1.5 26.5t6.5 27.5t13 35t22 49q3 5 6.5 12.5t8.5 18.5q-33 -37 -57.5 -64t-44 -47t-35.5 -34t-32 -26q-35 -26 -71 -41t-65 -15q-30 0 -49 21t-19 53q0 54 34 116q5 10 10 18.5t12.5 20.5
t20.5 30.5t35 50t55.5 77.5t81.5 114q30 42 47 83t17 71q0 26 -16.5 41t-43.5 15q-111 0 -227 -100q-71 -61 -109.5 -128t-38.5 -128q0 -35 20 -54.5t55 -19.5q32 0 57 12t55 41q2 2 4 2t2 -2q0 -3 -7 -12.5t-18 -20.5q-67 -67 -131 -67q-39 0 -63 26.5t-24 68.5
q0 34 13.5 73t38 78.5t58 77t74.5 68.5q61 47 129 73.5t127 26.5q53 0 83 -24t30 -66q0 -67 -69 -165l-85 -121q-37 -51 -57 -79.5t-31.5 -45t-17 -26.5t-13.5 -25q-16 -28 -23 -50t-7 -42q0 -17 11.5 -28t28.5 -11q22 0 54.5 16t66.5 43q10 8 28 26t37 37.5t35.5 38
t23.5 28.5l119 165zM937 889q0 -66 22 -114q13 -27 15.5 -33t2.5 -8q0 -4 -3 -4t-7 6q-3 2 -10 13q-15 21 -23.5 32.5t-14 19t-8.5 13t-8 14.5q-8 15 -15.5 28.5t-14.5 24.5l-4 8h68z" />
    <glyph glyph-name="Yacute" unicode="&#xdd;" horiz-adv-x="796" 
d="M797 74q-3 -4 -14 -19.5t-27 -36t-33.5 -43.5t-33.5 -43.5t-28 -35.5t-16 -19q-32 -36 -72.5 -65t-85.5 -49.5t-93.5 -32t-94.5 -11.5q-67 0 -106 22.5t-39 60.5q0 24 17.5 41t41.5 17q15 0 26 -9t11 -21q0 -6 -2.5 -9.5t-16.5 -17.5q-4 -6 -4 -14q0 -25 27 -40.5
t69 -15.5q101 0 199 100q24 24 49 53.5t57 72t74 103.5t101 148q-12 -11 -19.5 -18t-10.5 -10q-25 -24 -50 -48.5t-50 -49.5q-8 -8 -20.5 -18t-26.5 -20t-29 -19.5t-28 -16.5q-24 -13 -43 -18.5t-40 -5.5q-35 0 -55 21.5t-20 59.5q0 24 6.5 44.5t25.5 53.5q7 13 16 28
t18.5 30t18 27.5t14.5 20.5l126 161q29 37 75 127q12 23 16.5 38t4.5 31q0 27 -17 42t-49 15q-38 0 -82 -16.5t-87 -44.5t-81.5 -66t-66.5 -81q-27 -42 -43 -82t-16 -66q0 -36 20 -56t55 -20q52 0 106 53q4 5 7 5q4 0 4 -4q0 -12 -31 -40q-35 -32 -63 -46t-57 -14
q-49 0 -75 26t-26 74q0 42 23 92t66 102q37 45 80.5 81.5t90.5 62t95.5 39.5t93.5 14q55 0 85.5 -26t30.5 -72q0 -14 -2 -26.5t-6.5 -25t-12 -27.5t-19.5 -34q-11 -17 -26 -40t-29 -41l-96 -128q-35 -47 -57 -79t-35 -55.5t-17.5 -41t-4.5 -34.5q0 -18 12.5 -30t32.5 -12
q12 0 27.5 5t33 14t35.5 21.5t35 27.5q16 14 28.5 25.5t27.5 27.5t35 39t53 61q17 19 26.5 30t14 16t5.5 6.5t2 3.5l206 302q2 2 3.5 4.5t3.5 6.5q10 20 14.5 24.5t15.5 3.5q22 1 78 6zM1177 891q-11 -15 -36 -36t-56 -42t-63 -39.5t-57 -27.5q-7 -3 -11.5 -5t-6.5 -3
q-7 -4 -9 -4q-5 0 -5 3q0 1 1 2t6 4.5t15.5 10t30.5 18.5q50 35 79.5 67t32.5 53z" />
    <glyph glyph-name="Ydieresis" unicode="&#x178;" horiz-adv-x="796" 
d="M949 873q11 0 19 -7.5t8 -19.5q0 -13 -6 -26.5t-16 -24t-22 -17t-24 -6.5q-11 0 -19 9t-7 20q1 13 7.5 26t16 23t21 16.5t22.5 6.5zM1076 870q25 0 25 -26q0 -13 -5.5 -26t-14.5 -23t-20.5 -16.5t-23.5 -6.5q-11 0 -19.5 9.5t-7.5 20.5q1 13 7.5 25t15.5 21.5t20.5 15.5
t22.5 6zM797 74q-3 -4 -14 -19.5t-27 -36t-33.5 -43.5t-33.5 -43.5t-28 -35.5t-16 -19q-32 -36 -72.5 -65t-85.5 -49.5t-93.5 -32t-94.5 -11.5q-67 0 -106 22.5t-39 60.5q0 24 17.5 41t41.5 17q15 0 26 -9t11 -21q0 -6 -2.5 -9.5t-16.5 -17.5q-4 -6 -4 -14q0 -25 27 -40.5
t69 -15.5q101 0 199 100q24 24 49 53.5t57 72t74 103.5t101 148q-12 -11 -19.5 -18t-10.5 -10q-25 -24 -50 -48.5t-50 -49.5q-8 -8 -20.5 -18t-26.5 -20t-29 -19.5t-28 -16.5q-24 -13 -43 -18.5t-40 -5.5q-35 0 -55 21.5t-20 59.5q0 24 6.5 44.5t25.5 53.5q7 13 16 28
t18.5 30t18 27.5t14.5 20.5l126 161q29 37 75 127q12 23 16.5 38t4.5 31q0 27 -17 42t-49 15q-38 0 -82 -16.5t-87 -44.5t-81.5 -66t-66.5 -81q-27 -42 -43 -82t-16 -66q0 -36 20 -56t55 -20q52 0 106 53q4 5 7 5q4 0 4 -4q0 -12 -31 -40q-35 -32 -63 -46t-57 -14
q-49 0 -75 26t-26 74q0 42 23 92t66 102q37 45 80.5 81.5t90.5 62t95.5 39.5t93.5 14q55 0 85.5 -26t30.5 -72q0 -14 -2 -26.5t-6.5 -25t-12 -27.5t-19.5 -34q-11 -17 -26 -40t-29 -41l-96 -128q-35 -47 -57 -79t-35 -55.5t-17.5 -41t-4.5 -34.5q0 -18 12.5 -30t32.5 -12
q12 0 27.5 5t33 14t35.5 21.5t35 27.5q16 14 28.5 25.5t27.5 27.5t35 39t53 61q17 19 26.5 30t14 16t5.5 6.5t2 3.5l206 302q2 2 3.5 4.5t3.5 6.5q10 20 14.5 24.5t15.5 3.5q22 1 78 6z" />
    <glyph glyph-name="Zcaron" unicode="&#x17d;" horiz-adv-x="818" 
d="M1026 896q10 7 16 10.5t9 5t5 2t4 0.5q9 0 9 -8q0 -7 -18 -24l-122 -106q-17 -14 -24 -18t-19 -4q-14 0 -23 6.5t-9 16.5t3 19l33 98q5 14 7.5 18.5t5.5 4.5q5 0 6 -4t1 -19v-77zM883 266q12 -14 16.5 -26.5t4.5 -32.5q0 -44 -24.5 -85t-65.5 -72.5t-94.5 -50
t-111.5 -18.5q-26 0 -50 3.5t-52.5 11.5t-64 22.5t-83.5 35.5q-58 -22 -101.5 -31.5t-82.5 -9.5q-54 0 -89 15.5t-35 40.5q0 14 12.5 27t34.5 22.5t51 15t62 5.5q42 0 80 -6.5t88 -20.5q31 21 57.5 42t56.5 52.5t68.5 76.5t94.5 114q31 37 54.5 64t46 49t46 42.5t55.5 45.5
q-29 7 -54.5 13t-34.5 8q-28 7 -48.5 11t-38 6.5t-34 3.5t-35.5 1q-49 0 -88.5 -10t-74.5 -31q-45 -26 -70.5 -64t-25.5 -77q0 -32 15.5 -52.5t39.5 -20.5q10 0 21 4q7 3 12 3q6 0 6 -9q0 -17 -16.5 -30t-36.5 -13q-30 0 -50 22.5t-20 55.5q0 32 13.5 65.5t36.5 65t54.5 59
t66.5 48t73 32.5t74 12q19 0 45 -3.5t52 -8.5q7 -2 13 -3t19.5 -5t38 -12t69.5 -22q3 -1 11 -3t20 -6q33 15 59 25t48 15.5t42 8t42 2.5q30 0 47 -9t17 -25q0 -28 -66 -49q-11 -3 -28 -6.5t-35.5 -5.5t-37.5 -3.5t-34 -1.5q-8 0 -22.5 1t-32.5 3q-20 -18 -40 -38t-43 -46
t-52 -62t-68 -85q-39 -50 -73.5 -90t-67 -72.5t-64 -58.5t-64.5 -48q12 -6 19.5 -10t16.5 -7.5t22.5 -8.5t36.5 -14q35 -13 58 -21t39 -12t28 -5.5t26 -1.5q71 0 139 86q61 79 61 149v18zM324 74q-29 13 -50.5 22t-39.5 14t-33.5 7.5t-30.5 2.5q-32 0 -53 -14.5t-21 -35.5
t19 -32.5t54 -11.5q18 0 33 2t32 7t38.5 14.5t51.5 24.5zM952 625q3 0 5 -0.5t6.5 -1.5t12.5 -2t23 -4q10 -2 21 -3t23 -1q40 0 64.5 10.5t24.5 27.5q0 13 -12.5 20.5t-33.5 7.5q-75 0 -134 -54z" />
    <glyph glyph-name="aacute" unicode="&#xe1;" horiz-adv-x="397" 
d="M640 560q-11 -15 -36 -36t-56 -42t-63 -39.5t-57 -27.5q-7 -3 -11.5 -5t-6.5 -3q-7 -4 -9 -4q-5 0 -5 3q0 1 1 2t6 4.5t15.5 10t30.5 18.5q50 35 79.5 67t32.5 53zM477 352l74 3l-150 -217q-7 -11 -13.5 -24t-12 -25.5t-8.5 -24t-3 -18.5q0 -20 18 -20q26 0 63 32t82 92
q14 19 22.5 30.5t10.5 13.5l6 8q3 3 4 3q4 0 4 -4q0 -5 -16.5 -26t-58.5 -70q-94 -112 -156 -112q-39 0 -39 47q0 17 3.5 31t11.5 37q-33 -34 -57 -56t-42.5 -35t-34.5 -18t-33 -5q-27 0 -44 19t-17 51q0 76 72 159q26 30 56.5 55t62 43.5t62 28.5t56.5 10q12 0 23.5 -5
t16.5 -13q4 -5 6 -10.5t5 -17.5zM406 350q-17 2 -41 -10t-51.5 -34.5t-56 -53.5t-52.5 -67q-23 -35 -37.5 -67t-14.5 -52q0 -17 11.5 -28t27.5 -9q20 2 47.5 20t55.5 49q7 8 22 27t32 42t32.5 45.5t24.5 36.5q27 44 27 73q0 25 -27 28z" />
    <glyph glyph-name="acircumflex" unicode="&#xe2;" horiz-adv-x="397" 
d="M390 412q-33 -21 -35 -21q-3 0 -3 3t3 6.5t14 13.5l117 104q23 20 40 20q11 0 18.5 -5t7.5 -13q0 -4 -1.5 -8.5t-9.5 -29.5l-21 -62q-7 -23 -8 -26.5t-3 -3.5q-6 0 -4 10l1 87zM477 352l74 3l-150 -217q-7 -11 -13.5 -24t-12 -25.5t-8.5 -24t-3 -18.5q0 -20 18 -20
q26 0 63 32t82 92q14 19 22.5 30.5t10.5 13.5l6 8q3 3 4 3q4 0 4 -4q0 -5 -16.5 -26t-58.5 -70q-94 -112 -156 -112q-39 0 -39 47q0 17 3.5 31t11.5 37q-33 -34 -57 -56t-42.5 -35t-34.5 -18t-33 -5q-27 0 -44 19t-17 51q0 76 72 159q26 30 56.5 55t62 43.5t62 28.5t56.5 10
q12 0 23.5 -5t16.5 -13q4 -5 6 -10.5t5 -17.5zM406 350q-17 2 -41 -10t-51.5 -34.5t-56 -53.5t-52.5 -67q-23 -35 -37.5 -67t-14.5 -52q0 -17 11.5 -28t27.5 -9q20 2 47.5 20t55.5 49q7 8 22 27t32 42t32.5 45.5t24.5 36.5q27 44 27 73q0 25 -27 28z" />
    <glyph glyph-name="adieresis" unicode="&#xe4;" horiz-adv-x="454" 
d="M397 471q11 0 17.5 -6t6.5 -15q0 -21 -13 -36t-31 -15q-11 0 -18 8.5t-6 19.5q1 17 14 30.5t30 13.5zM492 472q23 0 23 -23q0 -20 -13 -35t-30 -15q-10 0 -17.5 8.5t-6.5 19.5q1 17 14.5 31t29.5 14zM477 352l74 3l-150 -217q-7 -11 -13.5 -24t-12 -25.5t-8.5 -24
t-3 -18.5q0 -20 18 -20q26 0 63 32t82 92q14 19 22.5 30.5t10.5 13.5l6 8q3 3 4 3q4 0 4 -4q0 -5 -16.5 -26t-58.5 -70q-94 -112 -156 -112q-39 0 -39 47q0 17 3.5 31t11.5 37q-33 -34 -57 -56t-42.5 -35t-34.5 -18t-33 -5q-27 0 -44 19t-17 51q0 76 72 159q26 30 56.5 55
t62 43.5t62 28.5t56.5 10q12 0 23.5 -5t16.5 -13q4 -5 6 -10.5t5 -17.5zM406 350q-17 2 -41 -10t-51.5 -34.5t-56 -53.5t-52.5 -67q-23 -35 -37.5 -67t-14.5 -52q0 -17 11.5 -28t27.5 -9q20 2 47.5 20t55.5 49q7 8 22 27t32 42t32.5 45.5t24.5 36.5q27 44 27 73q0 25 -27 28
z" />
    <glyph glyph-name="agrave" unicode="&#xe0;" horiz-adv-x="397" 
d="M430 561q0 -66 22 -114q13 -27 15.5 -33t2.5 -8q0 -4 -3 -4t-7 6q-3 2 -10 13q-15 21 -23.5 32.5t-14 19t-8.5 13t-8 14.5q-8 15 -15.5 28.5t-14.5 24.5l-4 8h68zM477 352l74 3l-150 -217q-7 -11 -13.5 -24t-12 -25.5t-8.5 -24t-3 -18.5q0 -20 18 -20q26 0 63 32t82 92
q14 19 22.5 30.5t10.5 13.5l6 8q3 3 4 3q4 0 4 -4q0 -5 -16.5 -26t-58.5 -70q-94 -112 -156 -112q-39 0 -39 47q0 17 3.5 31t11.5 37q-33 -34 -57 -56t-42.5 -35t-34.5 -18t-33 -5q-27 0 -44 19t-17 51q0 76 72 159q26 30 56.5 55t62 43.5t62 28.5t56.5 10q12 0 23.5 -5
t16.5 -13q4 -5 6 -10.5t5 -17.5zM406 350q-17 2 -41 -10t-51.5 -34.5t-56 -53.5t-52.5 -67q-23 -35 -37.5 -67t-14.5 -52q0 -17 11.5 -28t27.5 -9q20 2 47.5 20t55.5 49q7 8 22 27t32 42t32.5 45.5t24.5 36.5q27 44 27 73q0 25 -27 28z" />
    <glyph glyph-name="aring" unicode="&#xe5;" horiz-adv-x="454" 
d="M433 489q-16 0 -27.5 -12t-11.5 -29q0 -16 11 -26.5t28 -10.5q16 0 27 11.5t11 27.5t-11.5 27.5t-26.5 11.5zM378 450q0 23 15.5 39t38.5 16t39 -16.5t16 -39.5t-15.5 -38.5t-38.5 -15.5q-22 0 -38.5 15.5t-16.5 36.5v3zM477 352l74 3l-150 -217q-7 -11 -13.5 -24
t-12 -25.5t-8.5 -24t-3 -18.5q0 -20 18 -20q26 0 63 32t82 92q14 19 22.5 30.5t10.5 13.5l6 8q3 3 4 3q4 0 4 -4q0 -5 -16.5 -26t-58.5 -70q-94 -112 -156 -112q-39 0 -39 47q0 17 3.5 31t11.5 37q-33 -34 -57 -56t-42.5 -35t-34.5 -18t-33 -5q-27 0 -44 19t-17 51
q0 76 72 159q26 30 56.5 55t62 43.5t62 28.5t56.5 10q12 0 23.5 -5t16.5 -13q4 -5 6 -10.5t5 -17.5zM406 350q-17 2 -41 -10t-51.5 -34.5t-56 -53.5t-52.5 -67q-23 -35 -37.5 -67t-14.5 -52q0 -17 11.5 -28t27.5 -9q20 2 47.5 20t55.5 49q7 8 22 27t32 42t32.5 45.5
t24.5 36.5q27 44 27 73q0 25 -27 28z" />
    <glyph glyph-name="atilde" unicode="&#xe3;" horiz-adv-x="397" 
d="M583 506q11 0 19 -8t8 -19q0 -14 -9 -27t-24 -23t-35 -16t-41 -6q-7 0 -12 0.5t-15.5 3t-30 8t-54.5 15.5q-2 1 -5 1q-5 0 -12 -3t-10 -6q-11 -10 -12.5 -11.5t-2.5 -1.5q-4 0 -4 5q0 2 3 5l20 20q23 22 47 22q4 0 7.5 -0.5t12 -2t25 -5t46.5 -9.5q34 -13 43 -13
q14 0 25.5 12.5t11.5 29.5q0 15 -7 29h6zM477 352l74 3l-150 -217q-7 -11 -13.5 -24t-12 -25.5t-8.5 -24t-3 -18.5q0 -20 18 -20q26 0 63 32t82 92q14 19 22.5 30.5t10.5 13.5l6 8q3 3 4 3q4 0 4 -4q0 -5 -16.5 -26t-58.5 -70q-94 -112 -156 -112q-39 0 -39 47q0 17 3.5 31
t11.5 37q-33 -34 -57 -56t-42.5 -35t-34.5 -18t-33 -5q-27 0 -44 19t-17 51q0 76 72 159q26 30 56.5 55t62 43.5t62 28.5t56.5 10q12 0 23.5 -5t16.5 -13q4 -5 6 -10.5t5 -17.5zM406 350q-17 2 -41 -10t-51.5 -34.5t-56 -53.5t-52.5 -67q-23 -35 -37.5 -67t-14.5 -52
q0 -17 11.5 -28t27.5 -9q20 2 47.5 20t55.5 49q7 8 22 27t32 42t32.5 45.5t24.5 36.5q27 44 27 73q0 25 -27 28z" />
    <glyph glyph-name="ccedilla" unicode="&#xe7;" horiz-adv-x="340" 
d="M143 0q-52 20 -52 77q0 76 72 159q25 29 56.5 53.5t64.5 42.5t65.5 28t60.5 10q19 0 35.5 -10t16.5 -22q0 -5 -5 -13.5t-12 -17t-13.5 -14.5t-10.5 -6q-5 0 -6 20q0 18 -11 32t-25 14q-13 0 -31 -9.5t-39 -27t-43.5 -41.5t-44.5 -53q-60 -80 -60 -141q0 -51 49 -51
q15 0 28.5 2.5t27.5 8.5t30.5 16.5t36.5 25.5q34 26 70 62t65 74q8 11 10.5 13.5t4.5 2.5q4 0 4 -3q0 -1 -2 -5q-5 -5 -10 -15q-9 -13 -26 -32t-36.5 -39.5t-39 -39.5t-34.5 -31q-94 -76 -167 -76h-8t-8 2l-13 -11q2 -3 5 -6q9 -10 14.5 -15.5t8 -9.5t3 -8t0.5 -10
q0 -17 -6.5 -31.5t-18.5 -24.5q-18 -16 -41.5 -25.5t-44.5 -9.5q-18 0 -32.5 12t-14.5 28q0 13 9 21.5t23 8.5q10 0 21 -8l-4 -5q-7 -8 -9 -12.5t-2 -9.5q0 -8 8.5 -13.5t22.5 -5.5q22 0 40 17t18 39q0 10 -6 17.5t-32 28.5l-4 3z" />
    <glyph glyph-name="eacute" unicode="&#xe9;" horiz-adv-x="282" 
d="M585 560q-10 -14 -35.5 -35t-56.5 -42.5t-63.5 -40t-56.5 -27.5q-7 -3 -11.5 -5t-6.5 -3q-7 -4 -9 -4q-5 0 -5 3q0 1 1 2t6 4.5t15.5 10t30.5 18.5q49 35 79 67.5t34 52.5zM188 169q-16 -23 -24.5 -47.5t-8.5 -47.5q0 -19 14.5 -32.5t35.5 -13.5q25 0 55.5 13t62 37.5
t63.5 59t62 76.5q4 5 8 5q3 0 3 -3q0 -4 -11.5 -19t-28 -34.5t-36 -40t-35.5 -35.5q-43 -42 -92 -67.5t-86 -25.5q-38 0 -60.5 23.5t-22.5 63.5q0 30 14 62.5t38.5 64t56 60t67 50t71.5 34.5t69 13q17 0 28 -8t11 -20q0 -22 -23.5 -51.5t-59.5 -52.5q-14 -9 -29 -16.5
t-35 -15t-46 -15.5t-61 -17zM198 188q54 10 88 24.5t64 42.5q49 44 49 78q0 20 -18 20q-27 0 -75 -39q-11 -9 -21 -19t-22.5 -24.5t-28 -34.5t-36.5 -48z" />
    <glyph glyph-name="ecircumflex" unicode="&#xea;" horiz-adv-x="283" 
d="M343 416l-35 -21q-3 0 -3 3t3 7t14 13l116 104q13 11 22 15.5t18 4.5q26 0 26 -18q0 -5 -1.5 -11t-9.5 -27l-20 -62q-4 -11 -6 -17l-3 -9t-1.5 -3.5t-1.5 -0.5q-4 0 -4 10l2 87zM188 169q-16 -23 -24.5 -47.5t-8.5 -47.5q0 -19 14.5 -32.5t35.5 -13.5q25 0 55.5 13
t62 37.5t63.5 59t62 76.5q4 5 8 5q3 0 3 -3q0 -4 -11.5 -19t-28 -34.5t-36 -40t-35.5 -35.5q-43 -42 -92 -67.5t-86 -25.5q-38 0 -60.5 23.5t-22.5 63.5q0 30 14 62.5t38.5 64t56 60t67 50t71.5 34.5t69 13q17 0 28 -8t11 -20q0 -22 -23.5 -51.5t-59.5 -52.5
q-14 -9 -29 -16.5t-35 -15t-46 -15.5t-61 -17zM198 188q54 10 88 24.5t64 42.5q49 44 49 78q0 20 -18 20q-27 0 -75 -39q-11 -9 -21 -19t-22.5 -24.5t-28 -34.5t-36.5 -48z" />
    <glyph glyph-name="edieresis" unicode="&#xeb;" horiz-adv-x="331" 
d="M376 471q11 0 17.5 -6t6.5 -15q0 -21 -13.5 -36t-30.5 -15q-11 0 -18.5 8.5t-6.5 19.5q1 17 14.5 30.5t30.5 13.5zM470 472q23 0 23 -23q0 -20 -13 -35t-30 -15q-10 0 -17.5 8.5t-6.5 19.5q1 17 14.5 31t29.5 14zM188 169q-16 -23 -24.5 -47.5t-8.5 -47.5
q0 -19 14.5 -32.5t35.5 -13.5q25 0 55.5 13t62 37.5t63.5 59t62 76.5q4 5 8 5q3 0 3 -3q0 -4 -11.5 -19t-28 -34.5t-36 -40t-35.5 -35.5q-43 -42 -92 -67.5t-86 -25.5q-38 0 -60.5 23.5t-22.5 63.5q0 30 14 62.5t38.5 64t56 60t67 50t71.5 34.5t69 13q17 0 28 -8t11 -20
q0 -22 -23.5 -51.5t-59.5 -52.5q-14 -9 -29 -16.5t-35 -15t-46 -15.5t-61 -17zM198 188q54 10 88 24.5t64 42.5q49 44 49 78q0 20 -18 20q-27 0 -75 -39q-11 -9 -21 -19t-22.5 -24.5t-28 -34.5t-36.5 -48z" />
    <glyph glyph-name="egrave" unicode="&#xe8;" horiz-adv-x="283" 
d="M381 565q0 -66 22 -114q13 -27 15.5 -33t2.5 -8q0 -4 -3 -4t-7 6q-3 2 -10 13q-15 21 -23.5 32.5t-14 19t-8.5 13t-8 14.5q-8 15 -15.5 28.5t-14.5 24.5q0 2 -1 3.5l-3 4.5h68zM188 169q-16 -23 -24.5 -47.5t-8.5 -47.5q0 -19 14.5 -32.5t35.5 -13.5q25 0 55.5 13
t62 37.5t63.5 59t62 76.5q4 5 8 5q3 0 3 -3q0 -4 -11.5 -19t-28 -34.5t-36 -40t-35.5 -35.5q-43 -42 -92 -67.5t-86 -25.5q-38 0 -60.5 23.5t-22.5 63.5q0 30 14 62.5t38.5 64t56 60t67 50t71.5 34.5t69 13q17 0 28 -8t11 -20q0 -22 -23.5 -51.5t-59.5 -52.5
q-14 -9 -29 -16.5t-35 -15t-46 -15.5t-61 -17zM198 188q54 10 88 24.5t64 42.5q49 44 49 78q0 20 -18 20q-27 0 -75 -39q-11 -9 -21 -19t-22.5 -24.5t-28 -34.5t-36.5 -48z" />
    <glyph glyph-name="iacute" unicode="&#xed;" horiz-adv-x="193" 
d="M469 561q-12 -15 -37 -36t-55.5 -42t-62.5 -39t-57 -28q-7 -3 -11.5 -5t-6.5 -3q-7 -4 -9 -4q-5 0 -5 3q0 1 1 2t6 4.5t15.5 10t30.5 18.5q50 36 79 67.5t33 52.5zM303 361q1 -5 1.5 -8t0.5 -6q0 -9 -4 -20t-11 -21l-100 -143q-21 -35 -32.5 -54.5t-17 -30.5t-6.5 -17
t-1 -13q0 -23 21 -23q31 0 85 51q13 12 31 31.5t35.5 39.5t32.5 38.5t22 29.5q8 11 11 11t3 -2t-2 -4l-6 -9q-15 -21 -33.5 -44.5t-38 -46t-39.5 -43t-36 -34.5q-25 -22 -53.5 -35.5t-48.5 -13.5q-23 0 -36 13t-13 34q0 23 11 50t34 61l94 137q9 14 15 29t6 26v6t-1 8z" />
    <glyph glyph-name="icircumflex" unicode="&#xee;" horiz-adv-x="226" 
d="M234 410q-33 -21 -34 -21q-3 0 -3 3t3.5 7.5t13.5 12.5l116 104q24 20 40 20q11 0 18.5 -5t7.5 -13q0 -4 -1.5 -8.5t-9.5 -29.5l-21 -62q-7 -23 -8 -26.5t-3 -3.5q-4 0 -4 10l1 87zM303 361q1 -5 1.5 -8t0.5 -6q0 -9 -4 -20t-11 -21l-100 -143q-21 -35 -32.5 -54.5
t-17 -30.5t-6.5 -17t-1 -13q0 -23 21 -23q31 0 85 51q13 12 31 31.5t35.5 39.5t32.5 38.5t22 29.5q8 11 11 11t3 -2t-2 -4l-6 -9q-15 -21 -33.5 -44.5t-38 -46t-39.5 -43t-36 -34.5q-25 -22 -53.5 -35.5t-48.5 -13.5q-23 0 -36 13t-13 34q0 23 11 50t34 61l94 137
q9 14 15 29t6 26v6t-1 8z" />
    <glyph glyph-name="idieresis" unicode="&#xef;" horiz-adv-x="226" 
d="M249 471q11 0 17.5 -6t6.5 -15q0 -21 -13 -36t-31 -15q-11 0 -18 8.5t-6 19.5q1 17 14 30.5t30 13.5zM363 472q23 0 23 -23q0 -20 -13 -35t-30 -15q-10 0 -17.5 8.5t-6.5 19.5q1 17 14.5 31t29.5 14zM303 361q1 -5 1.5 -8t0.5 -6q0 -9 -4 -20t-11 -21l-100 -143
q-21 -35 -32.5 -54.5t-17 -30.5t-6.5 -17t-1 -13q0 -23 21 -23q31 0 85 51q13 12 31 31.5t35.5 39.5t32.5 38.5t22 29.5q8 11 11 11t3 -2t-2 -4l-6 -9q-15 -21 -33.5 -44.5t-38 -46t-39.5 -43t-36 -34.5q-25 -22 -53.5 -35.5t-48.5 -13.5q-23 0 -36 13t-13 34q0 23 11 50
t34 61l94 137q9 14 15 29t6 26v6t-1 8z" />
    <glyph glyph-name="igrave" unicode="&#xec;" horiz-adv-x="193" 
d="M273 570q0 -32 5.5 -60t16.5 -54q7 -14 10.5 -22t5 -12t2 -5.5t0.5 -2.5q0 -3 -3 -3t-7 6q-1 1 -3.5 4t-6.5 8q-9 13 -20 28.5t-17 23.5q-10 17 -21.5 37.5t-24.5 43.5q-1 2 -1.5 4t-2.5 4h67zM303 361q1 -5 1.5 -8t0.5 -6q0 -9 -4 -20t-11 -21l-100 -143
q-21 -35 -32.5 -54.5t-17 -30.5t-6.5 -17t-1 -13q0 -23 21 -23q31 0 85 51q13 12 31 31.5t35.5 39.5t32.5 38.5t22 29.5q8 11 11 11t3 -2t-2 -4l-6 -9q-15 -21 -33.5 -44.5t-38 -46t-39.5 -43t-36 -34.5q-25 -22 -53.5 -35.5t-48.5 -13.5q-23 0 -36 13t-13 34q0 23 11 50
t34 61l94 137q9 14 15 29t6 26v6t-1 8z" />
    <glyph glyph-name="ntilde" unicode="&#xf1;" horiz-adv-x="428" 
d="M524 525q33 0 33 -27q0 -14 -9 -27t-24 -22.5t-35 -15.5t-41 -6q-7 0 -12 0.5t-15.5 3t-30 7.5t-54.5 15q-2 1 -5 1q-5 0 -12 -3t-10 -6q-11 -9 -12.5 -10.5t-2.5 -1.5q-4 0 -4 5q0 2 3 5l20 20q12 12 23.5 17t25.5 5q5 0 9 -0.5t14 -3t29 -8t54 -15.5q9 -3 21 -3
q19 0 30.5 11.5t11.5 30.5q0 15 -7 28zM197 264q0 1 1 2t4.5 7t11 19t21.5 36q5 8 5 18q0 6 -2 11l71 5q1 -4 1 -8q0 -11 -8 -26.5t-26 -41.5l-27 -41q33 30 52 47.5t31 27.5t20 15t19 11q40 19 65 19q23 0 38 -11.5t15 -29.5q0 -21 -9 -41.5t-30 -48.5l-90 -119
q-5 -7 -10.5 -16.5t-10 -19.5t-7.5 -18.5t-3 -12.5q0 -8 6 -13.5t15 -5.5q18 0 41 13t55 42q14 13 30.5 29.5t31.5 33t27 31.5t17 24q2 5 6 5t4 -4q0 -3 -12.5 -19.5t-31 -37t-38.5 -42t-35 -35.5q-39 -35 -73 -53t-62 -18q-20 0 -34 11t-14 27q0 19 12 45.5t34 55.5l83 111
q15 20 24.5 40t9.5 31q0 8 -6 14t-15 6q-24 0 -47.5 -13.5t-61.5 -49.5q-23 -22 -39.5 -39t-31.5 -34t-30 -37.5t-35 -49.5q-11 -15 -19.5 -27t-11.5 -17q-10 -13 -17.5 -24t-7.5 -12q-8 -13 -12.5 -20t-9 -10.5t-10 -4.5t-14.5 -1h-18h-27z" />
    <glyph glyph-name="oacute" unicode="&#xf3;" horiz-adv-x="342" 
d="M626 568q-11 -15 -36 -36t-56 -42t-63.5 -39.5t-56.5 -27.5q-7 -3 -11.5 -5t-6.5 -3q-7 -4 -9 -4q-5 0 -5 3q0 1 1 2t6 4.5t15.5 10t30.5 18.5q51 36 79.5 67t32.5 53zM405 367q32 0 51.5 -18t19.5 -47t-20 -74.5t-52 -88.5q-23 -32 -53 -58.5t-62 -46t-64.5 -30.5
t-61.5 -11q-35 0 -56 25t-17 61q5 51 36 102t76 92.5t99 67.5t104 26zM402 358q-12 1 -31 -7t-40.5 -24t-44 -38t-42.5 -47t-37 -51t-29 -50t-18.5 -44.5t-6.5 -35.5q0 -22 13.5 -34t36.5 -12q17 0 38 11t43.5 31t46 47.5t44.5 61.5q29 46 45 84.5t16 63.5q0 41 -34 44z" />
    <glyph glyph-name="ocircumflex" unicode="&#xf4;" horiz-adv-x="342" 
d="M379 429q-33 -21 -35 -21q-3 0 -3 3t3 6.5t14 13.5l117 103q13 12 21.5 16.5t18.5 4.5q11 0 18.5 -5t7.5 -13q0 -4 -1.5 -8.5t-9.5 -29.5l-21 -62q-3 -11 -5 -17l-3 -9t-2 -3.5t-2 -0.5q-5 0 -3 10l1 87zM405 367q32 0 51.5 -18t19.5 -47t-20 -74.5t-52 -88.5
q-23 -32 -53 -58.5t-62 -46t-64.5 -30.5t-61.5 -11q-35 0 -56 25t-17 61q5 51 36 102t76 92.5t99 67.5t104 26zM402 358q-12 1 -31 -7t-40.5 -24t-44 -38t-42.5 -47t-37 -51t-29 -50t-18.5 -44.5t-6.5 -35.5q0 -22 13.5 -34t36.5 -12q17 0 38 11t43.5 31t46 47.5t44.5 61.5
q29 46 45 84.5t16 63.5q0 41 -34 44z" />
    <glyph glyph-name="odieresis" unicode="&#xf6;" horiz-adv-x="342" 
d="M398 479q11 0 17.5 -5.5t6.5 -16.5q0 -20 -13 -35t-31 -15q-11 0 -18 8.5t-6 19.5q1 17 14 30.5t30 13.5zM493 480q23 0 23 -23q0 -20 -13 -35t-30 -15q-10 0 -17.5 8.5t-6.5 19.5q1 17 14.5 31t29.5 14zM405 367q32 0 51.5 -18t19.5 -47t-20 -74.5t-52 -88.5
q-23 -32 -53 -58.5t-62 -46t-64.5 -30.5t-61.5 -11q-35 0 -56 25t-17 61q5 51 36 102t76 92.5t99 67.5t104 26zM402 358q-12 1 -31 -7t-40.5 -24t-44 -38t-42.5 -47t-37 -51t-29 -50t-18.5 -44.5t-6.5 -35.5q0 -22 13.5 -34t36.5 -12q17 0 38 11t43.5 31t46 47.5t44.5 61.5
q29 46 45 84.5t16 63.5q0 41 -34 44z" />
    <glyph glyph-name="ograve" unicode="&#xf2;" horiz-adv-x="342" 
d="M407 565q0 -66 22 -114q7 -14 10.5 -21.5t5 -11.5t2 -5.5t0.5 -2.5q0 -4 -3 -4t-7 6q-3 2 -10 13q-17 23 -27 37t-17.5 26.5t-16 27.5t-22.5 41q-2 2 -4 8h67zM405 367q32 0 51.5 -18t19.5 -47t-20 -74.5t-52 -88.5q-23 -32 -53 -58.5t-62 -46t-64.5 -30.5t-61.5 -11
q-35 0 -56 25t-17 61q5 51 36 102t76 92.5t99 67.5t104 26zM402 358q-12 1 -31 -7t-40.5 -24t-44 -38t-42.5 -47t-37 -51t-29 -50t-18.5 -44.5t-6.5 -35.5q0 -22 13.5 -34t36.5 -12q17 0 38 11t43.5 31t46 47.5t44.5 61.5q29 46 45 84.5t16 63.5q0 41 -34 44z" />
    <glyph glyph-name="otilde" unicode="&#xf5;" horiz-adv-x="342" 
d="M524 512q34 0 34 -27q0 -14 -9 -27t-24 -23t-35 -16t-42 -6q-7 0 -12 0.5t-15.5 3t-30 8t-54.5 15.5q-1 1 -5 1q-5 0 -12 -3t-10 -6q-11 -9 -12.5 -10.5t-2.5 -1.5q-4 0 -4 5q0 2 3 5l20 20q12 12 23.5 17t25.5 5q5 0 9 -0.5t14 -3t29 -8t54 -15.5q10 -3 22 -3
q19 0 30.5 11.5t11.5 30.5q0 16 -8 28zM405 367q32 0 51.5 -18t19.5 -47t-20 -74.5t-52 -88.5q-23 -32 -53 -58.5t-62 -46t-64.5 -30.5t-61.5 -11q-35 0 -56 25t-17 61q5 51 36 102t76 92.5t99 67.5t104 26zM402 358q-12 1 -31 -7t-40.5 -24t-44 -38t-42.5 -47t-37 -51
t-29 -50t-18.5 -44.5t-6.5 -35.5q0 -22 13.5 -34t36.5 -12q17 0 38 11t43.5 31t46 47.5t44.5 61.5q29 46 45 84.5t16 63.5q0 41 -34 44z" />
    <glyph glyph-name="scaron" unicode="&#x161;" horiz-adv-x="286" 
d="M528 526q34 21 35 21q3 0 3 -3t-3.5 -7.5t-13.5 -13.5l-116 -103q-14 -12 -22.5 -16.5t-17.5 -4.5q-11 0 -18.5 5t-7.5 13q0 5 2 12t9 27l20 62q8 22 9 25.5t3 3.5q4 0 4 -9l-2 -87zM266 271q19 19 31 32.5t17 20.5q8 11 13 17.5t10 10t10.5 4.5t14.5 2t17 1.5t16 0.5
q3 0 7.5 -0.5t12.5 -1.5q-13 -14 -18.5 -24.5t-10.5 -28.5l-32 -124q-8 -34 -27 -68t-43 -59q-29 -31 -61 -45.5t-71 -14.5q-31 0 -48.5 10.5t-17.5 29.5q0 13 9 25t19 12q4 0 4.5 -3.5t0.5 -25.5q0 -14 7.5 -22.5t19.5 -8.5q29 0 61.5 27.5t55.5 73.5q7 15 13.5 30.5
t13.5 38.5t16 56.5t22 84.5q-21 -22 -34 -35.5t-29.5 -31t-42 -44t-71.5 -73.5q-26 -27 -42 -43.5t-27.5 -27.5t-22.5 -19.5t-26 -19.5q-24 -18 -31.5 -22.5t-14.5 -4.5q-10 0 -10 9q0 8 5.5 12.5t28.5 13.5q9 3 21.5 11t27 18.5t28.5 22.5t25 24z" />
    <glyph glyph-name="uacute" unicode="&#xfa;" horiz-adv-x="380" 
d="M585 554q-10 -14 -35.5 -35t-57 -42.5t-64 -40t-56.5 -27.5q-14 -7 -17 -8q-8 -4 -10 -4q-4 0 -4 3v1q0 1 1 2t5.5 4t15 9.5t30.5 18.5q51 37 80 67.5t33 52.5zM502 355q0 -8 -1 -12.5t-3.5 -9.5t-7.5 -13t-15 -22l-100 -147q-8 -12 -15.5 -26t-13.5 -28.5t-9.5 -26.5
t-3.5 -19q0 -11 6 -17.5t16 -6.5q16 0 42 19t66 61q5 6 16.5 19t23.5 27t21.5 25t10.5 13q2 5 5 5t3 -3t-7 -13t-19.5 -24.5t-28.5 -32.5t-34 -36q-51 -53 -81.5 -73.5t-55.5 -20.5q-20 0 -32 13t-12 35q0 17 6.5 37t22.5 51q-64 -71 -108 -102t-79 -31q-20 0 -33 13.5
t-13 36.5q0 19 11.5 48t28.5 55l90 131q11 16 18 31.5t7 23.5q0 5 -3 14l73 5q3 -9 3 -12q0 -25 -25 -61l-94 -134q-21 -31 -33 -56t-12 -39q0 -9 7 -15t18 -6q28 0 69.5 36t90.5 104q34 46 54.5 75.5t31.5 48t15 29t4 19.5v7z" />
    <glyph glyph-name="ucircumflex" unicode="&#xfb;" horiz-adv-x="428" 
d="M328 415q-33 -21 -35 -21q-3 0 -3 3t3 6.5t14 13.5l117 103q13 12 21.5 16.5t18.5 4.5q26 0 26 -18q0 -4 -1.5 -8.5t-9.5 -29.5l-21 -62q-7 -23 -8 -26.5t-3 -3.5q-6 0 -4 10l1 87zM502 355q0 -8 -1 -12.5t-3.5 -9.5t-7.5 -13t-15 -22l-100 -147q-8 -12 -15.5 -26
t-13.5 -28.5t-9.5 -26.5t-3.5 -19q0 -11 6 -17.5t16 -6.5q16 0 42 19t66 61q5 6 16.5 19t23.5 27t21.5 25t10.5 13q2 5 5 5t3 -3t-7 -13t-19.5 -24.5t-28.5 -32.5t-34 -36q-51 -53 -81.5 -73.5t-55.5 -20.5q-20 0 -32 13t-12 35q0 17 6.5 37t22.5 51q-64 -71 -108 -102
t-79 -31q-20 0 -33 13.5t-13 36.5q0 19 11.5 48t28.5 55l90 131q11 16 18 31.5t7 23.5q0 5 -3 14l73 5q3 -9 3 -12q0 -25 -25 -61l-94 -134q-21 -31 -33 -56t-12 -39q0 -9 7 -15t18 -6q28 0 69.5 36t90.5 104q34 46 54.5 75.5t31.5 48t15 29t4 19.5v7z" />
    <glyph glyph-name="udieresis" unicode="&#xfc;" horiz-adv-x="428" 
d="M354 471q11 0 17.5 -6t6.5 -15q0 -21 -13 -36t-31 -15q-11 0 -18 8.5t-6 19.5q1 17 14 30.5t30 13.5zM449 472q23 0 23 -23q0 -20 -13 -35t-30 -15q-10 0 -17.5 8.5t-6.5 19.5q1 17 14.5 31t29.5 14zM502 355q0 -8 -1 -12.5t-3.5 -9.5t-7.5 -13t-15 -22l-100 -147
q-8 -12 -15.5 -26t-13.5 -28.5t-9.5 -26.5t-3.5 -19q0 -11 6 -17.5t16 -6.5q16 0 42 19t66 61q5 6 16.5 19t23.5 27t21.5 25t10.5 13q2 5 5 5t3 -3t-7 -13t-19.5 -24.5t-28.5 -32.5t-34 -36q-51 -53 -81.5 -73.5t-55.5 -20.5q-20 0 -32 13t-12 35q0 17 6.5 37t22.5 51
q-64 -71 -108 -102t-79 -31q-20 0 -33 13.5t-13 36.5q0 19 11.5 48t28.5 55l90 131q11 16 18 31.5t7 23.5q0 5 -3 14l73 5q3 -9 3 -12q0 -25 -25 -61l-94 -134q-21 -31 -33 -56t-12 -39q0 -9 7 -15t18 -6q28 0 69.5 36t90.5 104q34 46 54.5 75.5t31.5 48t15 29t4 19.5v7z
" />
    <glyph glyph-name="ugrave" unicode="&#xf9;" horiz-adv-x="380" 
d="M356 543q0 -65 21 -114q13 -27 15.5 -33t2.5 -9t-3 -3t-7 6q-1 1 -3.5 4t-6.5 8q-17 24 -27 38t-18 27t-16.5 27.5t-21.5 40.5l-4 8h68zM502 355q0 -8 -1 -12.5t-3.5 -9.5t-7.5 -13t-15 -22l-100 -147q-8 -12 -15.5 -26t-13.5 -28.5t-9.5 -26.5t-3.5 -19q0 -11 6 -17.5
t16 -6.5q16 0 42 19t66 61q5 6 16.5 19t23.5 27t21.5 25t10.5 13q2 5 5 5t3 -3t-7 -13t-19.5 -24.5t-28.5 -32.5t-34 -36q-51 -53 -81.5 -73.5t-55.5 -20.5q-20 0 -32 13t-12 35q0 17 6.5 37t22.5 51q-64 -71 -108 -102t-79 -31q-20 0 -33 13.5t-13 36.5q0 19 11.5 48
t28.5 55l90 131q11 16 18 31.5t7 23.5q0 5 -3 14l73 5q3 -9 3 -12q0 -25 -25 -61l-94 -134q-21 -31 -33 -56t-12 -39q0 -9 7 -15t18 -6q28 0 69.5 36t90.5 104q34 46 54.5 75.5t31.5 48t15 29t4 19.5v7z" />
    <glyph glyph-name="yacute" unicode="&#xfd;" horiz-adv-x="343" 
d="M586 555q-12 -15 -37 -36t-56 -42t-63 -39t-57 -28q-14 -7 -17 -8q-8 -4 -10 -4q-4 0 -4 3v1q0 1 1 2t5.5 4t15 9.5t30.5 18.5q51 36 79.5 67t33.5 53zM276 100q-32 -30 -56 -50t-43.5 -32.5t-35 -18t-29.5 -5.5q-51 0 -51 52q0 10 3.5 24t9 29t13 29.5t15.5 25.5
l106 146q7 10 11.5 21t4.5 19l-1 8l71 5q2 -5 2 -9q0 -8 -4.5 -19.5t-12.5 -21.5l-95 -132q-28 -39 -43.5 -69.5t-15.5 -46.5q0 -11 8 -18t20 -7q15 0 37 13t48 37t55 58t59 76q21 28 34 48.5t21.5 35.5t12 27t4.5 24l73 2q1 -3 1 -8q0 -7 -6 -19t-22 -35l-234 -347
q-55 -81 -136 -127t-170 -46q-47 0 -74.5 14.5t-27.5 40.5q0 16 10.5 27t24.5 11q10 0 17.5 -5t7.5 -12q0 -3 -1 -5t-6 -10q-4 -7 -4 -13q0 -16 17.5 -26.5t42.5 -10.5q84 0 162 78q8 8 18.5 20l21 24t19.5 23t12 16z" />
    <glyph glyph-name="ydieresis" unicode="&#xff;" horiz-adv-x="343" 
d="M341 471q25 0 25 -22q0 -20 -13.5 -35t-30.5 -15q-11 0 -18.5 8.5t-6.5 19.5q1 17 14 30.5t30 13.5zM436 472q23 0 23 -23q0 -20 -13 -35t-30 -15q-10 0 -17.5 8.5t-6.5 19.5q1 17 14.5 31t29.5 14zM276 100q-32 -30 -56 -50t-43.5 -32.5t-35 -18t-29.5 -5.5
q-51 0 -51 52q0 10 3.5 24t9 29t13 29.5t15.5 25.5l106 146q7 10 11.5 21t4.5 19l-1 8l71 5q2 -5 2 -9q0 -8 -4.5 -19.5t-12.5 -21.5l-95 -132q-28 -39 -43.5 -69.5t-15.5 -46.5q0 -11 8 -18t20 -7q15 0 37 13t48 37t55 58t59 76q21 28 34 48.5t21.5 35.5t12 27t4.5 24l73 2
q1 -3 1 -8q0 -7 -6 -19t-22 -35l-234 -347q-55 -81 -136 -127t-170 -46q-47 0 -74.5 14.5t-27.5 40.5q0 16 10.5 27t24.5 11q10 0 17.5 -5t7.5 -12q0 -3 -1 -5t-6 -10q-4 -7 -4 -13q0 -16 17.5 -26.5t42.5 -10.5q84 0 162 78q8 8 18.5 20l21 24t19.5 23t12 16z" />
    <glyph glyph-name="zcaron" unicode="&#x17e;" horiz-adv-x="351" 
d="M503 526q34 21 35 21q3 0 3 -3t-3.5 -8t-13.5 -13l-116 -103q-14 -12 -22.5 -16.5t-17.5 -4.5q-11 0 -18.5 5t-7.5 13q0 4 2 11t9 28l20 62q8 22 9 25.5t3 3.5q4 0 4 -9l-2 -87zM391 270q4 2 8 4.5t9 7t13 11.5t22 19q-15 -4 -27.5 -6.5t-25 -4t-27 -1.5h-32.5
q-36 0 -57.5 -1t-36 -4.5t-25.5 -11t-25 -19.5q-6 -6 -9 -6q-4 0 -4 4q0 2 5 9t11 13q19 20 29.5 31t17 16.5t12 8.5t14.5 6q13 5 31 8t38 3h11.5t13.5 -1.5t24.5 -4t43.5 -6.5q5 -1 11 -1.5t12 -0.5q14 0 28 3t26 9q6 2 8 2q7 0 7 -7q0 -5 -9 -9q-24 -11 -29 -15
q-5 -3 -14 -12.5t-23 -23.5q-33 -32 -57 -55t-44.5 -40t-40 -30t-44 -25.5t-57 -26t-77.5 -32.5q-5 -2 -19.5 -13.5t-36.5 -29.5q29 12 46 16.5t33 4.5q30 0 110 -16q9 -2 16 -3t12 -1q32 0 66 24t73 75q10 14 14 14q3 0 3 -3q0 -2 -5.5 -9.5t-14 -18t-18 -21.5t-16.5 -18
q-45 -46 -83 -67t-75 -21q-3 0 -6.5 0.5t-15 2.5t-35.5 6.5t-68 12.5q-3 1 -8 1h-11q-17 0 -31 -3.5t-22 -10.5q-7 -6 -10 -6q-4 0 -4 7q0 6 11 17q10 9 19 18.5t19 19.5q47 50 87.5 83t84.5 57z" />
    <glyph glyph-name="figuredash" unicode="&#x2012;" horiz-adv-x="368" 
d="M406 229q10 0 19 3t24 11q4 2 6 2q5 0 5 -6q0 -7 -8 -17.5t-19 -18.5q-17 -13 -41.5 -20t-51.5 -7q-8 0 -23.5 1t-33.5 2.5t-37 3t-34 3.5q-12 1 -19.5 1.5t-15.5 0.5h-8t-8 -1.5t-13 -4.5t-22 -9q-2 -1 -6 -1q-5 0 -5 5q0 7 15.5 21t32.5 24q37 21 89 21h10t18.5 -1.5
l40.5 -4.5t76 -8h9z" />
    <glyph glyph-name="e_r" horiz-adv-x="613" 
d="M422 161q-5 -6 -18 -20.5t-29 -30.5t-30.5 -30t-20.5 -19q-39 -32 -78.5 -49.5t-72.5 -17.5q-39 0 -62 23t-23 62q0 44 31 97t83 98q22 19 48.5 35.5t53.5 28.5t53 19t47 7q17 0 27 -8t10 -20q0 -36 -52 -78q-21 -17 -40.5 -29t-42.5 -22t-51 -18.5t-66 -17.5
q-19 -29 -26.5 -49t-7.5 -40q0 -23 13.5 -38t33.5 -15q47 0 105 39t113 106q47 59 81.5 109.5t51.5 84.5q31 -16 45 -20.5t30 -4.5q18 0 40.5 4t31.5 9q6 2 7 2q3 0 3 -4q0 -1 -0.5 -2t-3.5 -4t-9 -9.5t-18 -17.5q-31 -29 -61.5 -66.5t-54.5 -74t-39 -67.5t-15 -47
q0 -11 8.5 -19t19.5 -8q36 0 100 64q6 6 20.5 23t30.5 35.5t29 34t15 18.5l3 4q2 0 2 -4q0 -3 -8 -15t-21.5 -28.5t-30.5 -36t-34 -38.5q-47 -49 -86.5 -74.5t-69.5 -25.5q-21 0 -35 14t-14 35q0 23 10.5 48.5t34 56t61 68t92.5 85.5q-13 -5 -23 -7t-23 -2q-15 0 -27 3.5
t-31 13.5zM201 189q24 4 44 9t37 13.5t34 20t35 27.5q23 19 36.5 39.5t13.5 36.5q0 7 -6 12t-14 5q-13 0 -33 -9.5t-40 -26.5q-14 -12 -26 -23.5t-24 -26t-25.5 -33.5t-31.5 -44z" />
    <glyph glyph-name="e_s" horiz-adv-x="514" 
d="M366 113q-62 -63 -111 -91t-95 -28q-37 0 -59.5 22t-22.5 59q0 30 14 63t38 64.5t55.5 60t66.5 50t71 34t70 12.5q40 0 40 -30q0 -27 -26.5 -56.5t-70.5 -51.5q-37 -18 -70.5 -28t-80.5 -17q-23 -36 -31.5 -57t-8.5 -44q0 -21 14.5 -35t36.5 -14q47 0 123 61
q25 21 44.5 37.5t42 39t52.5 55t77 84.5l5.5 5.5t13 13.5t16 16.5t15.5 16.5q15 2 26 3t19 2t15.5 1.5t15.5 0.5q-9 -10 -17 -22.5t-11 -22.5l-39 -130q-6 -20 -9 -30.5t-6 -18t-6.5 -13t-9.5 -14.5q-20 -32 -39.5 -54t-40.5 -35.5t-44 -20t-50 -6.5q-30 0 -47 10.5
t-17 30.5q0 14 8.5 24.5t19.5 10.5q2 0 5 -2t3 -4l-5 -39q-1 -4 12 -9.5t21 -5.5q22 0 49.5 22.5t49.5 57.5q6 9 14 24.5t13 26.5q1 1 2 4t5 15.5t12.5 39t23.5 74.5q2 6 6.5 19t10.5 29zM194 188q22 3 36.5 6t27.5 8t27 12.5t35 20.5q35 21 54.5 45t19.5 47q0 9 -6.5 15
t-16.5 6q-31 0 -77 -40q-15 -13 -27 -25t-23.5 -25.5t-23.5 -30.5t-26 -39z" />
    <glyph glyph-name="e_x" horiz-adv-x="708" 
d="M628 359q-3 -8 -3 -9l-24 -64q-4 -8 -7.5 -31.5t-9.5 -72.5l101 112q33 37 66 58.5t57 21.5q14 0 24 -7t10 -17q0 -5 -4.5 -13t-11 -16.5t-13.5 -15.5t-12 -10q-10 17 -33 17q-11 0 -22.5 -3.5t-25 -12t-30 -22.5t-38.5 -35q-26 -25 -40 -39.5t-28 -34.5
q-1 -8 -1.5 -14.5t-0.5 -9.5q0 -16 3.5 -38t8.5 -37q10 -31 37 -31q21 0 47 16.5t62 54.5q6 7 12.5 14t16 18.5t24 28.5t36.5 44l5 -3q-23 -41 -105 -124q-24 -24 -42.5 -40.5t-34.5 -26.5t-29.5 -14.5t-28.5 -4.5q-12 0 -24 6t-19 16q-4 5 -6 9t-4.5 11t-5.5 20t-8 37l-2 6
l-11 -11l-41.5 -41.5t-23 -22.5t-13.5 -11t-11 -7q-30 -17 -57 -17q-17 0 -28.5 9.5t-11.5 25.5q0 19 14.5 32.5t34.5 13.5q7 0 8.5 -2.5t3.5 -17.5q2 -17 18 -17q24 0 54 22t63 64q1 28 1.5 46.5t2.5 28.5q5 26 10 51.5t10 51.5v3v4.5t1 5.5q-30 -40 -55.5 -72t-51 -59.5
t-52 -52.5t-58.5 -52q-54 -46 -95 -65t-82 -19q-34 0 -54.5 22t-20.5 58q0 31 14 64.5t37.5 65.5t55.5 60.5t67 50.5t71.5 34.5t70.5 12.5q17 0 27.5 -7.5t10.5 -19.5q0 -13 -8 -28.5t-22.5 -31t-34.5 -30.5t-44 -27q-14 -7 -27.5 -13t-30 -11.5t-36.5 -11.5t-47 -13
q-21 -31 -29.5 -52.5t-8.5 -44.5q0 -20 12.5 -32t34.5 -12q41 0 86 25.5t104 82.5q70 67 113.5 120.5t65.5 98.5zM193 185q24 4 43 9t36 13t33 19t34 26q52 46 52 80q0 17 -19 17q-28 0 -65 -30q-14 -10 -32 -28.5t-35 -39t-30.5 -38.5t-16.5 -28z" />
    <glyph glyph-name="o_r" horiz-adv-x="659" 
d="M381 108q-18 -24 -43.5 -45t-55 -36t-60 -24t-57.5 -9q-38 0 -58.5 22t-20.5 61q0 42 26 89.5t73 92.5q53 50 109 77t107 27q73 0 73 -69q0 -8 -0.5 -13t-2 -12.5t-5 -19t-10.5 -32.5q-1 -1 -1 -4q0 -7 10 -7q16 0 38 17t42 44q9 12 16 21.5t15 21t17.5 26.5t23.5 37
q27 -14 43.5 -19t32.5 -5q8 0 23 2.5t37 7.5q2 1 7.5 1.5t13.5 2.5l-10.5 -12t-5.5 -6q-13 -14 -25.5 -27t-26.5 -27q-23 -25 -52 -65t-58 -90q-23 -40 -23 -60q0 -13 7 -22t18 -9q18 0 44.5 16.5t52.5 44.5q10 10 21 23t21 24t17.5 20t9.5 12q6 7 8 7q4 0 4 -3q0 -1 -1 -2
t-5.5 -7t-15.5 -18.5t-30 -34.5q-27 -32 -48.5 -52t-50.5 -42q-26 -19 -42.5 -26t-36.5 -7q-21 0 -35 14t-14 34q0 24 9.5 48t33 54t63 68.5t98.5 91.5q-17 -3 -32 -5t-27 -2q-11 0 -21.5 3.5t-27.5 13.5q-51 -79 -88 -112t-70 -30q-6 -6 -6 -7zM404 232q0 53 32 85
q-1 14 -12.5 24.5t-25.5 10.5q-30 0 -70.5 -29.5t-87.5 -85.5q-90 -110 -90 -178q0 -20 12 -31.5t33 -11.5q29 0 55.5 16t62.5 55q65 71 91 132v13z" />
    <glyph glyph-name="o_s" horiz-adv-x="589" 
d="M665 167q-7 -25 -22 -52t-34 -50q-59 -69 -143 -69q-30 0 -47.5 10.5t-17.5 29.5q0 11 10.5 24.5t18.5 13.5q6 0 6 -8v-5t-1 -10v-4q0 -15 7 -24t20 -9q23 0 48.5 17.5t46.5 47.5q3 4 9.5 16t13.5 25.5t12.5 25t6.5 14.5l49 169q-47 -48 -78 -78t-53 -46.5t-39 -22
t-35 -5.5h-14q-58 -89 -126 -136t-139 -47q-36 0 -58 20.5t-22 54.5q0 52 36 111.5t99 110.5q45 36 91 55t91 19q34 0 52.5 -18.5t18.5 -53.5q0 -9 -2 -18.5t-5 -18.5q-6 -15 -10 -24t-5.5 -13.5t-2 -5.5t-0.5 -2q0 -5 5 -8t13 -3q13 0 32.5 11t43.5 30.5t50.5 46t52.5 58.5
q11 12 17 15t22 3q15 0 27.5 0.5t14.5 2.5h5q2 -1 2 -5q-1 -6 -10 -16q-1 -2 -3 -4.5t-4 -6.5zM434 317q-3 37 -36 37q-72 0 -171 -128q-38 -50 -58.5 -93t-20.5 -75q0 -19 13 -31t34 -12q26 0 52 15.5t58 50.5q41 45 63 77t36 65q0 35 6.5 55t23.5 39z" />
    <glyph glyph-name="t_h" horiz-adv-x="639" 
d="M210 349q-7 0 -12.5 2.5t-4.5 5.5q1 4 3 4.5t13 0.5h52q30 45 47.5 70.5t26 41t10 24t1.5 19.5l74 4v-6q0 -21 -41 -79q-14 -20 -23 -31.5t-14 -19t-8 -12.5t-6 -11h47q12 0 12 -5q0 -8 -19 -8h-50l-96 -139q-42 -60 -64 -101.5t-22 -57.5q0 -11 6.5 -17.5t16.5 -6.5
q15 0 36.5 10.5t42.5 28.5q16 13 33.5 30t34 33.5t29.5 31.5t20 25l267 384q8 11 13 23t5 19q0 2 -0.5 4l-1.5 6l78 4q1 -3 1 -6t-0.5 -5t-2 -6.5t-5.5 -12.5t-11 -23l-217 -312l6 4.5t3 2.5q2 2 9.5 8t19.5 17q37 34 74.5 52.5t68.5 18.5q20 0 34.5 -11.5t14.5 -27.5
q0 -14 -8.5 -34.5t-20.5 -37.5l-110 -147q-8 -12 -16 -30.5t-8 -26.5t8.5 -15.5t17.5 -7.5q14 0 33 9t39 25q4 3 7 5.5t7.5 6.5t11 11t18.5 20q6 6 9 6t3 -2q0 -7 -23 -30q-15 -14 -39 -32.5t-43 -30.5q-18 -11 -32.5 -16t-31.5 -5q-23 0 -37.5 13t-14.5 33q0 17 10 41
t24 43l100 135q26 35 26 60q0 9 -7 15.5t-16 6.5q-24 0 -64 -29t-84 -79q-21 -23 -40 -47t-38.5 -51.5t-40 -60.5t-44.5 -73h-73l78 120q-67 -67 -113 -95.5t-86 -28.5q-21 0 -33 12t-12 33q0 15 5.5 32t18.5 41q7 13 13 23.5t20 31t40.5 58t75.5 106.5l4.5 7.5t3.5 8.5h-39
z" />
    <glyph glyph-name="Abreve" unicode="&#x102;" 
d="M637 315q-5 0 -9.5 2t-4.5 4q0 10 28 10h58l183 184q93 94 166 139.5t132 45.5q24 0 39 -12.5t15 -32.5t-15 -49t-53 -81l-244 -338q-28 -39 -47.5 -68t-32.5 -50.5t-21 -38t-12 -30.5h-72q-10 0 -10 6q0 4 4 9q5 5 14 28q3 7 6 12.5t8 12.5t13 18.5t22 30.5
q19 26 37.5 52.5t38.5 52.5l70 93h-221l-169 -182q-11 -11 -29 -27t-38.5 -32.5t-41 -32.5t-36.5 -26q-35 -23 -76.5 -36t-77.5 -13q-37 0 -67.5 12.5t-52.5 34.5t-34 53t-12 68q0 64 31 128t80.5 115t111.5 83t124 32q50 0 82 -31.5t32 -80.5q0 -22 -7 -46t-17.5 -44.5
t-23.5 -33.5t-25 -13q-4 0 -4 5q0 1 3 3q18 15 28.5 42.5t10.5 58.5q0 28 -15.5 53.5t-41.5 38.5q-24 12 -58 12q-51 0 -97.5 -23t-82.5 -61.5t-57.5 -89t-21.5 -104.5q0 -31 10.5 -57t29.5 -45t45.5 -29.5t57.5 -10.5q18 0 33.5 2.5t32 8t34.5 15t41 24.5q45 29 88.5 63
t74.5 65l101 101h-58zM961 331l103 141l79 112q30 41 30 65q0 10 -9.5 16t-23.5 6q-18 0 -45 -12.5t-58.5 -34t-65.5 -52t-67 -66.5l-163 -175h220zM1409 868q-11 -18 -28.5 -39.5t-40 -40t-48 -31t-53.5 -12.5q-12 0 -26 9t-13 26q2 28 20 52t35 42q1 1 3.5 0t2.5 -3
q-2 -7 -8.5 -21t-10 -28t-0.5 -24.5t20 -10.5q14 0 47.5 15t80.5 59q9 9 10.5 10t3.5 1t4 -1t1 -3z" />
    <glyph glyph-name="Aogonek" unicode="&#x104;" 
d="M932 187q-28 -39 -47.5 -68t-32.5 -50.5t-21 -38t-12 -30.5q-47 -3 -47 -46q0 -15 9.5 -26.5t21.5 -11.5q11 0 19.5 9t8.5 20q0 9 4 9q8 0 15 -13t7 -28q0 -23 -15 -37.5t-38 -14.5q-28 0 -47 23.5t-19 58.5q0 33 19 57q-20 0 -20 8q0 3 4 7q5 7 14 29q3 6 6 11t8 12.5
t13 19t22 31.5q19 26 37.5 52t38.5 53l70 92h-221l-169 -181q-11 -12 -29 -28t-38.5 -32.5t-41 -32.5t-36.5 -26q-35 -23 -76.5 -36t-77.5 -13q-37 0 -67.5 12.5t-52.5 34.5t-34 53t-12 68q0 64 31 128t80.5 115t111.5 83t124 32q50 0 82 -31.5t32 -80.5q0 -22 -7 -46
t-17.5 -44.5t-23.5 -33.5t-25 -13q-4 0 -4 5q0 1 3 3q17 14 28 42t11 59q0 28 -15.5 53.5t-41.5 38.5q-24 12 -58 12q-51 0 -97.5 -23t-82.5 -61.5t-57.5 -89t-21.5 -104.5q0 -31 10.5 -57t29.5 -45t45.5 -29.5t57.5 -10.5q18 0 33.5 2.5t32 8t34.5 15t41 24.5
q45 28 88.5 62.5t74.5 65.5l101 101h-58q-14 0 -14 6q0 10 28 10h58l183 184q93 94 166 139.5t132 45.5q24 0 39 -12.5t15 -32.5t-15.5 -49t-52.5 -81zM961 331l103 141l79 112q30 41 30 65q0 10 -9.5 16t-23.5 6q-18 0 -45 -12.5t-58.5 -34t-65.5 -52t-67 -66.5l-163 -175
h220z" />
    <glyph glyph-name="Cacute" unicode="&#x106;" horiz-adv-x="667" 
d="M945 927q-7 -14 -32 -35.5t-57 -44.5t-67 -43.5t-63 -31.5q-7 -3 -11.5 -4.5t-6.5 -3.5q-8 -4 -11 -4q-10 0 -10 9q0 6 7 9q30 16 58.5 37t51 42.5t36 40.5t13.5 31zM762 732q55 -3 85.5 -33.5t30.5 -82.5q0 -98 -90 -189q-87 -92 -185 -92q-37 0 -59.5 19.5t-22.5 51.5
q0 39 27 74.5t72 53.5q14 6 28.5 9.5t25.5 3.5q9 0 9 -6q0 -7 -16 -8q-14 -2 -28.5 -6t-22.5 -9q-25 -13 -40.5 -38.5t-15.5 -51.5q0 -28 22.5 -46t56.5 -18q39 0 75.5 19.5t65 52t46 73.5t17.5 84q0 48 -34.5 74t-96.5 26q-52 0 -105 -21t-102.5 -57t-92.5 -85
t-75.5 -104.5t-51 -115.5t-18.5 -118q0 -34 11.5 -62t32.5 -48t50.5 -31t65.5 -11q41 0 83 10.5t82 30t76.5 47t66.5 62.5q20 23 35.5 46t23.5 41q3 6 9 6q5 0 5 -6q0 -4 -7 -17t-18 -29t-24 -33.5t-24 -30.5q-38 -43 -81.5 -77t-88.5 -58t-90.5 -37t-88.5 -13
q-46 0 -83.5 14.5t-63.5 41t-39 63.5t-10 82q6 108 68 213t171 190q42 33 88 60.5t91 47t85 29.5t69 9z" />
    <glyph glyph-name="Ccaron" unicode="&#x10c;" horiz-adv-x="667" 
d="M945 918q19 13 24 15.5t10 2.5q9 0 9 -8t-18 -23l-122 -107q-17 -15 -24 -18.5t-19 -3.5q-14 0 -23 6.5t-9 16.5q0 9 3 20l33 97q7 23 13 23q5 0 6 -4t1 -18v-78zM762 732q55 -3 85.5 -33.5t30.5 -82.5q0 -98 -90 -189q-87 -92 -185 -92q-37 0 -59.5 19.5t-22.5 51.5
q0 39 27 74.5t72 53.5q14 6 28.5 9.5t25.5 3.5q9 0 9 -6q0 -7 -16 -8q-14 -2 -28.5 -6t-22.5 -9q-25 -13 -40.5 -38.5t-15.5 -51.5q0 -28 22.5 -46t56.5 -18q39 0 75.5 19.5t65 52t46 73.5t17.5 84q0 48 -34.5 74t-96.5 26q-52 0 -105 -21t-102.5 -57t-92.5 -85
t-75.5 -104.5t-51 -115.5t-18.5 -118q0 -34 11.5 -62t32.5 -48t50.5 -31t65.5 -11q41 0 83 10.5t82 30t76.5 47t66.5 62.5q20 23 35.5 46t23.5 41q3 6 9 6q5 0 5 -6q0 -4 -7 -17t-18 -29t-24 -33.5t-24 -30.5q-38 -43 -81.5 -77t-88.5 -58t-90.5 -37t-88.5 -13
q-46 0 -83.5 14.5t-63.5 41t-39 63.5t-10 82q6 108 68 213t171 190q42 33 88 60.5t91 47t85 29.5t69 9z" />
    <glyph glyph-name="Dcaron" unicode="&#x10e;" horiz-adv-x="880" 
d="M1009 896q10 7 16 10.5t9 5t5 2t4 0.5q9 0 9 -8q0 -7 -18 -24l-122 -106q-17 -14 -24 -18t-19 -4q-14 0 -23 6.5t-9 16.5t3 19l33 98q5 14 7.5 18.5t5.5 4.5q5 0 6 -4t1 -19v-77zM576 223q-24 -32 -40.5 -53t-34.5 -38.5t-41 -36.5t-59 -46q47 -16 77.5 -25.5t51.5 -14.5
t36.5 -6.5t33.5 -1.5q127 0 230 112q63 68 98.5 156.5t35.5 178.5q0 113 -68.5 174.5t-195.5 61.5q-166 0 -299 -102q-65 -50 -99 -105t-34 -109q0 -42 26.5 -67.5t68.5 -25.5q28 0 63.5 17t69.5 47l4 2q4 0 4 -5q0 -3 -7.5 -11.5t-20.5 -19.5q-37 -31 -79 -47.5t-84 -16.5
q-24 0 -44.5 8t-35.5 21.5t-24 32t-9 39.5q0 73 50.5 143.5t141.5 124.5q74 44 155 67t159 23q75 0 136 -20t103.5 -57.5t66 -90t23.5 -116.5q0 -54 -15.5 -107.5t-44 -101.5t-69 -88.5t-90.5 -70.5q-27 -16 -59 -29t-66 -22t-69 -14t-68 -5q-45 0 -92 10t-113 33
q-62 -22 -106 -30.5t-88 -8.5q-63 0 -99.5 15.5t-36.5 41.5q0 9 6 18t15 14q20 12 51 19.5t60 7.5q26 0 70 -7.5t121 -25.5q32 26 50.5 46t38.5 50l143 213q14 21 33 44t39.5 44.5t41.5 40t40 31.5q34 23 71.5 38.5t63.5 15.5q8 0 8 -7q0 -5 -10 -6q-35 -5 -69 -35.5
t-80 -99.5zM301 34q-46 22 -90.5 34t-79.5 12q-30 0 -50 -11.5t-20 -28.5q0 -20 25 -32t65 -12q99 0 150 38z" />
    <glyph glyph-name="Dcroat" unicode="&#x110;" horiz-adv-x="880" 
d="M412 223q-15 0 -15 7q0 4 1 6t5.5 3t14.5 1h29h37l90 134q14 21 33 44t39.5 44.5t41.5 40t40 31.5q34 23 71.5 38.5t63.5 15.5q8 0 8 -7q0 -5 -10 -6q-35 -5 -69 -35.5t-80 -99.5l-126 -200h94q23 -2 27 -2.5t4 -5.5q0 -7 -5 -8t-33 -1h-98q-23 -32 -39.5 -53t-34.5 -39
t-41 -36.5t-59 -45.5q47 -16 77.5 -25.5t51.5 -14.5t36.5 -6.5t33.5 -1.5q127 0 230 112q63 68 98.5 156.5t35.5 179.5q0 112 -68.5 173.5t-195.5 61.5q-166 0 -299 -102q-65 -51 -99 -105.5t-34 -108.5q0 -42 26.5 -67.5t68.5 -25.5q28 0 63 17t70 47l4 2q4 0 4 -5
q0 -3 -7.5 -11.5t-20.5 -19.5q-37 -31 -79 -47.5t-84 -16.5q-24 0 -44.5 8t-35.5 21.5t-24 32t-9 39.5q0 73 50.5 143.5t141.5 124.5q74 44 155 67t159 23q75 0 136 -20t103.5 -57.5t66 -90t23.5 -116.5q0 -54 -15.5 -107.5t-44 -101.5t-69 -88.5t-90.5 -70.5
q-27 -16 -59 -29t-66 -22t-69 -14t-68 -5q-45 0 -92 10t-113 33q-62 -22 -106 -30.5t-88 -8.5q-63 0 -99.5 15.5t-36.5 41.5q0 8 6 17.5t15 14.5q20 12 51 19.5t60 7.5q26 0 70.5 -8t120.5 -25q32 26 50.5 46t38.5 50l42 62h-61zM301 34q-46 22 -90.5 34t-79.5 12
q-30 0 -50 -11.5t-20 -28.5q0 -20 25 -32t65 -12q51 0 87.5 9t62.5 29z" />
    <glyph glyph-name="Ecaron" unicode="&#x11a;" horiz-adv-x="638" 
d="M922 896q10 7 16 10.5t9 5t5 2t4 0.5q9 0 9 -8q0 -5 -3.5 -10t-14.5 -14l-122 -106q-9 -9 -14.5 -13.5t-10 -6.5t-8.5 -2.5t-10 -0.5q-14 0 -23 6.5t-9 17.5q0 10 3 19l32 98q5 14 8 18.5t6 4.5q5 0 6 -4t1 -19v-77zM527 451q6 1 13 1h14q45 0 71.5 -9t26.5 -26
q0 -14 -19.5 -21t-54.5 -7q-36 0 -68 9t-66 29q-45 -14 -74 -29t-58 -38q-23 -19 -41.5 -42.5t-32 -48.5t-21 -50.5t-7.5 -49.5q0 -30 14 -55.5t39.5 -44t60 -29t76.5 -10.5q146 0 267 98q14 11 29 25t29 28.5t26 28.5t20 25q4 7 9 7q4 0 4 -4t-10.5 -18.5t-26.5 -33.5
t-34.5 -38.5t-34.5 -33.5q-70 -63 -154 -98t-165 -35q-52 0 -99 16t-81 45q-56 49 -56 119q0 33 12 65.5t33.5 62t53 55t70.5 44.5q34 17 67 28t81 22q-24 36 -24 61v1q0 2 1 3q-54 11 -100 31q-34 16 -52.5 39.5t-18.5 51.5q0 19 10.5 35.5t29 28.5t44.5 19t57 7
q17 0 33.5 -2t30 -5t21.5 -6.5t8 -7.5q0 -6 -7 -6q-2 0 -8 2q-39 13 -72 13q-21 0 -39.5 -6.5t-32.5 -18t-22 -26.5t-8 -32q0 -73 127 -106q8 29 17.5 48.5t24.5 35.5q49 52 126 80.5t170 28.5q59 0 90.5 -15t31.5 -43q0 -29 -30.5 -56.5t-80 -49t-113 -34.5t-130.5 -13
q-10 0 -19 0.5t-25 1.5q-3 -12 -3 -20t2 -14t8 -16h9zM482 508q20 -2 30 -2h22q95 0 193 40q51 20 78.5 46.5t27.5 55.5q0 23 -21 35.5t-58 12.5q-47 0 -94 -16.5t-85 -43t-63.5 -60t-29.5 -68.5zM491 437q17 -20 34 -28t42 -8q14 0 23.5 4t9.5 11q0 11 -17 16.5t-48 5.5
h-15t-29 -1z" />
    <glyph glyph-name="Edotaccent" unicode="&#x116;" horiz-adv-x="638" 
d="M823 872q11 0 19 -7.5t8 -18.5q0 -13 -6 -26.5t-16 -24t-22 -17t-24 -6.5q-11 0 -19 9t-7 20q1 13 7.5 26t16 23t21 16t22.5 6zM527 451q6 1 13 1h14q45 0 71.5 -9t26.5 -26q0 -14 -19.5 -21t-54.5 -7q-36 0 -68 9t-66 29q-45 -14 -74 -29t-58 -38q-23 -19 -41.5 -42.5
t-32 -48.5t-21 -50.5t-7.5 -49.5q0 -30 14 -55.5t39.5 -44t60 -29t76.5 -10.5q146 0 267 98q14 11 29 25t29 28.5t26 28.5t20 25q4 7 9 7q4 0 4 -4t-10.5 -18.5t-26.5 -33.5t-34.5 -38.5t-34.5 -33.5q-70 -63 -154 -98t-165 -35q-52 0 -99 16t-81 45q-56 49 -56 119
q0 33 12 65.5t33.5 62t53 55t70.5 44.5q34 17 67 28t81 22q-24 36 -24 61v1q0 2 1 3q-54 11 -100 31q-34 16 -52.5 39.5t-18.5 51.5q0 19 10.5 35.5t29 28.5t44.5 19t57 7q17 0 33.5 -2t30 -5t21.5 -6.5t8 -7.5q0 -6 -7 -6q-2 0 -8 2q-39 13 -72 13q-21 0 -39.5 -6.5
t-32.5 -18t-22 -26.5t-8 -32q0 -73 127 -106q8 29 17.5 48.5t24.5 35.5q49 52 126 80.5t170 28.5q59 0 90.5 -15t31.5 -43q0 -29 -30.5 -56.5t-80 -49t-113 -34.5t-130.5 -13q-10 0 -19 0.5t-25 1.5q-3 -12 -3 -20t2 -14t8 -16h9zM482 508q20 -2 30 -2h22q95 0 193 40
q51 20 78.5 46.5t27.5 55.5q0 23 -21 35.5t-58 12.5q-47 0 -94 -16.5t-85 -43t-63.5 -60t-29.5 -68.5zM491 437q17 -20 34 -28t42 -8q14 0 23.5 4t9.5 11q0 11 -17 16.5t-48 5.5h-15t-29 -1z" />
    <glyph glyph-name="Eogonek" unicode="&#x118;" horiz-adv-x="638" 
d="M351 -19q-27 -21 -27 -46q0 -14 9.5 -25.5t21.5 -11.5q11 0 19.5 9t8.5 20q0 9 4 9q8 0 15 -13t7 -29q0 -22 -15 -36.5t-38 -14.5q-29 0 -47 23.5t-18 59.5q0 39 20 59q-88 14 -138 61t-50 115q0 33 12 65.5t33.5 62t53 55t70.5 44.5q34 17 67 28t81 22q-24 36 -24 61v1
q0 2 1 3q-54 11 -100 31q-34 16 -52.5 39.5t-18.5 51.5q0 19 10.5 35.5t29 28.5t44.5 19t57 7q17 0 33.5 -2t30 -5t21.5 -6.5t8 -7.5q0 -6 -7 -6q-2 0 -8 2q-39 13 -72 13q-21 0 -39.5 -6.5t-32.5 -18t-22 -26.5t-8 -32q0 -73 127 -106q8 29 17.5 48.5t24.5 35.5
q49 52 126 80.5t170 28.5q59 0 90.5 -15t31.5 -43q0 -29 -30.5 -56.5t-80 -49t-113 -34.5t-130.5 -13q-10 0 -19 0.5t-25 1.5q-3 -12 -3 -20t2 -14t8 -16h9l31 3q6 1 13 1h14q45 0 71.5 -9t26.5 -26q0 -14 -19.5 -21t-54.5 -7q-36 0 -68 9t-66 29q-45 -14 -74 -29t-58 -38
q-23 -19 -41.5 -42.5t-32 -48.5t-21 -50.5t-7.5 -49.5q0 -30 14 -55.5t39.5 -44t60 -29t76.5 -10.5q146 0 267 98q14 11 29 25t29 28.5t26 28.5t20 25q4 7 9 7q4 0 4 -4t-10.5 -18.5t-26.5 -33.5t-34.5 -38.5t-34.5 -33.5q-35 -31 -74 -55.5t-80 -42t-82.5 -26.5t-80.5 -9
h-10zM482 508q20 -2 30 -2h22q95 0 193 40q51 20 78.5 46.5t27.5 55.5q0 23 -21 35.5t-58 12.5q-47 0 -94 -16.5t-85 -43t-63.5 -60t-29.5 -68.5zM491 437q17 -20 34 -28t42 -8q14 0 23.5 4t9.5 11q0 11 -17 16.5t-48 5.5h-15t-29 -1z" />
    <glyph glyph-name="Gbreve" unicode="&#x11e;" horiz-adv-x="552" 
d="M931 810q-17 -15 -28.5 -25t-20.5 -15t-16.5 -7t-16.5 -2q-14 0 -24.5 10.5t-10.5 24.5q0 10 2 17t10 27q2 7 3.5 11.5t8.5 21.5q4 10 4 12q3 11 5 14t7 3q7 0 7 -11v-5t-1 -6q-2 -11 -2 -15v-9q0 -14 5.5 -23t14.5 -9q12 0 27 8t39 27q29 23 44 32.5t22 9.5q6 0 6 -7
q0 -5 -12 -17zM479 75q-30 -24 -57 -41t-52 -27.5t-50.5 -15.5t-52.5 -5q-67 0 -106 38.5t-39 104.5q0 61 24 120t76 127l18 24l-14 8t-16 9q-34 20 -51 33t-29 28q-31 38 -31 81q0 29 13.5 53t38 41.5t58 27.5t73.5 10q18 0 37 -3t38 -8t35.5 -12t28.5 -15q8 -6 8 -10
q0 -3 -2 -3t-4.5 1t-18.5 9q-19 10 -43.5 15.5t-46.5 5.5q-35 0 -64.5 -10t-52 -27t-35 -40.5t-12.5 -50.5q0 -40 23.5 -69.5t77.5 -58.5q42 39 75.5 67.5t64 51t60.5 40.5t65 36q87 45 162 67t135 22q56 0 90 -22.5t34 -58.5q0 -45 -36 -89t-102 -82q-75 -43 -169 -65.5
t-197 -22.5q-19 0 -34 1t-29 3t-29.5 5.5t-34.5 8.5l-28 -43q-72 -113 -72 -209q0 -48 28.5 -76t76.5 -28q38 0 70.5 12.5t73.5 41.5q20 15 41.5 33t41 37t36 38t28.5 35l55 79h11l47 1q4 0 8 1t8.5 1.5t9.5 2.5l-218 -326q-52 -77 -100.5 -127t-99.5 -79
q-48 -26 -104.5 -42t-104.5 -16q-35 0 -64 6t-50 17.5t-32.5 27t-11.5 33.5q0 22 14.5 37.5t34.5 15.5q14 0 23.5 -9t9.5 -22q0 -6 -1.5 -8.5t-12.5 -13.5q-5 -5 -5 -13q0 -12 8 -22t21 -18t30.5 -12.5t37.5 -4.5q83 0 164.5 64t173.5 204l86 129zM314 391q18 -6 33.5 -10.5
t29.5 -7t29 -3.5t33 -1q42 0 84 5t81.5 14.5t75.5 22.5t65 30q63 35 99.5 80.5t36.5 87.5q0 33 -29 51t-82 18t-113 -21t-120 -59t-117.5 -90.5t-105.5 -116.5z" />
    <glyph glyph-name="Idotaccent" unicode="&#x130;" horiz-adv-x="549" 
d="M966 872q11 0 18.5 -7.5t7.5 -18.5q0 -13 -6 -26.5t-15.5 -24t-21.5 -17t-24 -6.5q-11 0 -19 9t-7 20q1 13 7.5 26t16 23t21 16t22.5 6zM742 490q32 40 58.5 68t53.5 50t57.5 40.5t71.5 38.5q-14 1 -24.5 1.5t-18.5 0.5q-19 0 -48 -3t-61 -8t-62.5 -11.5t-52.5 -12.5
q-49 -14 -103 -43.5t-97 -66.5q-45 -38 -68 -77.5t-23 -76.5q0 -30 21.5 -51t53.5 -21q42 0 88 28l4 2q3 0 3 -3t-18 -15q-26 -19 -60 -30t-66 -11q-43 0 -71 26t-28 67q0 35 17 70t48 68t75 62t99 52q26 11 50 19t49.5 14.5t55.5 11.5t68 10q42 5 76.5 8t52.5 3
q16 0 32.5 -1t30 -3t22 -4.5t8.5 -5.5q0 -4 -7 -5q-40 -2 -78 -32.5t-85 -97.5l-170 -266q-50 -78 -119.5 -143t-145.5 -105q-54 -29 -106 -42.5t-108 -13.5q-74 0 -119 24t-45 63q0 20 14 36t33 16q14 0 25 -9.5t11 -21.5q0 -9 -11 -20q-8 -8 -8 -15q0 -11 9.5 -22
t24.5 -19.5t34.5 -13.5t39.5 -5q49 0 99 20t93 57q16 14 33.5 31.5t34.5 36t32.5 36.5t26.5 34z" />
    <glyph glyph-name="Lacute" unicode="&#x139;" horiz-adv-x="760" 
d="M1203 902q-7 -14 -32 -35.5t-57 -44.5t-67 -43.5t-63 -31.5q-7 -3 -11.5 -4.5t-6.5 -3.5q-8 -4 -11 -4q-10 0 -10 9q0 6 7 9q30 16 58.5 37t51 42.5t36 40.5t13.5 31zM475 292q-93 0 -147.5 39.5t-54.5 105.5q0 43 23.5 83.5t62 71.5t88.5 49.5t103 18.5q27 0 44 -6
t17 -17q0 -6 -8 -6q-4 0 -13 5q-22 11 -54 11q-40 0 -76.5 -16.5t-64.5 -44t-45 -63.5t-17 -75q0 -78 77 -115q24 -12 48.5 -16.5t63.5 -5.5l109 161q19 29 45.5 58t56.5 55t62 48t62 36q67 31 119 31t52 -46q0 -44 -39 -100t-106 -109q-27 -21 -54 -38t-58.5 -33.5t-69 -32
t-85.5 -33.5l-57 -79q-23 -31 -38.5 -51t-30 -36.5t-30.5 -31.5t-40 -35q7 -4 11 -6t24 -9q6 -2 10.5 -4t12 -5t21 -8.5t38.5 -15.5q34 -14 58.5 -19.5t49.5 -5.5q61 0 115 74q50 68 50 132q0 26 -13 48q-1 2 -1 4q0 3 4 3q5 0 11 -8t11 -20t8.5 -26t3.5 -25q0 -44 -18 -81
t-50 -64t-75 -42t-94 -15q-25 0 -48 2.5t-49 9t-57.5 17.5t-72.5 27q-35 -15 -61.5 -24t-49 -14.5t-44 -7.5t-47.5 -2q-24 0 -45.5 4.5t-37.5 12t-25.5 17.5t-9.5 22q0 29 46.5 47t121.5 18q18 0 33.5 -1t31.5 -3t35 -6t44 -10q53 42 125 163l23 38h-35zM325 56
q-10 7 -29 14t-40.5 13t-43 9.5t-36.5 3.5q-35 0 -59.5 -16.5t-24.5 -40.5q0 -17 20 -28.5t51 -11.5q20 0 43 4.5t44.5 12t41 18t33.5 22.5zM629 328q39 13 70 26t59 29t54 36t55 46q29 27 53 54.5t41 53t26.5 48.5t9.5 40q0 13 -9 20.5t-24 7.5q-20 0 -38 -6t-37.5 -19.5
t-41.5 -35.5t-49 -55q-23 -28 -47 -59.5t-46 -63.5t-41.5 -63.5t-34.5 -58.5z" />
    <glyph glyph-name="Lcaron" unicode="&#x13d;" horiz-adv-x="760" 
d="M475 292q-93 0 -147.5 39.5t-54.5 105.5q0 43 23.5 83.5t62 71.5t88.5 49.5t103 18.5q27 0 44 -6t17 -17q0 -6 -8 -6q-4 0 -13 5q-22 11 -54 11q-40 0 -76.5 -16.5t-64.5 -44t-45 -63.5t-17 -75q0 -78 77 -115q24 -12 48.5 -16.5t63.5 -5.5l109 161q19 29 45.5 58
t56.5 55t62 48t62 36q67 31 119 31t52 -46q0 -44 -39 -100t-106 -109q-27 -21 -54 -38t-58.5 -33.5t-69 -32t-85.5 -33.5l-57 -79q-23 -31 -38.5 -51t-30 -36.5t-30.5 -31.5t-40 -35q7 -4 11 -6t24 -9q6 -2 10.5 -4t12 -5t21 -8.5t38.5 -15.5q34 -14 58.5 -19.5t49.5 -5.5
q61 0 115 74q50 68 50 132q0 26 -13 48q-1 2 -1 4q0 3 4 3q5 0 11 -8t11 -20t8.5 -26t3.5 -25q0 -44 -18 -81t-50 -64t-75 -42t-94 -15q-25 0 -48 2.5t-49 9t-57.5 17.5t-72.5 27q-35 -15 -61.5 -24t-49 -14.5t-44 -7.5t-47.5 -2q-24 0 -45.5 4.5t-37.5 12t-25.5 17.5
t-9.5 22q0 29 46.5 47t121.5 18q18 0 33.5 -1t31.5 -3t35 -6t44 -10q53 42 125 163l23 38h-35zM325 56q-10 7 -29 14t-40.5 13t-43 9.5t-36.5 3.5q-35 0 -59.5 -16.5t-24.5 -40.5q0 -17 20 -28.5t51 -11.5q20 0 43 4.5t44.5 12t41 18t33.5 22.5zM629 328q39 13 70 26t59 29
t54 36t55 46q29 27 53 54.5t41 53t26.5 48.5t9.5 40q0 13 -9 20.5t-24 7.5q-20 0 -38 -6t-37.5 -19.5t-41.5 -35.5t-49 -55q-23 -28 -47 -59.5t-46 -63.5t-41.5 -63.5t-34.5 -58.5zM1112 597q-8 -2 -12 -2h-9q-27 0 -27 25q0 11 6.5 22.5t16 21t22 15.5t24.5 6q13 0 21 -9.5
t8 -23.5q0 -15 -8.5 -34.5t-22 -38t-31 -34t-34.5 -23.5q-5 -2 -13.5 -4t-13.5 -2q-3 0 -3 3q0 4 7 7q25 12 40 27.5t29 43.5z" />
    <glyph glyph-name="Nacute" unicode="&#x143;" horiz-adv-x="892" 
d="M1426 902q-8 -14 -33 -35.5t-57 -44.5t-67 -43.5t-63 -31.5q-7 -3 -11.5 -4.5t-6.5 -3.5q-8 -4 -11 -4q-10 0 -10 9q0 6 7 9q30 16 58.5 37.5t51 42.5t36 40t13.5 31zM1069 373q38 62 68.5 109.5t56 83.5t47 63t42.5 50q33 37 65 56.5t58 19.5q15 0 25.5 -9t10.5 -23
q0 -11 -6.5 -19t-14.5 -8q-2 0 -4.5 1t-18.5 6q-3 1 -10 1q-15 0 -39 -12.5t-46 -32.5t-49 -51t-56 -69t-59 -82t-58 -90l-153 -249q-9 -17 -23.5 -37.5t-28.5 -38.5t-25.5 -30t-14.5 -12q-7 0 -7 7q0 4 4 8q12 15 17 25.5t13 33.5q8 27 13.5 63.5t5.5 68.5l-2 182
q0 31 3 59t9.5 56.5t17 59t25.5 66.5q-6 -7 -10.5 -12l-9 -10t-9 -11.5t-10.5 -15.5l-188 -289q-19 -30 -48 -67t-64 -77q-75 -86 -145 -125.5t-148 -39.5q-36 0 -65.5 12.5t-51 34.5t-33.5 52.5t-12 66.5q0 72 38 144.5t105 128.5q45 37 92.5 58t86.5 21q52 0 84.5 -28.5
t32.5 -74.5q0 -32 -13.5 -63.5t-37.5 -54.5q-13 -12 -25 -19.5t-19 -7.5q-6 0 -6 6q0 4 2.5 6t13.5 7q17 9 30 36.5t13 56.5q0 45 -28.5 74t-72.5 29q-47 0 -91 -22.5t-78 -60t-54.5 -86.5t-20.5 -101q0 -34 10 -61.5t29 -47.5t44.5 -31t57.5 -11q64 0 126 33.5t130 105.5
q7 7 23 25.5t33 38.5t31.5 37.5t17.5 22.5l195 280q12 17 21 29.5t18 23t18 19.5t20 19q23 21 40 33t24 12q4 0 4 -4q0 -2 -5 -6q-19 -12 -32 -28.5t-21.5 -40t-13 -54.5t-5.5 -73l6 -163l1 -10q2 -32 -10 -88t-36 -126z" />
    <glyph glyph-name="Ncaron" unicode="&#x147;" horiz-adv-x="892" 
d="M1341 896q10 7 16 10.5t9 5t5 2t4 0.5q9 0 9 -8q0 -7 -18 -24l-122 -106q-17 -14 -24 -18t-19 -4q-14 0 -23 6.5t-9 16.5t3 19l33 98q5 14 7.5 18.5t5.5 4.5q5 0 6 -4t1 -19v-77zM1069 373q38 62 68.5 109.5t56 83.5t47 63t42.5 50q33 37 65 56.5t58 19.5q15 0 25.5 -9
t10.5 -23q0 -11 -6.5 -19t-14.5 -8q-2 0 -4.5 1t-18.5 6q-3 1 -10 1q-15 0 -39 -12.5t-46 -32.5t-49 -51t-56 -69t-59 -82t-58 -90l-153 -249q-9 -17 -23.5 -37.5t-28.5 -38.5t-25.5 -30t-14.5 -12q-7 0 -7 7q0 4 4 8q12 15 17 25.5t13 33.5q8 27 13.5 63.5t5.5 68.5l-2 182
q0 31 3 59t9.5 56.5t17 59t25.5 66.5q-6 -7 -10.5 -12l-9 -10t-9 -11.5t-10.5 -15.5l-188 -289q-19 -30 -48 -67t-64 -77q-75 -86 -145 -125.5t-148 -39.5q-36 0 -65.5 12.5t-51 34.5t-33.5 52.5t-12 66.5q0 72 38 144.5t105 128.5q45 37 92.5 58t86.5 21q52 0 84.5 -28.5
t32.5 -74.5q0 -32 -13.5 -63.5t-37.5 -54.5q-13 -12 -25 -19.5t-19 -7.5q-6 0 -6 6q0 4 2.5 6t13.5 7q17 9 30 36.5t13 56.5q0 45 -28.5 74t-72.5 29q-47 0 -91 -22.5t-78 -60t-54.5 -86.5t-20.5 -101q0 -34 10 -61.5t29 -47.5t44.5 -31t57.5 -11q64 0 126 33.5t130 105.5
q7 7 23 25.5t33 38.5t31.5 37.5t17.5 22.5l195 280q12 17 21 29.5t18 23t18 19.5t20 19q23 21 40 33t24 12q4 0 4 -4q0 -2 -5 -6q-19 -12 -32 -28.5t-21.5 -40t-13 -54.5t-5.5 -73l6 -163l1 -10q2 -32 -10 -88t-36 -126z" />
    <glyph glyph-name="Ohungarumlaut" unicode="&#x150;" horiz-adv-x="604" 
d="M984 968q-34 -51 -84.5 -98.5t-107.5 -82.5q-13 -8 -15 -10q-5 -4 -8 -5t-7 -1q-11 0 -11 11q0 6 5 9q27 20 51.5 43.5t42.5 46t27.5 42t6.5 30.5zM1085 966q-3 -13 -22 -36.5t-46.5 -50t-59 -51.5t-59.5 -42q-6 -4 -10 -6t-6 -4q-5 -4 -7.5 -5t-5.5 -1q-12 0 -12 11
q0 6 5 9q27 21 51.5 44.5t42 46t27 41.5t7.5 30zM782 731q48 0 77.5 -32.5t29.5 -85.5q0 -61 -23 -132t-63.5 -141.5t-96 -137t-120.5 -118.5q-128 -102 -256 -102q-81 0 -127.5 47t-46.5 128q0 51 18 105.5t51.5 108.5t81.5 106t109 99q22 17 46 33t45.5 28t38 19.5
t24.5 7.5q5 0 5 -5q0 -2 -4 -4.5t-19 -10.5q-40 -18 -78.5 -48.5t-73.5 -68t-65 -81.5t-51.5 -88.5t-34 -89t-12.5 -83.5q0 -70 40 -110t110 -40q123 0 248 128q47 48 84.5 100.5t63.5 106.5t40 108t14 104q0 55 -24 84.5t-69 29.5q-47 0 -92.5 -22t-84.5 -64
q-38 -41 -60 -88t-22 -89q0 -47 28 -75t76 -28q35 0 63 13t66 46q4 4 7 4q4 0 4 -4q0 -5 -14 -18t-34 -26q-30 -20 -64 -30.5t-66 -10.5q-48 0 -80 27t-32 68q0 37 14.5 76t40 76t59.5 70t72 57.5t78 38.5t79 14z" />
    <glyph glyph-name="Racute" unicode="&#x154;" horiz-adv-x="604" 
d="M1052 947q-8 -14 -32.5 -35.5t-57 -44.5t-67 -43.5t-62.5 -31.5q-7 -3 -11.5 -4.5t-6.5 -3.5q-8 -4 -11 -4q-10 0 -10 8q0 6 7 10q30 16 58.5 37t51 42t36 40t13.5 31zM782 731q48 0 77.5 -32.5t29.5 -85.5q0 -61 -23 -132t-63.5 -141.5t-96 -137t-120.5 -118.5
q-128 -102 -256 -102q-81 0 -127.5 47t-46.5 128q0 51 18 105.5t51.5 108.5t81.5 106t109 99q22 17 46 33t45.5 28t38 19.5t24.5 7.5q5 0 5 -5q0 -2 -4 -4.5t-19 -10.5q-40 -18 -78.5 -48.5t-73.5 -68t-65 -81.5t-51.5 -88.5t-34 -89t-12.5 -83.5q0 -70 40 -110t110 -40
q123 0 248 128q47 48 84.5 100.5t63.5 106.5t40 108t14 104q0 55 -24 84.5t-69 29.5q-47 0 -92.5 -22t-84.5 -64q-38 -41 -60 -88t-22 -89q0 -47 28 -75t76 -28q35 0 63 13t66 46q4 4 7 4q4 0 4 -4q0 -5 -14 -18t-34 -26q-30 -20 -64 -30.5t-66 -10.5q-48 0 -80 27t-32 68
q0 37 14.5 76t40 76t59.5 70t72 57.5t78 38.5t79 14z" />
    <glyph glyph-name="Rcaron" unicode="&#x158;" horiz-adv-x="919" 
d="M1099 910q17 12 23 15t11 3q9 0 9 -8q0 -5 -4 -9.5t-14 -13.5l-122 -107q-17 -15 -24 -18.5t-19 -3.5q-14 0 -23 6.5t-9 17.5q0 10 3 19l33 97q7 23 13 23q5 0 6 -4t1 -18v-77zM96 112q16 0 27.5 -10t11.5 -23q0 -7 -3 -12t-13 -13q-2 -2 -2 -9q0 -23 22 -36.5t60 -13.5
q103 0 194 79q16 14 28 25t25 25.5t29.5 36t42 57t62.5 87.5t90 128q31 44 70 82t79.5 66t81 44t74.5 16q9 0 9 -5q0 -4 -6 -4q-29 -4 -53 -16t-51 -38t-59.5 -70t-77.5 -111q-58 -87 -97.5 -143t-69.5 -92.5t-56 -59.5t-56 -44q-114 -76 -245 -76q-75 0 -119 23t-44 62
q0 18 13.5 31.5t32.5 13.5zM825 341q20 -17 28.5 -32.5t8.5 -36.5q0 -8 -1.5 -15.5t-3.5 -18.5l-2 -6t-6.5 -14t-17.5 -33.5t-33 -63.5q-17 -33 -17 -58q0 -35 27 -35q37 0 85.5 39t119.5 126q12 14 16 14q3 0 3 -3q0 -7 -77 -94q-49 -56 -101 -88t-94 -32q-29 0 -48 20
t-19 51q0 17 5.5 34.5t19.5 43.5l5.5 11t10 17t22 34.5t41.5 64.5q17 26 17 49q0 36 -42 39q-12 0 -15.5 1t-3.5 5q0 3 0.5 4t4.5 2t12 1h22q46 0 97 20t87 52q74 65 74 141q0 61 -53.5 94t-153.5 33q-58 0 -114 -11t-106.5 -31.5t-93 -49.5t-72.5 -65q-29 -34 -45.5 -71
t-16.5 -66q0 -36 22 -59.5t55 -23.5q12 0 26.5 4t29 10.5t28 15.5t23.5 19q4 4 6 4q3 0 3 -3q0 -5 -14 -19q-76 -75 -152 -75q-42 0 -68 26.5t-26 70.5q0 46 26.5 95t76.5 94q39 35 89 63t107 47.5t119 30t126 10.5q113 0 178 -40t65 -110q0 -41 -22.5 -77t-63 -65
t-97 -48.5t-123.5 -26.5z" />
    <glyph glyph-name="Sacute" unicode="&#x15a;" horiz-adv-x="611" 
d="M1004 924q-7 -14 -32 -35.5t-57 -44.5t-67 -43.5t-63 -31.5q-7 -3 -11.5 -4.5t-6.5 -3.5q-8 -4 -11 -4q-10 0 -10 9q0 6 7 9q30 16 58.5 37t51 42.5t36 40.5t13.5 31zM558 445q-7 17 -7 49q0 46 19 87t51.5 71.5t76 48t93.5 17.5q56 0 89 -29t33 -78q0 -31 -12 -60
t-31.5 -51.5t-45.5 -36t-53 -13.5q-11 0 -20 5t-9 10q0 4 4 4q1 0 7 -2q9 -6 19 -6q19 0 37.5 11.5t33.5 30.5t24 43t9 49q0 48 -28.5 76.5t-76.5 28.5q-32 0 -59.5 -13t-47 -35.5t-30.5 -54t-11 -68.5q0 -42 11 -69l57 -142q12 -30 12 -70q0 -63 -27.5 -113.5t-81.5 -85.5
q-48 -32 -108 -49.5t-122 -17.5q-48 0 -88.5 14t-70 39t-45.5 60.5t-16 77.5q0 52 23 99.5t61.5 84t89 58t106.5 21.5q48 0 77 -26t29 -68q0 -35 -17 -69t-46 -58q-13 -10 -29 -17.5t-26 -7.5q-6 0 -6 5q0 3 8 5q33 14 55 47t22 70q0 44 -28 72t-73 28q-39 0 -74.5 -18
t-62 -48t-42.5 -70t-16 -84q0 -43 15 -79t42 -62.5t64 -41t81 -14.5q48 0 90.5 17t74 46.5t49.5 69.5t18 86q0 34 -8 58z" />
    <glyph glyph-name="Scedilla" unicode="&#x15e;" horiz-adv-x="611" 
d="M321 -41q18 -19 24 -29t6 -23q0 -18 -9.5 -35t-25.5 -29.5t-37 -20.5t-43 -8t-38 13.5t-16 31.5q0 15 11 25t27 10q7 0 12 -2t16 -9q-13 -15 -15.5 -19t-2.5 -9q0 -6 7.5 -10.5t18.5 -4.5q10 0 19.5 4.5t17 11.5t12.5 15.5t5 17.5q0 10 -6.5 18t-32.5 28q-1 0 -2 1
t-2 1.5t-2 2.5l55 45q-81 13 -128.5 63.5t-47.5 123.5q0 52 23 100t61.5 84.5t89 58t106.5 21.5q48 0 77 -26t29 -68q0 -35 -17 -69t-46 -58q-13 -10 -29 -17.5t-26 -7.5q-6 0 -6 5q0 3 8 5q33 14 55 47t22 70q0 44 -28 72t-73 28q-39 0 -74.5 -18t-62 -48t-42.5 -70
t-16 -84q0 -43 15 -79t42 -62.5t64 -41t81 -14.5q48 0 90.5 17t74 46.5t49.5 69.5t18 86q0 34 -8 58l-63 168q-7 17 -7 49q0 46 19 87t51.5 71.5t76 48t93.5 17.5q56 0 89 -29t33 -79q0 -30 -12 -59t-31.5 -51.5t-45.5 -36t-53 -13.5q-11 0 -20 5t-9 10q0 4 4 4q1 0 7 -2
q9 -6 19 -6t23.5 5.5t24.5 14.5q27 20 41.5 50t14.5 64q0 48 -28.5 76.5t-76.5 28.5q-32 0 -59.5 -13t-47 -35.5t-30.5 -54t-11 -68.5q0 -42 11 -69l57 -142q12 -30 12 -70q0 -63 -27.5 -113.5t-81.5 -85.5q-48 -32 -108.5 -49.5t-122.5 -17.5h-16z" />
    <glyph glyph-name="Tcaron" unicode="&#x164;" horiz-adv-x="597" 
d="M1138 896q10 7 16 10.5t9 5t5 2t4 0.5q9 0 9 -8q0 -5 -3.5 -10t-14.5 -14l-122 -106q-9 -9 -14.5 -13.5t-10 -6.5t-8.5 -2.5t-10 -0.5q-14 0 -23 6.5t-9 17.5q0 10 3 19l32 98q5 14 8 18.5t6 4.5q5 0 6 -4t1 -19v-77zM750 331q-36 -57 -56 -88.5t-34 -51t-25.5 -33
t-30.5 -33.5q-64 -68 -153.5 -105.5t-186.5 -37.5q-80 0 -126 23.5t-46 63.5q0 20 13 33t32 13q15 0 26 -9.5t11 -22.5q0 -5 -2 -7.5t-9 -8.5q-9 -8 -9 -16q0 -12 9 -22.5t24 -18t35.5 -12t44.5 -4.5q44 0 85 11.5t72 32.5q14 9 30 23t32 29.5t29.5 31.5t22.5 29l167 250
q48 66 99.5 110t108.5 68q12 4 21 9q18 8 27 8q5 0 5 -3t-4 -4q-23 -11 -37.5 -19.5t-26 -19t-22.5 -25t-26 -36.5zM1047 654q12 -2 34.5 -3.5t48.5 -1.5q13 0 22.5 0.5t17.5 2.5t16.5 5t19.5 8l11 4q2 0 2 -2t-4 -4.5t-18 -9.5q-29 -13 -68 -19.5t-90 -6.5q-57 0 -124 14
l-115 25q-58 13 -121 13q-58 0 -110.5 -12.5t-96.5 -37.5q-35 -19 -65 -47t-52 -59.5t-34.5 -65t-12.5 -63.5q0 -52 35.5 -84.5t92.5 -32.5q14 0 24.5 1t20 3.5t21 8t28.5 14.5q21 11 26 14t6 3q3 3 6 3t3 -3q0 -4 -19 -18q-47 -29 -91.5 -44.5t-81.5 -15.5q-61 0 -98 32
t-37 85q0 36 16 74t44.5 75t69 70.5t88.5 59.5q29 16 62.5 28.5t68.5 21.5t70.5 14t68.5 5q11 0 27.5 -1t33 -2.5t32 -3.5t24.5 -4z" />
    <glyph glyph-name="Uring" unicode="&#x16e;" horiz-adv-x="930" 
d="M889 821q0 26 17 43t43 17q24 0 41.5 -18t17.5 -42q0 -25 -17 -42t-42 -17q-24 0 -42 16.5t-18 39.5v3zM949 860q-16 0 -27 -12t-11 -29q0 -15 11 -25.5t27 -10.5t27 11t11 27t-11 27.5t-27 11.5zM1061 653q8 -1 14 -1h11q14 0 30 2.5t39 7.5l-265 -394
q-21 -31 -38.5 -62.5t-31 -59t-21 -50t-7.5 -35.5q0 -14 8 -23t22 -9q47 0 136 93q22 23 34.5 36t18.5 19t7.5 8t3.5 4q6 6 8 6q4 0 4 -4q0 -2 -1 -3.5t-7.5 -9t-20 -22.5t-38.5 -43q-11 -12 -25.5 -26t-31 -28t-33 -27t-30.5 -22q-23 -15 -40.5 -21.5t-37.5 -6.5
q-23 0 -37.5 16t-14.5 41q0 14 1.5 26.5t6.5 27.5t13 35t22 49q3 5 6.5 12.5t8.5 18.5q-33 -37 -57.5 -64t-44 -47t-35.5 -34t-32 -26q-35 -26 -71 -41t-65 -15q-30 0 -49 21t-19 53q0 54 34 116q5 10 10 18.5t12.5 20.5t20.5 30.5t35 50t55.5 77.5t81.5 114q30 42 47 83
t17 71q0 26 -16.5 41t-43.5 15q-111 0 -227 -100q-71 -61 -109.5 -128t-38.5 -128q0 -35 20 -54.5t55 -19.5q32 0 57 12t55 41q2 2 4 2t2 -2q0 -3 -7 -12.5t-18 -20.5q-67 -67 -131 -67q-39 0 -63 26.5t-24 68.5q0 34 13.5 73t38 78.5t58 77t74.5 68.5q61 47 129 73.5
t127 26.5q53 0 83 -24t30 -66q0 -67 -69 -165l-85 -121q-37 -51 -57 -79.5t-31.5 -45t-17 -26.5t-13.5 -25q-16 -28 -23 -50t-7 -42q0 -17 11.5 -28t28.5 -11q22 0 54.5 16t66.5 43q10 8 28 26t37 37.5t35.5 38t23.5 28.5l119 165z" />
    <glyph glyph-name="Uhungarumlaut" unicode="&#x170;" horiz-adv-x="930" 
d="M1107 914q-34 -51 -84 -98t-108 -83q-13 -8 -15 -10q-5 -4 -8 -5t-7 -1q-11 0 -11 11q0 5 5 9q27 20 51.5 43.5t42 46t27 42t7.5 30.5zM1208 913q-3 -14 -22 -37.5t-46 -49.5t-59 -51.5t-60 -42.5q-6 -4 -10 -6t-6 -4q-5 -4 -7.5 -5t-5.5 -1q-12 0 -12 11q0 6 5 9
q27 20 51 43.5t42 46.5t27.5 42t7.5 30zM1061 653q8 -1 14 -1h11q14 0 30 2.5t39 7.5l-265 -394q-21 -31 -38.5 -62.5t-31 -59t-21 -50t-7.5 -35.5q0 -14 8 -23t22 -9q47 0 136 93q22 23 34.5 36t18.5 19t7.5 8t3.5 4q6 6 8 6q4 0 4 -4q0 -2 -1 -3.5t-7.5 -9t-20 -22.5
t-38.5 -43q-11 -12 -25.5 -26t-31 -28t-33 -27t-30.5 -22q-23 -15 -40.5 -21.5t-37.5 -6.5q-23 0 -37.5 16t-14.5 41q0 14 1.5 26.5t6.5 27.5t13 35t22 49q3 5 6.5 12.5t8.5 18.5q-33 -37 -57.5 -64t-44 -47t-35.5 -34t-32 -26q-35 -26 -71 -41t-65 -15q-30 0 -49 21t-19 53
q0 54 34 116q5 10 10 18.5t12.5 20.5t20.5 30.5t35 50t55.5 77.5t81.5 114q30 42 47 83t17 71q0 26 -16.5 41t-43.5 15q-111 0 -227 -100q-71 -61 -109.5 -128t-38.5 -128q0 -35 20 -54.5t55 -19.5q32 0 57 12t55 41q2 2 4 2t2 -2q0 -3 -7 -12.5t-18 -20.5q-67 -67 -131 -67
q-39 0 -63 26.5t-24 68.5q0 34 13.5 73t38 78.5t58 77t74.5 68.5q61 47 129 73.5t127 26.5q53 0 83 -24t30 -66q0 -67 -69 -165l-85 -121q-37 -51 -57 -79.5t-31.5 -45t-17 -26.5t-13.5 -25q-16 -28 -23 -50t-7 -42q0 -17 11.5 -28t28.5 -11q22 0 54.5 16t66.5 43
q10 8 28 26t37 37.5t35.5 38t23.5 28.5l119 165z" />
    <glyph glyph-name="Zacute" unicode="&#x179;" horiz-adv-x="818" 
d="M1075 902q-8 -14 -32.5 -35.5t-57 -44.5t-67.5 -43.5t-63 -31.5q-7 -3 -11.5 -4.5t-6.5 -3.5q-8 -4 -11 -4q-10 0 -10 9q0 6 7 9q30 16 58.5 37t51 42.5t36 40.5t13.5 31zM883 266q12 -14 16.5 -26.5t4.5 -32.5q0 -44 -24.5 -85t-65.5 -72.5t-94.5 -50t-111.5 -18.5
q-26 0 -50 3.5t-52.5 11.5t-64 22.5t-83.5 35.5q-58 -22 -101.5 -31.5t-82.5 -9.5q-54 0 -89 15.5t-35 40.5q0 14 12.5 27t34.5 22.5t51 15t62 5.5q42 0 80 -6.5t88 -20.5q31 21 57.5 42t56.5 52.5t68.5 76.5t94.5 114q31 37 54.5 64t46 49t46 42.5t55.5 45.5
q-29 7 -54.5 13t-34.5 8q-28 7 -48.5 11t-38 6.5t-34 3.5t-35.5 1q-49 0 -88.5 -10t-74.5 -31q-45 -26 -70.5 -64t-25.5 -77q0 -32 15.5 -52.5t39.5 -20.5q10 0 21 4q7 3 12 3q6 0 6 -9q0 -17 -16.5 -30t-36.5 -13q-30 0 -50 22.5t-20 55.5q0 32 13.5 65.5t36.5 65t54.5 59
t66.5 48t73 32.5t74 12q19 0 45 -3.5t52 -8.5q7 -2 13 -3t19.5 -5t38 -12t69.5 -22q3 -1 11 -3t20 -6q33 15 59 25t48 15.5t42 8t42 2.5q30 0 47 -9t17 -25q0 -28 -66 -49q-11 -3 -28 -6.5t-35.5 -5.5t-37.5 -3.5t-34 -1.5q-8 0 -22.5 1t-32.5 3q-20 -18 -40 -38t-43 -46
t-52 -62t-68 -85q-39 -50 -73.5 -90t-67 -72.5t-64 -58.5t-64.5 -48q12 -6 19.5 -10t16.5 -7.5t22.5 -8.5t36.5 -14q35 -13 58 -21t39 -12t28 -5.5t26 -1.5q71 0 139 86q61 79 61 149v18zM324 74q-29 13 -50.5 22t-39.5 14t-33.5 7.5t-30.5 2.5q-32 0 -53 -14.5t-21 -35.5
t19 -32.5t54 -11.5q18 0 33 2t32 7t38.5 14.5t51.5 24.5zM952 625q3 0 5 -0.5t6.5 -1.5t12.5 -2t23 -4q10 -2 21 -3t23 -1q40 0 64.5 10.5t24.5 27.5q0 13 -12.5 20.5t-33.5 7.5q-75 0 -134 -54z" />
    <glyph glyph-name="Zdotaccent" unicode="&#x17b;" horiz-adv-x="818" 
d="M891 872q11 0 18.5 -7.5t7.5 -18.5q0 -13 -6 -26.5t-15.5 -24t-21.5 -17t-24 -6.5q-11 0 -19 9t-7 20q1 13 7.5 26t16 23t21 16t22.5 6zM883 266q12 -14 16.5 -26.5t4.5 -32.5q0 -44 -24.5 -85t-65.5 -72.5t-94.5 -50t-111.5 -18.5q-26 0 -50 3.5t-52.5 11.5t-64 22.5
t-83.5 35.5q-58 -22 -101.5 -31.5t-82.5 -9.5q-54 0 -89 15.5t-35 40.5q0 14 12.5 27t34.5 22.5t51 15t62 5.5q42 0 80 -6.5t88 -20.5q31 21 57.5 42t56.5 52.5t68.5 76.5t94.5 114q31 37 54.5 64t46 49t46 42.5t55.5 45.5q-29 7 -54.5 13t-34.5 8q-28 7 -48.5 11t-38 6.5
t-34 3.5t-35.5 1q-49 0 -88.5 -10t-74.5 -31q-45 -26 -70.5 -64t-25.5 -77q0 -32 15.5 -52.5t39.5 -20.5q10 0 21 4q7 3 12 3q6 0 6 -9q0 -17 -16.5 -30t-36.5 -13q-30 0 -50 22.5t-20 55.5q0 32 13.5 65.5t36.5 65t54.5 59t66.5 48t73 32.5t74 12q19 0 45 -3.5t52 -8.5
q7 -2 13 -3t19.5 -5t38 -12t69.5 -22q3 -1 11 -3t20 -6q33 15 59 25t48 15.5t42 8t42 2.5q30 0 47 -9t17 -25q0 -28 -66 -49q-11 -3 -28 -6.5t-35.5 -5.5t-37.5 -3.5t-34 -1.5q-8 0 -22.5 1t-32.5 3q-20 -18 -40 -38t-43 -46t-52 -62t-68 -85q-39 -50 -73.5 -90t-67 -72.5
t-64 -58.5t-64.5 -48q12 -6 19.5 -10t16.5 -7.5t22.5 -8.5t36.5 -14q35 -13 58 -21t39 -12t28 -5.5t26 -1.5q71 0 139 86q61 79 61 149v18zM324 74q-29 13 -50.5 22t-39.5 14t-33.5 7.5t-30.5 2.5q-32 0 -53 -14.5t-21 -35.5t19 -32.5t54 -11.5q18 0 33 2t32 7t38.5 14.5
t51.5 24.5zM952 625q3 0 5 -0.5t6.5 -1.5t12.5 -2t23 -4q10 -2 21 -3t23 -1q40 0 64.5 10.5t24.5 27.5q0 13 -12.5 20.5t-33.5 7.5q-75 0 -134 -54z" />
    <glyph glyph-name="Amacron" unicode="&#x100;" 
d="M1318 852q17 0 36 4h3q10 0 10 -13q0 -11 -8 -20.5t-21.5 -17t-30.5 -12t-36 -4.5h-7t-9 1t-17.5 2t-31.5 4q-3 1 -9 1q-7 0 -11 -1q-21 -6 -25 -6q-12 0 -12 13q0 10 8 19.5t21 17t29 12t33 4.5h4.5t9.5 -0.5t20.5 -1.5t39.5 -2h4zM637 315q-5 0 -9.5 2t-4.5 4
q0 10 28 10h58l183 184q93 94 166 139.5t132 45.5q24 0 39 -12.5t15 -32.5t-15 -49t-53 -81l-244 -338q-28 -39 -47.5 -68t-32.5 -50.5t-21 -38t-12 -30.5h-72q-10 0 -10 6q0 4 4 9q5 5 14 28q3 7 6 12.5t8 12.5t13 18.5t22 30.5q19 26 37.5 52.5t38.5 52.5l70 93h-221
l-169 -182q-11 -11 -29 -27t-38.5 -32.5t-41 -32.5t-36.5 -26q-35 -23 -76.5 -36t-77.5 -13q-37 0 -67.5 12.5t-52.5 34.5t-34 53t-12 68q0 64 31 128t80.5 115t111.5 83t124 32q50 0 82 -31.5t32 -80.5q0 -22 -7 -46t-17.5 -44.5t-23.5 -33.5t-25 -13q-4 0 -4 5q0 1 3 3
q18 15 28.5 42.5t10.5 58.5q0 28 -15.5 53.5t-41.5 38.5q-24 12 -58 12q-51 0 -97.5 -23t-82.5 -61.5t-57.5 -89t-21.5 -104.5q0 -31 10.5 -57t29.5 -45t45.5 -29.5t57.5 -10.5q18 0 33.5 2.5t32 8t34.5 15t41 24.5q45 29 88.5 63t74.5 65l101 101h-58zM961 331l103 141
l79 112q30 41 30 65q0 10 -9.5 16t-23.5 6q-18 0 -45 -12.5t-58.5 -34t-65.5 -52t-67 -66.5l-163 -175h220z" />
    <glyph glyph-name="Tcommaaccent" unicode="&#x162;" horiz-adv-x="597" 
d="M255 -179q-8 -2 -12 -2h-9q-27 0 -27 24q0 11 6.5 23t16 21.5t22 15.5t24.5 6q13 0 21 -9.5t8 -23.5q0 -20 -12.5 -44t-31 -44t-40.5 -33.5t-40 -13.5q-3 0 -3 3q0 4 7 7q25 11 40.5 27t29.5 43zM755 331q-36 -57 -56 -88.5t-34 -51t-25.5 -33t-30.5 -33.5
q-64 -68 -153.5 -105.5t-186.5 -37.5q-80 0 -126 23.5t-46 63.5q0 20 13 33t32 13q15 0 26 -9.5t11 -22.5q0 -5 -2 -7.5t-9 -8.5q-9 -8 -9 -16q0 -12 9 -22.5t24 -18t35.5 -12t44.5 -4.5q44 0 85 11.5t72 32.5q14 9 30 23t32 29.5t29.5 31.5t22.5 29l167 250q48 66 99.5 110
t108.5 68q12 4 21 9q18 8 27 8q5 0 5 -3t-4 -4q-23 -11 -37.5 -19.5t-26 -19t-22.5 -25t-26 -36.5zM1052 654q12 -2 34.5 -3.5t48.5 -1.5q13 0 22.5 0.5t17.5 2.5t16.5 5t19.5 8l11 4q2 0 2 -2t-4 -4.5t-18 -9.5q-29 -13 -68 -19.5t-90 -6.5q-57 0 -124 14l-115 25
q-58 13 -121 13q-58 0 -110.5 -12.5t-96.5 -37.5q-35 -19 -65 -47t-52 -59.5t-34.5 -65t-12.5 -63.5q0 -52 35.5 -84.5t92.5 -32.5q14 0 24.5 1t20 3.5t21 8t28.5 14.5q21 11 26 14t6 3q3 3 6 3t3 -3q0 -4 -19 -18q-47 -29 -91.5 -44.5t-81.5 -15.5q-61 0 -98 32t-37 85
q0 36 16 74t44.5 75t69 70.5t88.5 59.5q29 16 62.5 28.5t68.5 21.5t70.5 14t68.5 5q11 0 27.5 -1t33 -2.5t32 -3.5t24.5 -4z" />
    <glyph glyph-name="uni021A" unicode="&#x21a;" horiz-adv-x="597" 
d="M255 -179q-8 -2 -12 -2h-9q-27 0 -27 24q0 11 6.5 23t16 21.5t22 15.5t24.5 6q13 0 21 -9.5t8 -23.5q0 -20 -12.5 -44t-31 -44t-40.5 -33.5t-40 -13.5q-3 0 -3 3q0 4 7 7q25 11 40.5 27t29.5 43zM755 331q-36 -57 -56 -88.5t-34 -51t-25.5 -33t-30.5 -33.5
q-64 -68 -153.5 -105.5t-186.5 -37.5q-80 0 -126 23.5t-46 63.5q0 20 13 33t32 13q15 0 26 -9.5t11 -22.5q0 -5 -2 -7.5t-9 -8.5q-9 -8 -9 -16q0 -12 9 -22.5t24 -18t35.5 -12t44.5 -4.5q44 0 85 11.5t72 32.5q14 9 30 23t32 29.5t29.5 31.5t22.5 29l167 250q48 66 99.5 110
t108.5 68q12 4 21 9q18 8 27 8q5 0 5 -3t-4 -4q-23 -11 -37.5 -19.5t-26 -19t-22.5 -25t-26 -36.5zM1052 654q12 -2 34.5 -3.5t48.5 -1.5q13 0 22.5 0.5t17.5 2.5t16.5 5t19.5 8l11 4q2 0 2 -2t-4 -4.5t-18 -9.5q-29 -13 -68 -19.5t-90 -6.5q-57 0 -124 14l-115 25
q-58 13 -121 13q-58 0 -110.5 -12.5t-96.5 -37.5q-35 -19 -65 -47t-52 -59.5t-34.5 -65t-12.5 -63.5q0 -52 35.5 -84.5t92.5 -32.5q14 0 24.5 1t20 3.5t21 8t28.5 14.5q21 11 26 14t6 3q3 3 6 3t3 -3q0 -4 -19 -18q-47 -29 -91.5 -44.5t-81.5 -15.5q-61 0 -98 32t-37 85
q0 36 16 74t44.5 75t69 70.5t88.5 59.5q29 16 62.5 28.5t68.5 21.5t70.5 14t68.5 5q11 0 27.5 -1t33 -2.5t32 -3.5t24.5 -4z" />
    <glyph glyph-name="Emacron" unicode="&#x112;" horiz-adv-x="638" 
d="M856 852q17 0 36 4h3q10 0 10 -13q0 -11 -8 -20.5t-21.5 -17t-30.5 -12t-36 -4.5h-7t-9 1t-17.5 2t-31.5 4q-2 1 -9 1t-11 -1q-21 -6 -25 -6q-12 0 -12 13q0 10 8 19.5t21 17t29 12t33 4.5h4.5t9.5 -0.5t20.5 -1.5t39.5 -2h4zM527 451q6 1 13 1h14q45 0 71.5 -9t26.5 -26
q0 -14 -19.5 -21t-54.5 -7q-36 0 -68 9t-66 29q-45 -14 -74 -29t-58 -38q-23 -19 -41.5 -42.5t-32 -48.5t-21 -50.5t-7.5 -49.5q0 -30 14 -55.5t39.5 -44t60 -29t76.5 -10.5q146 0 267 98q14 11 29 25t29 28.5t26 28.5t20 25q4 7 9 7q4 0 4 -4t-10.5 -18.5t-26.5 -33.5
t-34.5 -38.5t-34.5 -33.5q-70 -63 -154 -98t-165 -35q-52 0 -99 16t-81 45q-56 49 -56 119q0 33 12 65.5t33.5 62t53 55t70.5 44.5q34 17 67 28t81 22q-24 36 -24 61v1q0 2 1 3q-54 11 -100 31q-34 16 -52.5 39.5t-18.5 51.5q0 19 10.5 35.5t29 28.5t44.5 19t57 7
q17 0 33.5 -2t30 -5t21.5 -6.5t8 -7.5q0 -6 -7 -6q-2 0 -8 2q-39 13 -72 13q-21 0 -39.5 -6.5t-32.5 -18t-22 -26.5t-8 -32q0 -73 127 -106q8 29 17.5 48.5t24.5 35.5q49 52 126 80.5t170 28.5q59 0 90.5 -15t31.5 -43q0 -29 -30.5 -56.5t-80 -49t-113 -34.5t-130.5 -13
q-10 0 -19 0.5t-25 1.5q-3 -12 -3 -20t2 -14t8 -16h9zM482 508q20 -2 30 -2h22q95 0 193 40q51 20 78.5 46.5t27.5 55.5q0 23 -21 35.5t-58 12.5q-47 0 -94 -16.5t-85 -43t-63.5 -60t-29.5 -68.5zM491 437q17 -20 34 -28t42 -8q14 0 23.5 4t9.5 11q0 11 -17 16.5t-48 5.5
h-15t-29 -1z" />
    <glyph glyph-name="Imacron" unicode="&#x12a;" horiz-adv-x="597" 
d="M1033 852q17 0 36 4h3q10 0 10 -13q0 -11 -8 -20.5t-21.5 -17t-30.5 -12t-36 -4.5h-7t-9 1t-17.5 2t-31.5 4q-2 1 -9 1t-11 -1q-21 -6 -25 -6q-12 0 -12 13q0 10 8 19.5t21 17t29 12t33 4.5h4.5t9.5 -0.5t20.5 -1.5t39.5 -2h4zM750 331q-36 -57 -56 -88.5t-34 -51
t-25.5 -33t-30.5 -33.5q-64 -68 -153.5 -105.5t-186.5 -37.5q-80 0 -126 23.5t-46 63.5q0 20 13 33t32 13q15 0 26 -9.5t11 -22.5q0 -5 -2 -7.5t-9 -8.5q-9 -8 -9 -16q0 -12 9 -22.5t24 -18t35.5 -12t44.5 -4.5q44 0 85 11.5t72 32.5q14 9 30 23t32 29.5t29.5 31.5t22.5 29
l167 250q48 66 99.5 110t108.5 68q12 4 21 9q18 8 27 8q5 0 5 -3t-4 -4q-23 -11 -37.5 -19.5t-26 -19t-22.5 -25t-26 -36.5zM1047 654q12 -2 34.5 -3.5t48.5 -1.5q13 0 22.5 0.5t17.5 2.5t16.5 5t19.5 8l11 4q2 0 2 -2t-4 -4.5t-18 -9.5q-29 -13 -68 -19.5t-90 -6.5
q-57 0 -124 14l-115 25q-58 13 -121 13q-58 0 -110.5 -12.5t-96.5 -37.5q-35 -19 -65 -47t-52 -59.5t-34.5 -65t-12.5 -63.5q0 -52 35.5 -84.5t92.5 -32.5q14 0 24.5 1t20 3.5t21 8t28.5 14.5q21 11 26 14t6 3q3 3 6 3t3 -3q0 -4 -19 -18q-47 -29 -91.5 -44.5t-81.5 -15.5
q-61 0 -98 32t-37 85q0 36 16 74t44.5 75t69 70.5t88.5 59.5q29 16 62.5 28.5t68.5 21.5t70.5 14t68.5 5q11 0 27.5 -1t33 -2.5t32 -3.5t24.5 -4z" />
    <glyph glyph-name="Iogonek" unicode="&#x12e;" horiz-adv-x="549" 
d="M696 285q-46 -70 -101.5 -126t-116.5 -95.5t-125.5 -60.5t-127.5 -22q-14 -11 -19 -19.5t-5 -22.5q0 -15 9.5 -26.5t21.5 -11.5q11 0 19.5 9t8.5 20q0 9 4 9q8 0 15 -13t7 -28q0 -23 -15 -37.5t-38 -14.5q-28 0 -47 23.5t-19 58.5q0 30 16 55q-60 5 -95 28t-35 57
q0 21 14 36.5t33 15.5q14 0 25 -9.5t11 -21.5q0 -9 -11 -20q-8 -8 -8 -15q0 -11 9.5 -22t24.5 -19.5t34.5 -13.5t39.5 -5q49 0 99 20t93 57q16 14 33.5 31.5t34.5 36t32.5 36.5t26.5 34l198 281q32 40 58.5 68t53.5 50t57.5 40.5t71.5 38.5q-14 1 -24.5 1.5t-18.5 0.5
q-19 0 -48 -3t-61 -8t-62.5 -11.5t-52.5 -12.5q-49 -14 -103 -43.5t-97 -66.5q-45 -38 -68 -77.5t-23 -76.5q0 -30 21.5 -51t53.5 -21q42 0 88 28l4 2q3 0 3 -3q0 -2 -3.5 -5t-14.5 -10q-26 -19 -60 -30t-66 -11q-43 0 -71 26t-28 67q0 35 17 70t48 68t75 62t99 52
q26 11 50 19t49.5 14.5t55.5 11.5t68 10q42 5 76.5 8t52.5 3q16 0 33 -1t30 -3t21.5 -4.5t8.5 -5.5q0 -4 -7 -5q-40 -2 -78 -32.5t-85 -97.5z" />
    <glyph glyph-name="Kcommaaccent" unicode="&#x136;" horiz-adv-x="919" 
d="M504 -179q-8 -2 -12.5 -2h-9.5q-27 0 -27 25q0 11 6.5 22.5t16.5 21t22 15.5t24 6q13 0 21.5 -9.5t8.5 -23.5q0 -15 -8.5 -34t-22.5 -37.5t-31 -34t-35 -23.5q-5 -2 -13.5 -4t-13.5 -2q-3 0 -3 3q0 4 7 7q25 12 40.5 27.5t29.5 42.5zM666 457q29 45 75 90t100 83
q-119 26 -225 26q-62 0 -117.5 -18.5t-97.5 -50t-66.5 -73.5t-24.5 -89q0 -39 23 -63.5t60 -24.5q18 0 38.5 6t40 17t37 26t31.5 33q6 6 9 6q4 0 4 -3q0 -6 -9.5 -20t-23.5 -28q-77 -79 -154 -79q-20 0 -38 7t-31 20t-20.5 29.5t-7.5 36.5q0 25 8 53t23 55.5t36.5 54
t47.5 49.5q54 46 122 71.5t139 25.5q16 0 29.5 -1t29.5 -4.5t36.5 -9t50.5 -14.5q8 -2 27 -7.5t43 -12.5l19.5 6.5t11.5 4.5q11 5 23 10.5t24 10.5q32 13 65 13q20 0 32 -7t12 -18q0 -20 -38 -32q-11 -3 -19 -5t-19 -3t-29 -1h-48q-2 0 -7.5 -0.5t-14.5 -1.5
q-18 -18 -29 -29.5t-20.5 -24t-20.5 -29.5t-29 -46l-162 -262q-36 -57 -83 -103.5t-100.5 -79t-112 -50t-117.5 -17.5q-67 0 -108 22.5t-41 60.5q0 22 15 38t35 16q15 0 26 -10t11 -24q0 -8 -2.5 -12t-11.5 -10q-13 -9 -13 -20q0 -20 27 -34t67 -14q47 0 94 20.5t89 58.5
q12 10 27.5 26.5t31 34.5t29.5 36t23 32zM819 350q2 -3 4 -5l3 -3q10 -12 16 -20t9.5 -15.5t4.5 -15.5t1 -18q0 -15 -2 -28t-8 -29.5t-17 -38.5t-28 -55q-21 -42 -21 -65q0 -16 8.5 -25.5t22.5 -9.5q24 0 58.5 21t75.5 60q8 8 80 89q3 4 5 4q5 0 5 -4q0 -2 -8.5 -13
t-22 -26.5t-30.5 -33.5t-33 -34q-54 -54 -96 -78.5t-80 -24.5q-29 0 -48 18t-19 45q0 37 27 90q3 6 5.5 10.5t9 14.5t18.5 28.5t35 51.5q11 16 17 34.5t6 32.5q0 15 -2.5 22.5t-10.5 12.5q-23 -5 -35.5 -7.5t-22.5 -2.5q-15 0 -24.5 5t-9.5 13q0 20 46 20q18 0 50 -14
q6 1 20 10t32 23.5t39 33t42 38.5l128 130q51 53 95 81t75 28q20 0 32 -8.5t12 -22.5q0 -17 -12 -17q-5 0 -12 3q-15 5 -25 5q-15 0 -35.5 -6.5t-42.5 -17.5t-42.5 -25t-36.5 -30l-129 -129q-14 -14 -28.5 -27t-26.5 -23.5t-20 -17t-10 -6.5l-37 -24zM794 351q-10 5 -16 7
t-14 2q-11 0 -18.5 -3t-7.5 -8q0 -3 4.5 -5t10.5 -2q13 0 22 2t19 7zM894 642q16 -2 28.5 -3t22.5 -1q26 0 47.5 8.5t21.5 19.5q0 5 -7.5 9.5t-17.5 4.5q-21 0 -42.5 -8.5t-52.5 -29.5z" />
    <glyph glyph-name="Lcommaaccent" unicode="&#x13b;" horiz-adv-x="760" 
d="M351 -179q-8 -2 -12.5 -2h-9.5q-27 0 -27 25q0 11 6.5 22.5t16.5 21t22 15.5t24 6q13 0 21.5 -9.5t8.5 -23.5q0 -15 -8.5 -34t-22.5 -37.5t-31 -34t-35 -23.5q-5 -2 -13.5 -4t-13.5 -2q-3 0 -3 3q0 4 7 7q25 12 40.5 27.5t29.5 42.5zM475 292q-93 0 -147.5 39.5
t-54.5 105.5q0 43 23.5 83.5t62 71.5t88.5 49.5t103 18.5q27 0 44 -6t17 -17q0 -6 -8 -6q-4 0 -13 5q-22 11 -54 11q-40 0 -76.5 -16.5t-64.5 -44t-45 -63.5t-17 -75q0 -78 77 -115q24 -12 48.5 -16.5t63.5 -5.5l109 161q19 29 45.5 58t56.5 55t62 48t62 36q67 31 119 31
t52 -46q0 -44 -39 -100t-106 -109q-27 -21 -54 -38t-58.5 -33.5t-69 -32t-85.5 -33.5l-57 -79q-23 -31 -38.5 -51t-30 -36.5t-30.5 -31.5t-40 -35q7 -4 11 -6t24 -9q6 -2 10.5 -4t12 -5t21 -8.5t38.5 -15.5q34 -14 58.5 -19.5t49.5 -5.5q61 0 115 74q50 68 50 132
q0 26 -13 48q-1 2 -1 4q0 3 4 3q5 0 11 -8t11 -20t8.5 -26t3.5 -25q0 -44 -18 -81t-50 -64t-75 -42t-94 -15q-25 0 -48 2.5t-49 9t-57.5 17.5t-72.5 27q-35 -15 -61.5 -24t-49 -14.5t-44 -7.5t-47.5 -2q-24 0 -45.5 4.5t-37.5 12t-25.5 17.5t-9.5 22q0 29 46.5 47t121.5 18
q18 0 33.5 -1t31.5 -3t35 -6t44 -10q53 42 125 163l23 38h-35zM325 56q-10 7 -29 14t-40.5 13t-43 9.5t-36.5 3.5q-35 0 -59.5 -16.5t-24.5 -40.5q0 -17 20 -28.5t51 -11.5q20 0 43 4.5t44.5 12t41 18t33.5 22.5zM629 328q39 13 70 26t59 29t54 36t55 46q29 27 53 54.5
t41 53t26.5 48.5t9.5 40q0 13 -9 20.5t-24 7.5q-20 0 -38 -6t-37.5 -19.5t-41.5 -35.5t-49 -55q-23 -28 -47 -59.5t-46 -63.5t-41.5 -63.5t-34.5 -58.5z" />
    </font>
</defs>
</svg>
